<svg width="319" height="395" viewBox="0 0 319 395" fill="none" xmlns="http://www.w3.org/2000/svg">
<path d="M113.8 368.789H121.754L134.908 355.009V350.295H130.013V346.669L134.908 338.328V332.889H130.013L124.507 340.504L121.754 338.328V329.988L117.777 322.735L113.8 329.988V338.328H107.376L101.258 332.889L96.3633 329.988L97.5869 336.878L101.258 343.768L102.481 350.295H96.3633V356.822L102.481 358.998L113.8 368.789Z" fill="#E4FFF8" stroke="black" stroke-opacity="0.29"/>
<path d="M116.254 361.899H119.887L125.894 355.606V353.453H123.659V351.797L125.894 347.988V345.504H123.659L121.144 348.982L119.887 347.988V344.179L118.071 340.867L116.254 344.179V347.988H113.32L110.526 345.504L108.291 344.179L108.85 347.326L110.526 350.472L111.085 353.453H108.291V356.434L111.085 357.428L116.254 361.899Z" fill="#FF8BC4"/>
<path d="M26.9219 80.8653H80.1503V69.9866L74.6439 67.4482H68.8316V58.02L64.2429 55.119H59.0425V51.1301H63.3252V41.7018L57.8188 38.0756V0H48.3356V38.0756L43.7469 41.7018V51.1301H48.3356V55.119H43.7469L38.8524 58.02V67.4482H32.4283L26.9219 69.9866V80.8653Z" fill="#FB5AA8"/>
<path d="M21.7227 114.227H14.3809V95.3705L21.7227 86.6675V114.227Z" fill="#FB5AA8"/>
<path d="M85.6543 114.226H94.2198V95.3696L85.6543 85.9414V114.226Z" fill="#FB5AA8"/>
<path d="M168.558 333.977L156.016 351.02L138.885 349.57V358.998L158.769 380.393L163.663 378.943L182.018 351.02L168.558 333.977Z" fill="#18305A"/>
<path d="M210.468 351.02V377.129L199.455 386.195V390.909L232.493 389.821V351.02H210.468Z" fill="#18305A"/>
<path d="M161.828 283.572H137.049V293.363H161.828V283.572Z" fill="#18305A"/>
<path d="M161.215 258.188V299.89L166.11 329.988L179.264 352.108H236.775L241.058 345.943H278.379L305.605 336.878L318.453 333.251L300.71 325.999H262.472L248.4 312.219L236.775 296.626L225.456 274.143V258.188L214.75 240.782L208.631 224.101L204.349 200.893L192.724 187.839L179.264 179.136H161.215L148.367 187.839L137.354 200.893L130.318 207.783L142.249 225.552L150.814 224.101L159.686 225.552V233.167L149.897 235.343H142.249L136.437 240.782L137.354 248.397L148.367 253.836L161.215 258.188Z" fill="#18305A"/>
<path d="M161.523 271.242H138.274L135.215 277.044H161.523V271.242Z" fill="#18305A"/>
<path d="M0 382.568V394.535H110.128V382.568H0Z" fill="#FB5AA8"/>
<rect x="14.6855" y="118.94" width="79.5367" height="258.914" fill="#FB5AA8"/>
<rect x="46.5" y="92.1064" width="15.9073" height="21.7575" fill="#FB5AA8"/>
<rect x="28.1465" y="92.1064" width="15.9073" height="21.7575" fill="#FB5AA8"/>
<rect x="64.8555" y="92.1064" width="15.9073" height="21.7575" fill="#FB5AA8"/>
</svg>
