<svg width="467" height="473" viewBox="0 0 467 473" fill="none" xmlns="http://www.w3.org/2000/svg">
<path d="M138.369 144.269L150.243 140.181L175.87 214.605L119.468 234.026L93.8417 159.601L105.716 155.513L127.935 220.042L160.588 208.799L138.369 144.269ZM183.985 200.98L194.474 231.442L184.65 234.825L175.445 214.751L170.427 216.479L167.447 206.674L183.985 200.98Z" fill="#18305A"/>
<path d="M356.214 274.606L363.203 276.792L358.767 300.687C360.471 299.194 362.167 298.184 363.854 297.657C365.578 297.105 367.274 296.968 368.941 297.247C372.244 297.799 374.61 299.293 376.039 301.731C377.499 304.173 378.248 307.386 378.287 311.369C378.357 315.358 377.912 319.939 376.952 325.113C375.985 330.318 374.622 334.779 372.862 338.494C371.108 342.177 369.007 344.93 366.561 346.752C364.146 348.579 361.476 349.248 358.55 348.759C357.072 348.512 355.688 347.844 354.398 346.756C353.114 345.636 352.008 344.077 351.082 342.079L346.785 365.222L339.43 365.011L343.91 340.881C342.32 342.458 340.672 343.557 338.968 344.177C337.301 344.771 335.744 344.948 334.297 344.706C331.371 344.217 329.102 342.722 327.491 340.222C325.911 337.727 324.975 334.467 324.685 330.442C324.4 326.385 324.741 321.754 325.707 316.549C326.668 311.375 327.915 306.927 329.449 303.207C331.015 299.492 332.955 296.729 335.27 294.917C337.584 293.105 340.393 292.476 343.696 293.028C345.332 293.301 346.804 293.935 348.111 294.929C349.424 295.892 350.597 297.349 351.629 299.3L356.214 274.606ZM344.337 299.536C342.103 299.163 340.141 300.387 338.449 303.208C336.764 305.998 335.269 310.905 333.965 317.929C332.661 324.953 332.293 330.08 332.86 333.311C333.434 336.511 334.838 338.298 337.071 338.671C338.455 338.902 339.726 338.694 340.884 338.047C342.042 337.4 343.412 336.4 344.993 335.048L350.547 305.133C349.556 303.48 348.643 302.196 347.808 301.28C346.972 300.365 345.815 299.783 344.337 299.536ZM366.042 303.164C364.501 302.906 363.11 303.062 361.869 303.63C360.628 304.199 359.239 305.131 357.701 306.425L352.165 336.247C353.012 337.973 353.86 339.343 354.71 340.358C355.565 341.341 356.685 341.949 358.069 342.18C360.365 342.564 362.409 341.338 364.201 338.501C365.992 335.664 367.537 330.749 368.836 323.757C370.14 316.732 370.565 311.647 370.111 308.5C369.664 305.321 368.307 303.542 366.042 303.164Z" fill="#18305A"/>
<path d="M240.625 288.22L237.007 351.102C236.776 355.331 236.094 359.339 234.96 363.127C233.862 366.904 231.977 370.306 229.303 373.332C226.676 376.383 222.938 378.879 218.09 380.819L214.626 373.999C218.357 372.225 221.163 370.347 223.046 368.366C224.929 366.384 226.22 364.165 226.917 361.709C227.651 359.242 228.105 356.408 228.28 353.207L225.263 354.076L189.228 303.018L198.926 300.226L229.434 345.407L231.25 290.919L240.625 288.22Z" fill="#18305A"/>
<path d="M366.374 154.201L363.756 197.945L359.254 204.302L326.134 202.809L322.177 196.07C323.786 194.802 325.143 193.219 326.247 191.321C327.382 189.425 328.391 186.725 329.271 183.222C330.152 179.718 330.98 174.951 331.756 168.921L333.875 152.736L366.374 154.201ZM357.81 160.375L340.748 159.606L339.629 168.701C339.066 173.304 338.467 177.172 337.832 180.304C337.231 183.405 336.534 185.975 335.741 188.015C334.982 190.023 334.053 191.673 332.953 192.965C331.887 194.225 330.589 195.364 329.059 196.38L355.583 197.576L357.81 160.375ZM318.783 195.917L329.967 196.421L329.862 202.977L326.469 202.824L324.243 216.801L317.552 216.499L318.783 195.917ZM367.436 198.111L366.204 218.693L359.561 218.394L358.967 204.289L355.622 204.138L356.253 197.606L367.436 198.111Z" fill="#18305A"/>
<path d="M287.44 167.702C286.37 170.706 284.502 173.008 281.834 174.607C279.178 176.176 275.772 177.328 271.619 178.062C275.105 181.105 277.561 184.426 278.988 188.027C280.414 191.627 280.443 195.35 279.074 199.196C277.876 202.562 275.924 205.289 273.217 207.379C270.51 209.469 267.28 210.746 263.527 211.211C259.804 211.686 255.734 211.188 251.316 209.717C246.867 208.236 243.327 206.2 240.695 203.61C238.104 201 236.447 198.096 235.724 194.898C235.031 191.709 235.272 188.463 236.449 185.158C237.807 181.341 240.086 178.504 243.286 176.646C246.527 174.767 250.343 173.601 254.735 173.147C251.993 170.487 250.17 167.763 249.267 164.975C248.394 162.198 248.572 159.081 249.802 155.626C250.818 152.771 252.259 150.529 254.125 148.898C256.033 147.248 258.145 146.069 260.461 145.361C262.808 144.664 265.178 144.377 267.57 144.502C270.004 144.606 272.25 145.001 274.307 145.686C276.577 146.441 278.704 147.502 280.688 148.869C282.714 150.215 284.404 151.837 285.76 153.733C287.127 155.599 287.987 157.701 288.34 160.036C288.724 162.382 288.424 164.937 287.44 167.702ZM271.008 196.612C272.002 193.817 272.077 191.372 271.232 189.276C270.387 187.18 268.902 185.173 266.775 183.255C264.648 181.337 262.134 179.274 259.231 177.064C257.228 177.271 255.271 177.728 253.361 178.437C251.45 179.145 249.72 180.249 248.171 181.75C246.632 183.221 245.397 185.263 244.467 187.877C243.216 191.393 243.316 194.535 244.768 197.303C246.26 200.052 249.155 202.141 253.452 203.572C257.81 205.023 261.523 205.049 264.593 203.651C267.704 202.233 269.842 199.887 271.008 196.612ZM257.305 158.224C256.46 160.598 256.342 162.642 256.95 164.357C257.588 166.082 258.781 167.723 260.529 169.279C262.287 170.805 264.408 172.503 266.891 174.371C270.384 173.685 273.156 172.743 275.208 171.544C277.27 170.315 278.803 168.288 279.809 165.464C280.921 162.339 280.819 159.532 279.505 157.045C278.22 154.567 275.793 152.734 272.222 151.545C268.681 150.366 265.602 150.366 262.982 151.544C260.363 152.722 258.471 154.949 257.305 158.224Z" fill="#18305A"/>
<path d="M136.816 305.561L140.749 311.549C139.68 312.301 138.455 313.129 137.075 314.032C135.693 314.904 134.09 315.824 132.267 316.792C130.476 317.759 128.37 318.797 125.949 319.906C123.961 320.791 122.202 321.771 120.674 322.845C119.177 323.917 117.891 325.277 116.815 326.925C115.77 328.571 114.965 330.695 114.398 333.296C113.862 335.895 113.561 339.147 113.494 343.054L113.855 343.459L114.579 354.678C114.97 360.725 116.4 365.303 118.87 368.412C121.337 371.488 124.495 372.882 128.344 372.592C130.665 372.418 132.732 371.767 134.545 370.639C136.388 369.477 137.797 367.548 138.774 364.852C139.78 362.122 140.126 358.322 139.811 353.452C139.417 347.341 138.138 343.12 135.974 340.788C133.842 338.454 131.169 337.407 127.957 337.649C125.795 337.812 123.696 338.465 121.66 339.61C119.623 340.722 117.8 342.443 116.193 344.77C114.615 347.064 113.388 350.082 112.511 353.826L111.882 345.574C113.027 341.522 115.047 338.156 117.942 335.476C120.867 332.761 124.492 331.241 128.817 330.916C132.474 330.641 135.73 331.324 138.585 332.964C141.437 334.572 143.737 337.038 145.486 340.361C147.232 343.651 148.261 347.7 148.571 352.506C148.918 357.884 148.306 362.52 146.736 366.412C145.164 370.272 142.818 373.295 139.699 375.48C136.613 377.663 132.97 378.913 128.772 379.228C124.733 379.532 121.043 378.818 117.704 377.086C114.362 375.323 111.617 372.395 109.467 368.303C107.317 364.211 106.028 358.839 105.598 352.187C105.146 345.185 105.274 339.243 105.981 334.36C106.719 329.444 108.323 325.341 110.795 322.053C113.268 318.765 116.882 316.094 121.64 314.042C124.033 312.998 126.082 312.061 127.786 311.229C129.521 310.395 131.096 309.541 132.51 308.667C133.922 307.761 135.357 306.726 136.816 305.561Z" fill="#18305A"/>
<path d="M269.969 255.284C274.249 252.1 278.818 251.443 283.677 253.314C288.536 255.185 293.447 259.371 298.411 265.874C303.39 272.395 306.128 278.228 306.626 283.373C307.108 288.499 305.21 292.654 300.93 295.838C296.669 299.008 292.1 299.664 287.222 297.808C282.349 295.918 277.423 291.712 272.444 285.191C267.48 278.689 264.756 272.874 264.274 267.748C263.81 262.608 265.708 258.453 269.969 255.284ZM272.908 259.134C270.471 260.947 269.531 263.658 270.09 267.267C270.634 270.857 273.127 275.561 277.569 281.379C280.559 285.296 283.254 288.254 285.654 290.255C288.054 292.255 290.251 293.379 292.244 293.625C294.257 293.857 296.165 293.302 297.969 291.959C299.62 290.732 300.602 289.121 300.916 287.129C301.25 285.122 300.802 282.682 299.573 279.811C298.348 276.906 296.262 273.524 293.316 269.664C290.326 265.748 287.63 262.789 285.23 260.788C282.85 258.774 280.66 257.66 278.662 257.447C276.669 257.201 274.751 257.763 272.908 259.134ZM279.819 256.184L284.286 259.434L290.99 294.111L286.658 292.102L279.819 256.184Z" fill="#18305A"/>
<path d="M205.04 216.798C208.763 227.609 203.143 239.316 192.534 242.969C181.925 246.622 170.289 240.856 166.566 230.045C162.844 219.234 168.463 207.527 179.072 203.874C189.682 200.221 201.318 205.987 205.04 216.798Z" stroke="#EF5A92" stroke-width="2.24253"/>
<path d="M243.804 350.796C248.531 356.989 247.333 365.73 241.157 370.324C234.98 374.919 226.138 373.647 221.411 367.455C216.683 361.263 217.882 352.522 224.058 347.928C230.234 343.333 239.077 344.604 243.804 350.796Z" stroke="#EF5A92" stroke-width="2.24253"/>
<path d="M374.457 274.129C377.126 281.88 373.027 290.313 365.312 292.969C357.598 295.625 349.176 291.504 346.507 283.753C343.838 276.003 347.937 267.57 355.652 264.914C363.367 262.257 371.788 266.379 374.457 274.129Z" stroke="#EF5A92" stroke-width="2.24253"/>
<path d="M338.557 194.288C341.225 202.039 337.126 210.471 329.412 213.127C321.697 215.784 313.276 211.662 310.607 203.912C307.938 196.161 312.037 187.729 319.752 185.072C327.466 182.416 335.888 186.537 338.557 194.288Z" stroke="#EF5A92" stroke-width="2.24253"/>
<path d="M358.699 360.234C361.368 367.985 357.269 376.417 349.554 379.074C341.84 381.73 333.418 377.609 330.749 369.858C328.081 362.107 332.18 353.675 339.894 351.018C347.609 348.362 356.03 352.483 358.699 360.234Z" stroke="#EF5A92" stroke-width="2.24253"/>
<path d="M148.406 308.744C151.718 318.362 146.902 328.658 137.771 331.802C128.64 334.946 118.506 329.798 115.195 320.18C111.883 310.563 116.699 300.267 125.83 297.123C134.961 293.979 145.095 299.127 148.406 308.744Z" stroke="#EF5A92" stroke-width="2.24253"/>
<path d="M288.374 173.359C292.839 186.327 285.259 200.825 271.248 205.649C257.236 210.474 242.337 203.716 237.872 190.749C233.407 177.781 240.987 163.283 254.999 158.458C269.01 153.634 283.909 160.392 288.374 173.359Z" stroke="#EF5A92" stroke-width="2.24253"/>
</svg>
