<svg width="442" height="449" viewBox="0 0 442 449" fill="none" xmlns="http://www.w3.org/2000/svg">
<path d="M82.0373 181.825L85.194 174.012L95.1268 178.025L114.581 129.875L104.648 125.862L107.805 118.049L125.49 125.194L121.274 141.034C125.858 136.78 130.486 133.929 135.157 132.482C139.828 131.034 145.05 131.477 150.824 133.809C152.601 134.527 154.119 135.305 155.377 136.142C156.693 136.955 157.995 137.858 159.286 138.849L152.648 146.734C151.462 145.833 150.357 145.081 149.332 144.479C148.323 143.837 147.112 143.23 145.699 142.659C140.813 140.685 135.913 140.725 130.997 142.778C126.081 144.831 121.154 148.946 116.216 155.124L105.302 182.136L118.263 187.373L115.106 195.186L82.0373 181.825ZM140.763 156.446L146.366 142.576L150.504 135.3L159.286 138.849L149.121 159.823L140.763 156.446Z" fill="#18305A"/>
<path d="M99.7484 270.449L100.42 308.905L112.834 308.689L112.931 314.248L79.9091 314.824L79.8121 309.265L93.3972 309.028L92.823 276.131L79.6559 276.361L79.5588 270.801L99.7484 270.449ZM93.7874 249.939C95.348 249.912 96.5963 250.364 97.5325 251.296C98.4965 252.226 98.9904 253.375 99.0142 254.74C99.039 256.161 98.5862 257.368 97.6558 258.36C96.7527 259.323 95.5209 259.819 93.9603 259.846C92.4834 259.872 91.2629 259.419 90.2989 258.488C89.3344 257.529 88.8398 256.339 88.815 254.918C88.7911 253.553 89.2447 252.388 90.1756 251.424C91.1065 250.46 92.3105 249.965 93.7874 249.939Z" fill="#18305A"/>
<path d="M372.804 253.69L372.192 262.942C369.591 262.733 366.947 262.185 364.259 261.299C361.57 260.414 358.693 259.351 355.627 258.112C358.177 260.826 359.779 263.658 360.431 266.607C361.097 269.521 360.804 272.529 359.551 275.63C358.103 279.213 356.006 282.073 353.259 284.21C350.512 286.346 347.285 287.588 343.578 287.934C339.905 288.294 335.916 287.603 331.609 285.863C329.783 285.126 328.284 284.42 327.113 283.747C325.977 283.087 324.91 282.355 323.912 281.551C322.863 281.769 321.867 282.248 320.926 282.99C320.019 283.746 319.357 284.641 318.94 285.675C318.411 286.984 318.489 288.278 319.175 289.557C319.86 290.836 321.599 292.039 324.39 293.167L334.209 297.134C337.862 298.61 340.87 300.587 343.236 303.066C345.635 305.558 347.217 308.241 347.98 311.115C348.777 314.002 348.605 316.858 347.463 319.684C345.306 325.024 341.375 328.206 335.671 329.228C330.002 330.264 323.033 329.112 314.764 325.771C308.975 323.432 304.654 320.984 301.799 318.428C298.93 315.906 297.266 313.13 296.807 310.099C296.369 307.116 296.895 303.782 298.384 300.095L306.24 303.269C305.391 305.371 305.101 307.278 305.371 308.99C305.642 310.702 306.73 312.324 308.636 313.856C310.528 315.422 313.507 317.027 317.573 318.669C321.57 320.284 324.965 321.255 327.759 321.582C330.573 321.958 332.854 321.717 334.603 320.861C336.373 320.052 337.654 318.666 338.448 316.702C339.492 314.118 339.107 311.698 337.293 309.442C335.479 307.186 332.815 305.348 329.3 303.928L319.584 300.003C314.898 298.109 311.853 295.677 310.448 292.705C309.078 289.746 308.936 286.923 310.022 284.236C310.732 282.479 311.921 280.975 313.588 279.725C315.29 278.489 317.38 277.63 319.859 277.148C317.392 274.228 315.912 271.245 315.419 268.2C314.926 265.155 315.382 261.893 316.788 258.413C318.278 254.726 320.506 251.839 323.474 249.751C326.455 247.629 329.91 246.42 333.838 246.123C337.765 245.826 341.865 246.54 346.138 248.267C350.734 250.084 354.532 251.398 357.531 252.209C360.544 252.985 363.206 253.439 365.517 253.572C367.863 253.718 370.292 253.757 372.804 253.69ZM343.569 254.624C339.193 252.856 335.474 252.736 332.412 254.264C329.398 255.772 327.153 258.352 325.678 262.004C324.188 265.691 324.031 269.155 325.207 272.395C326.382 275.636 329.175 278.147 333.586 279.929C337.445 281.488 340.826 281.551 343.729 280.119C346.667 278.701 348.943 275.993 350.558 271.996C352.215 267.896 352.451 264.385 351.267 261.461C350.132 258.518 347.566 256.239 343.569 254.624Z" fill="#18305A"/>
<path d="M350.244 145.365L293.058 200.589C290.615 202.948 289.602 205.379 290.02 207.881C290.5 210.384 291.905 212.842 294.234 215.254C295.686 216.757 297.219 218.032 298.833 219.076C300.447 220.121 302.171 221.059 304.004 221.892L300.267 229.588C298.308 228.876 296.11 227.76 293.673 226.239C291.234 224.78 288.805 222.797 286.385 220.291C282.15 215.905 279.922 211.185 279.703 206.13C279.514 201.045 281.566 196.431 285.858 192.286L336.371 143.506L321.714 128.328L327.964 122.293L350.244 145.365Z" fill="#18305A"/>
<path d="M226.282 237.681L207.037 269.71L243.457 293.893L231.504 296.873L195.733 272.759L214.491 240.621L226.282 237.681ZM182.258 223.093L202.459 304.114L193.373 306.38L173.455 226.494L182.258 223.093Z" fill="#18305A"/>
<path d="M163.234 158.134C159.799 166.637 150.318 170.764 142.095 167.442C133.872 164.119 129.92 154.565 133.355 146.062C136.79 137.56 146.271 133.433 154.494 136.755C162.717 140.077 166.669 149.632 163.234 158.134Z" stroke="#EF5A92" stroke-width="2.61292"/>
<path d="M125.076 130.734C121.641 139.237 112.16 143.364 103.937 140.042C95.7142 136.72 91.7614 127.165 95.1966 118.662C98.6318 110.16 108.112 106.033 116.335 109.355C124.558 112.677 128.511 122.232 125.076 130.734Z" stroke="#EF5A92" stroke-width="2.61292"/>
<path d="M344.701 139.929C341.266 148.431 331.785 152.558 323.562 149.236C315.339 145.914 311.386 136.359 314.822 127.857C318.257 119.354 327.737 115.227 335.96 118.549C344.183 121.872 348.136 131.426 344.701 139.929Z" stroke="#EF5A92" stroke-width="2.61292"/>
<path d="M95.6581 276.265C93.2547 282.213 86.0857 285.079 79.5439 282.436C73.0021 279.793 69.8358 272.751 72.2391 266.803C74.6425 260.854 81.8115 257.989 88.3533 260.632C94.8951 263.275 98.0615 270.316 95.6581 276.265Z" stroke="#EF5A92" stroke-width="2.61292"/>
<path d="M207.838 274.76C205.434 280.708 198.265 283.574 191.724 280.931C185.182 278.288 182.015 271.246 184.419 265.298C186.822 259.349 193.991 256.484 200.533 259.127C207.075 261.77 210.241 268.811 207.838 274.76Z" stroke="#EF5A92" stroke-width="2.61292"/>
<path d="M379.788 266.653C376.014 275.994 365.188 280.481 355.574 276.597C345.96 272.712 341.29 261.964 345.064 252.623C348.838 243.282 359.663 238.795 369.278 242.679C378.892 246.564 383.562 257.312 379.788 266.653Z" stroke="#EF5A92" stroke-width="2.61292"/>
<path d="M330.654 303.987C325.209 317.464 310.831 324.16 298.658 319.241C286.485 314.323 280.794 299.519 286.238 286.042C291.683 272.566 306.062 265.87 318.234 270.788C330.407 275.706 336.098 290.511 330.654 303.987Z" stroke="#EF5A92" stroke-width="2.61292"/>
</svg>
