<svg width="1113" height="862" viewBox="0 0 1113 862" fill="none" xmlns="http://www.w3.org/2000/svg">
<path d="M62.5 0H1066L1053 101H76L62.5 0Z" fill="#FFAAC7"/>
<path d="M76 101H1053L995 152.569H119.78L76 101Z" fill="#18305A"/>
<path d="M64.5147 758.621L121.057 153.948H993.72L1045.26 758.928L64.5147 758.621Z" fill="#18305A" stroke="black" stroke-width="2.7595"/>
<path d="M221.73 199.737H887.345C909.772 199.737 928.39 217.06 930.006 239.428L960.608 663.124C962.397 687.896 942.783 708.978 917.947 708.978H182.967C157.806 708.978 138.081 687.365 140.373 662.309L179.135 238.613C181.15 216.592 199.617 199.737 221.73 199.737Z" fill="#E4FFF8" stroke="black" stroke-width="2.7595"/>
<path d="M63.0797 760H1046.46L1113 862H0L63.0797 760Z" fill="#18305A"/>
<path d="M855.915 575.113L854.499 582.094C853.713 585.971 855.378 589.935 858.697 592.088V592.088L861.484 593.399C864.774 594.947 868.274 596.002 871.872 596.529L872.668 596.646C875.226 597.021 877.822 597.071 880.393 596.795V596.795C883.07 596.507 885.698 595.868 888.209 594.894L889.139 594.534C891.316 593.69 893.41 592.648 895.396 591.422L899.31 589.005V589.005C902.772 587.089 904.709 583.252 904.195 579.329L903.27 572.266L855.915 575.113Z" fill="#E4FFF8" stroke="#18305A" stroke-width="3.18046"/>
<path d="M870.776 579.48C849.903 576.546 835.202 568.275 837.651 550.851C840.1 533.426 858.771 513.448 879.644 516.382C900.517 519.315 917.506 539.501 915.057 556.925C912.608 574.349 891.65 582.413 870.776 579.48Z" fill="#FFAAC7"/>
<path d="M874.612 581.955C874.337 584.575 872.387 586.825 870.64 586.641C868.893 586.458 866.51 583.177 866.786 580.556C867.061 577.936 869.689 576.039 871.436 576.223C873.183 576.406 874.888 579.334 874.612 581.955Z" fill="#18305A"/>
<path d="M891.487 581.397C891.212 584.017 889.262 586.267 887.515 586.083C885.768 585.9 883.385 582.619 883.661 579.998C883.936 577.378 886.564 575.481 888.311 575.665C890.058 575.848 891.763 578.776 891.487 581.397Z" fill="#18305A"/>
<path d="M888.517 580.238C888.363 581.697 887.358 582.958 886.467 582.865C885.577 582.771 884.378 580.958 884.531 579.499C884.685 578.04 886.035 576.971 886.925 577.065C887.815 577.159 888.67 578.779 888.517 580.238Z" fill="white"/>
<path d="M871.251 580.049C871.098 581.508 870.092 582.769 869.202 582.675C868.312 582.582 867.112 580.768 867.266 579.309C867.419 577.85 868.769 576.782 869.659 576.876C870.549 576.969 871.404 578.59 871.251 580.049Z" fill="white"/>
<path d="M901.502 572.194C901.602 577.922 889.977 580.105 881.196 580.259C872.414 580.412 861.039 578.759 860.939 573.031C860.839 567.303 871.849 556.974 880.63 556.821C889.412 556.668 901.402 566.466 901.502 572.194Z" fill="#FF586C"/>
<path d="M849.49 568.49C843.983 570.069 839.403 566.971 837.47 557.902C837.001 549.671 838.472 539.577 845.216 539.816C850.724 538.237 856.686 542.381 859.107 550.823C861.528 559.266 854.998 566.91 849.49 568.49Z" fill="#FF586C"/>
<path d="M900.613 531.602C905.472 528.566 909.359 535.139 913.717 543.323C916.437 551.107 916.377 557.797 910.855 561.248C905.997 564.284 897.807 560.92 893.153 553.472C888.499 546.023 895.755 534.638 900.613 531.602Z" fill="#FF586C"/>
<path d="M853.6 527.04C853.3 521.318 864.283 516.508 873.053 516.049C881.824 515.589 893.809 519.067 894.109 524.788C894.409 530.509 883.766 541.215 874.996 541.675C866.225 542.135 853.899 532.761 853.6 527.04Z" fill="#FF586C"/>
<ellipse cx="233.018" cy="357.28" rx="8.01812" ry="11.2254" fill="#FE8CB3"/>
<ellipse cx="297.165" cy="355.676" rx="9.62174" ry="11.2254" fill="#FE8CB3"/>
<ellipse cx="284.335" cy="381.335" rx="16.0362" ry="8.01812" fill="#FE8CB3"/>
<ellipse cx="244.245" cy="381.335" rx="16.0362" ry="8.01812" fill="#FE8CB3"/>
<circle cx="265.09" cy="354.072" r="32.0725" fill="#FFAAC7"/>
<ellipse cx="271.506" cy="347.658" rx="3.20725" ry="9.62174" fill="black"/>
<ellipse cx="258.676" cy="347.658" rx="3.20725" ry="9.62174" fill="black"/>
<ellipse cx="269.902" cy="342.046" rx="1.60362" ry="2.40544" fill="white"/>
<ellipse cx="257.072" cy="342.046" rx="1.60362" ry="2.40544" fill="white"/>
<ellipse cx="234.5" cy="805.92" rx="82.5" ry="20.4032" fill="#FFAAC7"/>
<ellipse cx="234.499" cy="804.146" rx="39.9194" ry="11.5323" fill="#FF586C"/>
<rect x="224.742" y="687.936" width="19.5161" height="118.871" fill="#FFAAC7"/>
<ellipse cx="235.387" cy="651.565" rx="55" ry="50.5645" fill="#FF586C"/>
</svg>
