<svg width="1440" height="852" viewBox="0 0 1440 852" fill="none" xmlns="http://www.w3.org/2000/svg">
<g clip-path="url(#clip0_671_1806)">
<rect width="1440" height="3449" transform="translate(0 -2597)" fill="#FFE2EC"/>
<path d="M-123.618 -549H1611.24L1890 2305H-460L-123.618 -549Z" fill="#E4FFF8"/>
<path d="M236.936 721.262C235.125 722.374 232.902 720.653 233.523 718.621L247.344 673.414C250.098 664.407 255.831 656.603 263.604 651.283L263.874 651.098C270.326 646.682 277.919 644.232 285.735 644.043V644.043C294.453 643.833 303.006 646.448 310.116 651.497L310.341 651.657C316.579 656.087 321.463 662.165 324.446 669.21L324.687 669.78C328.488 678.758 329.158 688.755 326.589 698.16L314.086 743.937C313.55 745.902 310.915 746.259 309.876 744.506L304.324 735.147C302.553 732.161 298.665 731.231 295.734 733.091L284.854 739.997C284.463 740.245 283.944 740.095 283.746 739.677L278.139 727.826C276.604 724.581 272.628 723.333 269.514 725.121L257.892 731.791C257.495 732.019 256.988 731.851 256.804 731.431L251.932 720.278C250.437 716.854 246.26 715.542 243.076 717.496L236.936 721.262Z" stroke="#FFE2EC" stroke-width="2.30751"/>
<path d="M293.089 36.6616C292.012 37.7206 290.198 36.8847 290.303 35.3783L292.646 1.86862C293.113 -4.80781 295.835 -11.1273 300.366 -16.0531L300.524 -16.2245C304.285 -20.3133 309.151 -23.2238 314.532 -24.6035V-24.6035C320.535 -26.1424 326.874 -25.6992 332.604 -23.3398L332.786 -23.2651C337.813 -21.195 342.166 -17.7677 345.358 -13.3662L345.616 -13.0104C349.683 -7.40154 351.744 -0.587507 351.469 6.33524L350.13 40.0287C350.072 41.4753 348.305 42.143 347.306 41.0959L341.966 35.503C340.262 33.719 337.421 33.6962 335.69 35.4526L329.26 41.9735C329.029 42.2075 328.646 42.1865 328.442 41.9287L322.666 34.6197C321.084 32.6182 318.131 32.3903 316.261 34.1254L309.281 40.6014C309.042 40.8227 308.664 40.7878 308.47 40.5266L303.314 33.5827C301.731 31.4512 298.63 31.2106 296.737 33.0724L293.089 36.6616Z" stroke="#FFAECA" stroke-width="1.63969"/>
<path d="M1359.97 106.685C1358.59 107.288 1357.19 105.858 1357.83 104.489L1372.03 74.0448C1374.85 67.9791 1379.66 63.0549 1385.66 60.0801L1385.86 59.9765C1390.84 57.5072 1396.43 56.5338 1401.95 57.1743V57.1743C1408.1 57.8887 1413.86 60.5744 1418.36 64.8305L1418.51 64.9651C1422.46 68.6994 1425.29 73.459 1426.7 78.712L1426.81 79.1366C1428.6 85.8304 1428.08 92.9307 1425.34 99.2951L1412.02 130.271C1411.44 131.6 1409.56 131.591 1409 130.255L1406.02 123.12C1405.07 120.844 1402.42 119.804 1400.18 120.823L1391.84 124.607C1391.54 124.743 1391.19 124.586 1391.09 124.272L1388.31 115.379C1387.56 112.943 1384.88 111.672 1382.51 112.622L1373.68 116.166C1373.37 116.287 1373.03 116.119 1372.95 115.806L1370.62 107.475C1369.91 104.918 1367.1 103.582 1364.66 104.642L1359.97 106.685Z" stroke="#FFAECA" stroke-width="1.63969"/>
<path d="M854.97 274.685C853.586 275.288 852.191 273.858 852.83 272.489L867.026 242.045C869.854 235.979 874.661 231.055 880.656 228.08L880.865 227.977C885.841 225.507 891.427 224.534 896.945 225.174V225.174C903.101 225.889 908.86 228.574 913.364 232.83L913.507 232.965C917.458 236.699 920.294 241.459 921.696 246.712L921.809 247.137C923.596 253.83 923.079 260.931 920.341 267.295L907.016 298.271C906.444 299.6 904.555 299.591 903.997 298.255L901.016 291.12C900.065 288.844 897.421 287.804 895.175 288.823L886.836 292.607C886.536 292.743 886.186 292.586 886.088 292.272L883.315 283.379C882.555 280.943 879.881 279.672 877.513 280.622L868.675 284.166C868.373 284.287 868.033 284.119 867.945 283.806L865.62 275.475C864.906 272.918 862.097 271.582 859.663 272.642L854.97 274.685Z" stroke="#FFAECA" stroke-width="1.63969"/>
<path d="M1354.87 688.621C1353.87 689.753 1352 689.046 1352 687.536V653.944C1352 647.251 1354.27 640.757 1358.45 635.527L1358.6 635.345C1362.06 631.004 1366.71 627.761 1371.99 626.01V626.01C1377.87 624.056 1384.22 624.056 1390.1 626.01L1390.29 626.071C1395.45 627.786 1400.03 630.901 1403.52 635.069L1403.8 635.406C1408.25 640.718 1410.78 647.371 1410.99 654.296L1412.01 688.001C1412.05 689.448 1410.33 690.238 1409.26 689.263L1403.55 684.056C1401.72 682.395 1398.89 682.571 1397.28 684.444L1391.32 691.397C1391.11 691.647 1390.72 691.652 1390.5 691.409L1384.23 684.521C1382.51 682.635 1379.55 682.614 1377.81 684.475L1371.3 691.422C1371.07 691.659 1370.69 691.651 1370.48 691.404L1364.85 684.837C1363.13 682.821 1360.02 682.797 1358.26 684.786L1354.87 688.621Z" stroke="#FFAECA" stroke-width="1.63969"/>
<path d="M1233.87 431.621C1232.87 432.753 1231 432.046 1231 430.536V396.944C1231 390.251 1233.27 383.757 1237.45 378.527L1237.6 378.345C1241.06 374.004 1245.71 370.761 1250.99 369.01V369.01C1256.87 367.056 1263.22 367.056 1269.1 369.01L1269.29 369.071C1274.45 370.786 1279.03 373.901 1282.52 378.069L1282.8 378.406C1287.25 383.718 1289.78 390.371 1289.99 397.296L1291.01 431.001C1291.05 432.448 1289.33 433.238 1288.26 432.263L1282.55 427.056C1280.72 425.395 1277.89 425.571 1276.28 427.444L1270.32 434.397C1270.11 434.647 1269.72 434.652 1269.5 434.409L1263.23 427.521C1261.51 425.635 1258.55 425.614 1256.81 427.475L1250.3 434.422C1250.07 434.659 1249.69 434.651 1249.48 434.404L1243.85 427.837C1242.13 425.821 1239.02 425.797 1237.26 427.786L1233.87 431.621Z" stroke="#FFAECA" stroke-width="1.63969"/>
<path d="M694.082 366.246C692.31 367.42 690.028 365.778 690.578 363.725L702.813 318.063C705.251 308.966 710.708 300.967 718.29 295.379L718.554 295.184C724.848 290.546 732.351 287.832 740.156 287.371V287.371C748.861 286.857 757.5 289.171 764.782 293.969L765.012 294.121C771.401 298.331 776.494 304.234 779.721 311.172L779.982 311.732C784.094 320.573 785.113 330.539 782.874 340.029L771.976 386.214C771.508 388.197 768.888 388.645 767.788 386.93L761.913 377.77C760.039 374.848 756.12 374.054 753.257 376.015L742.623 383.297C742.242 383.558 741.718 383.426 741.505 383.015L735.488 371.367C733.841 368.178 729.824 367.07 726.774 368.965L715.392 376.036C715.003 376.278 714.49 376.128 714.292 375.715L709.034 364.738C707.42 361.369 703.2 360.204 700.085 362.267L694.082 366.246Z" stroke="#FFE2EC" stroke-width="2.30751"/>
<path d="M753.194 102.433C751.732 103.975 749.139 102.888 749.213 100.765L750.863 53.5205C751.192 44.1076 754.71 35.086 760.841 27.9358L761.054 27.6869C766.143 21.7516 772.843 17.4192 780.344 15.2145V15.2145C788.711 12.7552 797.649 13.0673 805.823 16.1042L806.082 16.2003C813.254 18.8648 819.545 23.4713 824.25 29.505L824.63 29.9927C830.625 37.6814 833.86 47.1636 833.813 56.9134L833.584 104.367C833.574 106.404 831.122 107.43 829.664 106.006L821.879 98.4025C819.396 95.9771 815.399 96.0846 813.05 98.6398L804.327 108.127C804.014 108.467 803.474 108.457 803.175 108.104L794.692 98.1081C792.369 95.3708 788.205 95.1953 785.66 97.7274L776.161 107.178C775.836 107.501 775.303 107.471 775.017 107.113L767.424 97.6001C765.093 94.68 760.719 94.4939 758.149 97.2054L753.194 102.433Z" stroke="#FFE2EC" stroke-width="2.30751"/>
<path d="M1078.77 101.646C1077.11 102.97 1074.69 101.533 1075.06 99.4401L1083.27 52.8854C1084.9 43.6099 1089.64 35.1658 1096.71 28.9383L1096.96 28.7216C1102.82 23.5523 1110.06 20.1946 1117.79 19.0552V19.0552C1126.42 17.7843 1135.23 19.3373 1142.9 23.4823L1143.14 23.6134C1149.88 27.2502 1155.46 32.6873 1159.28 39.3171L1159.59 39.853C1164.46 48.3013 1166.34 58.1413 1164.94 67.7897L1158.11 114.749C1157.81 116.765 1155.24 117.44 1154 115.827L1147.35 107.214C1145.23 104.467 1141.25 104.017 1138.57 106.22L1128.61 114.401C1128.26 114.695 1127.72 114.609 1127.47 114.218L1120.46 103.139C1118.55 100.105 1114.45 99.3517 1111.57 101.505L1100.85 109.542C1100.49 109.816 1099.96 109.712 1099.73 109.318L1093.53 98.8409C1091.63 95.6249 1087.33 94.8319 1084.4 97.1592L1078.77 101.646Z" stroke="#FFE2EC" stroke-width="2.30751"/>
<path d="M1353.33 530.979C1352.42 532.898 1349.62 532.666 1349.03 530.623L1336 485.181C1333.41 476.128 1333.97 466.46 1337.59 457.766L1337.71 457.463C1340.72 450.246 1345.75 444.055 1352.2 439.64V439.64C1359.4 434.716 1368 432.251 1376.71 432.613L1376.99 432.624C1384.63 432.942 1392.04 435.379 1398.38 439.664L1398.89 440.01C1406.97 445.47 1412.97 453.488 1415.94 462.775L1430.39 507.977C1431.01 509.917 1428.99 511.651 1427.17 510.747L1417.41 505.922C1414.3 504.382 1410.53 505.719 1409.09 508.876L1403.72 520.594C1403.53 521.014 1403.02 521.171 1402.62 520.928L1391.47 514.043C1388.41 512.157 1384.4 513.277 1382.76 516.472L1376.64 528.396C1376.43 528.803 1375.92 528.939 1375.54 528.687L1365.37 521.986C1362.26 519.929 1358.04 521.104 1356.43 524.477L1353.33 530.979Z" stroke="#FFE2EC" stroke-width="2.30751"/>
<path d="M1229.27 267.433C1227.78 268.949 1225.21 267.818 1225.32 265.695L1227.79 218.487C1228.29 209.082 1231.96 200.123 1238.22 193.081L1238.43 192.836C1243.62 186.99 1250.4 182.775 1257.94 180.702V180.702C1266.35 178.389 1275.28 178.857 1283.4 182.036L1283.66 182.137C1290.78 184.926 1296.99 189.641 1301.59 195.756L1301.96 196.251C1307.82 204.043 1310.89 213.58 1310.67 223.327L1309.61 270.769C1309.57 272.806 1307.1 273.789 1305.67 272.34L1298.02 264.602C1295.57 262.134 1291.58 262.171 1289.18 264.685L1280.3 274.018C1279.98 274.353 1279.44 274.333 1279.14 273.975L1270.84 263.833C1268.56 261.056 1264.4 260.808 1261.81 263.295L1252.15 272.578C1251.82 272.896 1251.29 272.856 1251.01 272.493L1243.58 262.849C1241.3 259.889 1236.93 259.627 1234.32 262.293L1229.27 267.433Z" stroke="#FFE2EC" stroke-width="2.30751"/>
<path d="M510.194 496.433C508.732 497.975 506.139 496.888 506.213 494.765L507.863 447.52C508.192 438.108 511.71 429.086 517.841 421.936L518.054 421.687C523.143 415.752 529.843 411.419 537.344 409.214V409.214C545.711 406.755 554.649 407.067 562.823 410.104L563.082 410.2C570.254 412.865 576.545 417.471 581.25 423.505L581.63 423.993C587.625 431.681 590.86 441.164 590.813 450.913L590.584 498.367C590.574 500.404 588.122 501.43 586.664 500.006L578.879 492.403C576.396 489.977 572.399 490.085 570.05 492.64L561.327 502.127C561.014 502.467 560.474 502.457 560.175 502.104L551.692 492.108C549.369 489.371 545.205 489.195 542.66 491.727L533.161 501.178C532.836 501.501 532.303 501.471 532.017 501.113L524.424 491.6C522.093 488.68 517.719 488.494 515.149 491.205L510.194 496.433Z" stroke="#FFE2EC" stroke-width="2.30751"/>
<path d="M1205.21 772.771C1203.28 773.654 1201.28 771.675 1202.14 769.734L1221.37 726.548C1225.2 717.943 1231.84 710.897 1240.21 706.564L1240.5 706.413C1247.44 702.816 1255.28 701.309 1263.06 702.075V702.075C1271.73 702.929 1279.9 706.566 1286.35 712.445L1286.55 712.63C1292.2 717.788 1296.31 724.415 1298.41 731.772L1298.58 732.367C1301.26 741.742 1300.71 751.745 1297.01 760.767L1279.02 804.679C1278.25 806.565 1275.59 806.597 1274.77 804.731L1270.4 794.765C1269.01 791.586 1265.26 790.188 1262.13 791.677L1250.49 797.206C1250.07 797.404 1249.57 797.192 1249.43 796.753L1245.31 784.307C1244.18 780.899 1240.38 779.177 1237.07 780.571L1224.73 785.775C1224.3 785.953 1223.82 785.725 1223.69 785.286L1220.21 773.622C1219.15 770.041 1215.16 768.23 1211.76 769.781L1205.21 772.771Z" stroke="#FFE2EC" stroke-width="2.30751"/>
<path d="M1142.58 672.742V699.482H1139.22V676.382L1132.9 680.222L1131.44 677.822L1139.64 672.742H1142.58ZM1148.34 697.542V700.282H1132.44V697.542H1148.34ZM1186.39 672.302C1188.12 672.302 1189.6 672.635 1190.83 673.302C1192.07 673.968 1193.02 674.882 1193.69 676.042C1194.36 677.202 1194.69 678.515 1194.69 679.982C1194.69 681.248 1194.47 682.488 1194.03 683.702C1193.59 684.902 1192.88 686.168 1191.91 687.502C1190.95 688.822 1189.68 690.288 1188.11 691.902C1186.55 693.515 1184.63 695.355 1182.35 697.422H1195.33L1194.91 700.282H1178.53V697.542C1180.61 695.555 1182.38 693.815 1183.83 692.322C1185.3 690.828 1186.5 689.522 1187.45 688.402C1188.41 687.268 1189.16 686.242 1189.69 685.322C1190.24 684.402 1190.62 683.528 1190.83 682.702C1191.04 681.862 1191.15 680.995 1191.15 680.102C1191.15 678.555 1190.71 677.335 1189.83 676.442C1188.96 675.548 1187.76 675.102 1186.23 675.102C1184.87 675.102 1183.76 675.335 1182.89 675.802C1182.02 676.268 1181.16 677.015 1180.29 678.042L1177.97 676.242C1179.06 674.908 1180.28 673.922 1181.61 673.282C1182.94 672.628 1184.54 672.302 1186.39 672.302ZM1234.32 672.302C1236.05 672.302 1237.55 672.615 1238.8 673.242C1240.07 673.855 1241.05 674.688 1241.74 675.742C1242.43 676.782 1242.78 677.928 1242.78 679.182C1242.78 680.288 1242.53 681.295 1242.04 682.202C1241.55 683.108 1240.89 683.855 1240.08 684.442C1239.27 685.028 1238.37 685.415 1237.4 685.602C1238.48 685.682 1239.49 685.988 1240.44 686.522C1241.39 687.042 1242.16 687.788 1242.76 688.762C1243.36 689.722 1243.66 690.915 1243.66 692.342C1243.66 693.928 1243.26 695.362 1242.46 696.642C1241.66 697.908 1240.54 698.908 1239.1 699.642C1237.67 700.375 1236.01 700.742 1234.1 700.742C1232.57 700.742 1231.03 700.448 1229.5 699.862C1227.98 699.275 1226.69 698.342 1225.64 697.062L1227.9 695.222C1228.69 696.142 1229.62 696.828 1230.7 697.282C1231.79 697.735 1232.9 697.962 1234.02 697.962C1235.94 697.962 1237.44 697.462 1238.52 696.462C1239.6 695.448 1240.14 694.075 1240.14 692.342C1240.14 691.035 1239.89 690.002 1239.38 689.242C1238.89 688.482 1238.21 687.942 1237.36 687.622C1236.51 687.288 1235.53 687.122 1234.44 687.122H1232.12L1232.54 684.462H1234.16C1235.05 684.462 1235.89 684.295 1236.68 683.962C1237.48 683.615 1238.13 683.082 1238.64 682.362C1239.15 681.642 1239.4 680.742 1239.4 679.662C1239.4 678.142 1238.89 676.982 1237.88 676.182C1236.87 675.382 1235.64 674.982 1234.2 674.982C1233 674.982 1231.95 675.195 1231.06 675.622C1230.17 676.035 1229.27 676.668 1228.36 677.522L1226.5 675.462C1227.67 674.355 1228.92 673.555 1230.24 673.062C1231.56 672.555 1232.92 672.302 1234.32 672.302ZM1282.51 672.302L1285.31 673.482L1277.99 690.902H1292.69V693.582H1274.43V691.142L1282.51 672.302ZM1289.13 683.082V700.282H1285.89L1285.87 691.542L1286.33 683.082H1289.13ZM1339 672.742L1338.5 675.422H1327.62V684.102C1328.46 683.648 1329.25 683.342 1330 683.182C1330.76 683.008 1331.55 682.922 1332.38 682.922C1333.87 682.922 1335.18 683.262 1336.32 683.942C1337.45 684.608 1338.33 685.588 1338.96 686.882C1339.58 688.175 1339.9 689.735 1339.9 691.562C1339.9 693.388 1339.51 694.995 1338.74 696.382C1337.98 697.768 1336.9 698.842 1335.52 699.602C1334.13 700.362 1332.48 700.742 1330.58 700.742C1328.92 700.742 1327.44 700.448 1326.14 699.862C1324.84 699.275 1323.66 698.462 1322.6 697.422L1324.68 695.422C1325.52 696.275 1326.42 696.915 1327.38 697.342C1328.35 697.755 1329.43 697.962 1330.62 697.962C1332.43 697.962 1333.84 697.415 1334.86 696.322C1335.87 695.215 1336.38 693.595 1336.38 691.462C1336.38 689.982 1336.16 688.815 1335.72 687.962C1335.28 687.108 1334.68 686.502 1333.92 686.142C1333.17 685.768 1332.34 685.582 1331.42 685.582C1330.6 685.582 1329.88 685.662 1329.26 685.822C1328.63 685.968 1327.92 686.195 1327.12 686.502H1324.42V672.742H1339ZM1141.06 724.302C1142.13 724.302 1143.11 724.442 1144 724.722C1144.9 724.988 1145.73 725.382 1146.5 725.902L1145.18 728.182C1144.56 727.795 1143.89 727.508 1143.18 727.322C1142.49 727.122 1141.76 727.022 1141 727.022C1139.54 727.022 1138.29 727.515 1137.26 728.502C1136.24 729.475 1135.46 730.855 1134.94 732.642C1134.42 734.415 1134.17 736.502 1134.18 738.902L1134.22 740.202C1134.22 743.588 1134.67 746.075 1135.56 747.662C1136.46 749.235 1137.92 750.022 1139.94 750.022C1141.69 750.022 1143 749.402 1143.86 748.162C1144.74 746.922 1145.18 745.235 1145.18 743.102C1145.18 740.835 1144.74 739.268 1143.84 738.402C1142.95 737.535 1141.77 737.102 1140.3 737.102C1138.88 737.102 1137.62 737.528 1136.52 738.382C1135.43 739.235 1134.54 740.328 1133.86 741.662L1133.78 738.702C1134.69 737.155 1135.72 736.042 1136.88 735.362C1138.04 734.682 1139.36 734.342 1140.82 734.342C1142.25 734.342 1143.55 734.655 1144.72 735.282C1145.9 735.908 1146.84 736.868 1147.54 738.162C1148.26 739.442 1148.62 741.062 1148.62 743.022C1148.62 745.048 1148.24 746.788 1147.46 748.242C1146.69 749.682 1145.64 750.795 1144.32 751.582C1143 752.355 1141.55 752.742 1139.96 752.742C1138.28 752.742 1136.86 752.428 1135.7 751.802C1134.54 751.162 1133.6 750.255 1132.88 749.082C1132.16 747.895 1131.64 746.475 1131.3 744.822C1130.98 743.155 1130.82 741.302 1130.82 739.262C1130.82 736.222 1131.22 733.582 1132.02 731.342C1132.84 729.102 1134 727.368 1135.52 726.142C1137.06 724.915 1138.9 724.302 1141.06 724.302ZM1184.83 752.662L1181.69 751.702L1192.43 727.542H1179.51V724.742H1195.81V727.322L1184.83 752.662ZM1243.84 731.302C1243.84 732.635 1243.43 733.795 1242.6 734.782C1241.77 735.755 1240.59 736.662 1239.06 737.502C1240.86 738.248 1242.29 739.242 1243.36 740.482C1244.43 741.722 1244.96 743.195 1244.96 744.902C1244.96 746.395 1244.57 747.735 1243.8 748.922C1243.03 750.108 1241.93 751.042 1240.52 751.722C1239.12 752.402 1237.45 752.742 1235.5 752.742C1233.54 752.742 1231.86 752.402 1230.46 751.722C1229.07 751.028 1228.01 750.095 1227.28 748.922C1226.56 747.748 1226.2 746.428 1226.2 744.962C1226.2 743.268 1226.7 741.842 1227.7 740.682C1228.71 739.508 1230.05 738.542 1231.72 737.782C1230.27 737.088 1229.17 736.248 1228.42 735.262C1227.69 734.275 1227.32 733.015 1227.32 731.482C1227.32 730.215 1227.57 729.135 1228.08 728.242C1228.6 727.335 1229.27 726.588 1230.08 726.002C1230.91 725.415 1231.8 724.988 1232.76 724.722C1233.73 724.442 1234.67 724.302 1235.58 724.302C1236.58 724.302 1237.57 724.442 1238.54 724.722C1239.53 724.988 1240.42 725.408 1241.22 725.982C1242.02 726.542 1242.65 727.262 1243.12 728.142C1243.6 729.022 1243.84 730.075 1243.84 731.302ZM1241.42 744.942C1241.42 743.702 1241.11 742.722 1240.48 742.002C1239.85 741.282 1238.99 740.682 1237.88 740.202C1236.77 739.722 1235.49 739.235 1234.04 738.742C1233.28 739.088 1232.57 739.528 1231.92 740.062C1231.27 740.595 1230.74 741.262 1230.34 742.062C1229.94 742.848 1229.74 743.822 1229.74 744.982C1229.74 746.542 1230.22 747.775 1231.18 748.682C1232.15 749.575 1233.59 750.022 1235.48 750.022C1237.4 750.022 1238.87 749.542 1239.88 748.582C1240.91 747.608 1241.42 746.395 1241.42 744.942ZM1230.64 731.522C1230.64 732.575 1230.88 733.402 1231.36 734.002C1231.85 734.602 1232.55 735.095 1233.46 735.482C1234.37 735.855 1235.44 736.248 1236.68 736.662C1237.96 735.928 1238.92 735.188 1239.56 734.442C1240.2 733.682 1240.52 732.675 1240.52 731.422C1240.52 730.035 1240.09 728.935 1239.22 728.122C1238.37 727.308 1237.15 726.902 1235.58 726.902C1234.02 726.902 1232.81 727.308 1231.94 728.122C1231.07 728.935 1230.64 730.068 1230.64 731.522ZM1283.13 724.342C1285.13 724.342 1286.8 724.802 1288.13 725.722C1289.46 726.642 1290.46 727.942 1291.11 729.622C1291.78 731.302 1292.11 733.295 1292.11 735.602C1292.11 738.375 1291.82 740.728 1291.25 742.662C1290.69 744.582 1289.82 746.188 1288.63 747.482C1287.44 748.775 1285.92 749.862 1284.07 750.742C1282.22 751.622 1280 752.415 1277.43 753.122L1276.65 750.562C1279.26 749.828 1281.44 748.962 1283.17 747.962C1284.9 746.948 1286.22 745.675 1287.11 744.142C1288 742.595 1288.48 740.675 1288.55 738.382L1288.61 736.462C1288.62 734.168 1288.43 732.335 1288.03 730.962C1287.64 729.575 1287.04 728.582 1286.23 727.982C1285.43 727.368 1284.4 727.062 1283.13 727.062C1281.34 727.062 1279.99 727.608 1279.07 728.702C1278.15 729.795 1277.69 731.395 1277.69 733.502C1277.69 735.595 1278.13 737.122 1279.01 738.082C1279.9 739.028 1281.14 739.502 1282.71 739.502C1284.08 739.502 1285.27 739.115 1286.27 738.342C1287.27 737.568 1288.22 736.528 1289.11 735.222L1289.09 738.142C1288.28 739.315 1287.3 740.282 1286.15 741.042C1285 741.802 1283.65 742.182 1282.09 742.182C1280.56 742.182 1279.2 741.828 1278.01 741.122C1276.82 740.415 1275.89 739.408 1275.21 738.102C1274.54 736.795 1274.21 735.222 1274.21 733.382C1274.21 731.422 1274.61 729.768 1275.41 728.422C1276.21 727.075 1277.28 726.062 1278.63 725.382C1279.98 724.688 1281.48 724.342 1283.13 724.342ZM1331.52 724.302C1334.49 724.302 1336.74 725.528 1338.26 727.982C1339.78 730.435 1340.54 733.942 1340.54 738.502C1340.54 743.075 1339.78 746.595 1338.26 749.062C1336.74 751.515 1334.49 752.742 1331.52 752.742C1328.56 752.742 1326.31 751.515 1324.78 749.062C1323.26 746.595 1322.5 743.075 1322.5 738.502C1322.5 733.942 1323.26 730.435 1324.78 727.982C1326.31 725.528 1328.56 724.302 1331.52 724.302ZM1331.52 727.002C1329.82 727.002 1328.49 727.902 1327.52 729.702C1326.54 731.488 1326.06 734.422 1326.06 738.502C1326.06 741.248 1326.25 743.468 1326.64 745.162C1327.02 746.855 1327.62 748.088 1328.42 748.862C1329.23 749.635 1330.26 750.022 1331.52 750.022C1332.66 750.022 1333.64 749.628 1334.46 748.842C1335.28 748.055 1335.91 746.815 1336.34 745.122C1336.78 743.415 1337 741.208 1337 738.502C1337 735.755 1336.8 733.535 1336.42 731.842C1336.04 730.148 1335.45 728.922 1334.64 728.162C1333.84 727.388 1332.8 727.002 1331.52 727.002ZM1335.58 727.982L1336.46 730.922L1327.7 748.662L1326.46 746.322L1335.58 727.982Z" fill="white"/>
<rect x="81.2464" y="326.246" width="22.5073" height="18.7368" rx="1.72451" fill="#FFE2EC" stroke="#18305A" stroke-width="0.492718"/>
<rect x="96.1173" y="328.909" width="1.76958" height="14.7433" rx="0.884789" transform="rotate(34 96.1173 328.909)" fill="#18305A" stroke="#18305A" stroke-width="0.492718"/>
<rect x="87.9697" y="329.814" width="1.76958" height="14.7433" rx="0.884789" transform="rotate(-33 87.9697 329.814)" fill="#18305A" stroke="#18305A" stroke-width="0.492718"/>
<path d="M-33.3326 129.264C-34.5657 130.995 -37.2846 130.28 -37.5067 128.166L-42.4481 81.1524C-43.4326 71.7855 -41.2042 62.362 -36.1284 54.4281L-35.9518 54.152C-31.7385 47.5662 -25.706 42.3434 -18.5849 39.1162V39.1162C-10.6419 35.5165 -1.74784 34.5817 6.77001 36.4513L7.03949 36.5105C14.5129 38.1508 21.383 41.8371 26.8819 47.1573L27.3264 47.5873C34.3336 54.3667 38.8563 63.3065 40.1666 72.968L46.5441 119.991C46.8179 122.01 44.5321 123.367 42.8906 122.16L34.1232 115.714C31.3266 113.658 27.3838 114.321 25.4129 117.178L18.0955 127.787C17.833 128.167 17.2963 128.232 16.9509 127.924L7.15941 119.206C4.47807 116.819 0.330778 117.225 -1.83718 120.086L-9.92902 130.767C-10.2056 131.132 -10.7379 131.176 -11.0706 130.862L-19.9136 122.498C-22.628 119.931 -26.9853 120.355 -29.1532 123.398L-33.3326 129.264Z" stroke="#FFE2EC" stroke-width="2.30751"/>
<path d="M236.196 236.493C234.385 237.604 232.161 235.884 232.783 233.851L246.604 188.644C249.358 179.637 255.091 171.834 262.863 166.514L263.134 166.328C269.585 161.913 277.179 159.462 284.995 159.274V159.274C293.713 159.064 302.265 161.678 309.376 166.728L309.601 166.887C315.839 171.317 320.723 177.395 323.706 184.441L323.947 185.01C327.748 193.989 328.418 203.985 325.849 213.391L313.346 259.167C312.809 261.133 310.175 261.489 309.136 259.737L303.584 250.377C301.813 247.392 297.925 246.461 294.994 248.321L284.113 255.227C283.723 255.475 283.204 255.325 283.006 254.907L277.399 243.056C275.864 239.811 271.888 238.564 268.774 240.351L257.152 247.021C256.755 247.249 256.248 247.082 256.064 246.662L251.192 235.508C249.697 232.084 245.52 230.773 242.335 232.726L236.196 236.493Z" stroke="#FFE2EC" stroke-width="2.30751"/>
<path d="M486.311 335.235C485.858 336.676 483.863 336.79 483.249 335.41L469.586 304.723C466.864 298.608 466.301 291.751 467.989 285.274L468.047 285.049C469.449 279.673 472.379 274.819 476.483 271.074V271.074C481.06 266.897 486.866 264.313 493.033 263.706L493.228 263.686C498.638 263.154 504.091 264.137 508.975 266.525L509.37 266.718C515.594 269.761 520.614 274.809 523.621 281.051L538.256 311.429C538.885 312.733 537.638 314.152 536.264 313.697L528.923 311.266C526.581 310.49 524.062 311.804 523.358 314.168L520.742 322.944C520.648 323.259 520.3 323.42 519.999 323.288L511.467 319.547C509.131 318.522 506.417 319.707 505.581 322.117L502.457 331.112C502.351 331.42 502.001 331.566 501.707 331.427L493.894 327.716C491.496 326.577 488.644 327.821 487.847 330.353L486.311 335.235Z" stroke="#FFAECA" stroke-width="1.63969"/>
<path d="M628.97 194.685C627.586 195.288 626.191 193.858 626.83 192.489L641.026 162.045C643.854 155.979 648.661 151.055 654.656 148.08L654.865 147.977C659.841 145.507 665.427 144.534 670.945 145.174V145.174C677.101 145.889 682.86 148.574 687.364 152.83L687.507 152.965C691.458 156.699 694.294 161.459 695.696 166.712L695.809 167.137C697.596 173.83 697.079 180.931 694.341 187.295L681.016 218.271C680.444 219.6 678.555 219.591 677.997 218.255L675.016 211.12C674.065 208.844 671.421 207.804 669.175 208.823L660.836 212.607C660.536 212.743 660.186 212.586 660.088 212.272L657.315 203.379C656.555 200.943 653.881 199.672 651.513 200.622L642.675 204.166C642.373 204.287 642.033 204.119 641.945 203.806L639.62 195.475C638.906 192.918 636.097 191.582 633.663 192.642L628.97 194.685Z" stroke="#FFAECA" stroke-width="1.63969"/>
<path d="M33.2496 305.174C31.9765 305.986 30.3754 304.791 30.7917 303.339L40.0508 271.049C41.8955 264.616 45.8722 259 51.3282 255.124L51.5181 254.989C56.0471 251.772 61.4119 249.936 66.9626 249.706V249.706C73.154 249.448 79.2627 251.2 84.377 254.699L84.5388 254.81C89.026 257.88 92.571 262.137 94.7778 267.106L94.9562 267.508C97.7682 273.84 98.3683 280.934 96.6598 287.648L88.3444 320.327C87.9874 321.73 86.1201 322.015 85.3599 320.783L81.2995 314.203C80.0043 312.103 77.2302 311.49 75.1711 312.848L67.5261 317.89C67.2518 318.071 66.881 317.971 66.7353 317.676L62.6049 309.326C61.4738 307.039 58.6334 306.202 56.4433 307.511L48.2688 312.394C47.9894 312.561 47.627 312.448 47.4915 312.152L43.8917 304.288C42.7866 301.874 39.8029 300.994 37.5646 302.421L33.2496 305.174Z" stroke="#FFAECA" stroke-width="1.63969"/>
<path d="M513.433 109.815C512.292 111.608 509.54 111.036 509.207 108.937L501.812 62.2464C500.339 52.9438 502.071 43.4167 506.725 35.228L506.887 34.943C510.749 28.1458 516.5 22.6144 523.443 19.019V19.019C531.186 15.0085 540.019 13.6095 548.623 15.0307L548.896 15.0757C556.445 16.3227 563.498 19.6443 569.268 24.6694L569.734 25.0756C577.087 31.479 582.071 40.1698 583.885 49.7495L592.715 96.3745C593.094 98.3763 590.883 99.8512 589.18 98.7319L580.087 92.7534C577.187 90.8464 573.284 91.7144 571.466 94.671L564.714 105.648C564.471 106.042 563.939 106.135 563.578 105.846L553.343 97.652C550.541 95.4083 546.42 96.0304 544.405 99.0016L536.883 110.091C536.626 110.47 536.097 110.542 535.748 110.245L526.48 102.356C523.635 99.9345 519.306 100.586 517.3 103.739L513.433 109.815Z" stroke="#FFE2EC" stroke-width="2.30751"/>
<path d="M132.487 872.662C131.41 873.721 129.596 872.885 129.701 871.378L132.045 837.869C132.511 831.192 135.234 824.873 139.765 819.947L139.922 819.776C143.683 815.687 148.549 812.776 153.931 811.397V811.397C159.933 809.858 166.273 810.301 172.003 812.66L172.184 812.735C177.212 814.805 181.564 818.232 184.756 822.634L185.014 822.99C189.081 828.598 191.143 835.412 190.868 842.335L189.528 876.029C189.471 877.475 187.704 878.143 186.704 877.096L181.364 871.503C179.661 869.719 176.82 869.696 175.088 871.453L168.658 877.974C168.428 878.208 168.044 878.186 167.84 877.929L162.064 870.62C160.482 868.618 157.53 868.39 155.66 870.125L148.679 876.601C148.441 876.823 148.063 876.788 147.869 876.527L142.712 869.583C141.13 867.451 138.028 867.211 136.135 869.072L132.487 872.662Z" stroke="#FFAECA" stroke-width="1.63969"/>
<path d="M338.836 934.875C337.695 936.668 334.942 936.096 334.61 933.998L327.215 887.307C325.741 878.004 327.473 868.477 332.127 860.288L332.289 860.003C336.152 853.206 341.903 847.675 348.845 844.079V844.079C356.589 840.069 365.422 838.67 374.026 840.091L374.298 840.136C381.847 841.383 388.901 844.705 394.67 849.73L395.137 850.136C402.489 856.539 407.474 865.23 409.288 874.81L418.117 921.435C418.497 923.437 416.285 924.912 414.583 923.792L405.49 917.814C402.589 915.907 398.687 916.775 396.868 919.731L390.116 930.708C389.874 931.102 389.341 931.195 388.98 930.906L378.746 922.712C375.943 920.469 371.823 921.091 369.807 924.062L362.286 935.152C362.029 935.531 361.499 935.603 361.151 935.306L351.882 927.417C349.037 924.995 344.708 925.647 342.702 928.799L338.836 934.875Z" stroke="#FFE2EC" stroke-width="2.30751"/>
<rect x="80" y="326" width="141" height="26" fill="#E4FFF8"/>
</g>
<defs>
<clipPath id="clip0_671_1806">
<rect width="1440" height="3449" fill="white" transform="translate(0 -2597)"/>
</clipPath>
</defs>
</svg>
