<svg width="1440" height="871" viewBox="0 0 1440 871" fill="none" xmlns="http://www.w3.org/2000/svg">
<g clip-path="url(#clip0_671_1806)">
<rect width="1440" height="6575" transform="translate(0 -3449)" fill="#FFE2EC"/>
<path d="M-123.618 -1401H1611.24L1890 1453H-460L-123.618 -1401Z" fill="#E4FFF8"/>
<path d="M892.918 860.456L893.118 851.814C895.846 851.86 898.735 852.136 901.783 852.643C904.792 853.169 907.635 854.228 910.31 855.819C912.946 857.428 915.097 859.94 916.761 863.353C918.071 866.037 918.636 868.657 918.458 871.212C918.262 873.729 917.789 876.167 917.041 878.526C916.274 880.846 915.699 883.073 915.315 885.207C914.913 887.302 915.151 889.25 916.03 891.053C916.909 892.855 918.298 894.243 920.197 895.216C922.095 896.188 924.195 897.087 926.496 897.911C928.778 898.697 930.962 899.768 933.047 901.124C935.152 902.519 936.868 904.578 938.196 907.3C939.505 909.985 940.062 912.585 939.865 915.102C939.687 917.657 939.215 920.095 938.448 922.416C937.699 924.775 937.124 927.001 936.722 929.097C936.338 931.23 936.586 933.198 937.465 935C938.681 937.493 940.668 939.182 943.426 940.068C946.145 940.973 949.251 941.499 952.741 941.648L952.714 950.206C949.89 950.159 946.964 949.902 943.934 949.433C940.905 948.964 938.063 947.906 935.407 946.257C932.771 944.648 930.62 942.136 928.956 938.723C927.553 935.847 926.931 933.112 927.09 930.519C927.268 927.963 927.741 925.525 928.508 923.205C929.275 920.885 929.878 918.715 930.318 916.697C930.758 914.678 930.547 912.787 929.687 911.023C928.826 909.259 927.466 907.929 925.604 907.033C923.762 906.175 921.7 905.353 919.418 904.568C917.154 903.82 914.961 902.73 912.838 901.297C910.715 899.864 908.943 897.69 907.521 894.776C906.118 891.9 905.506 889.184 905.684 886.629C905.843 884.035 906.306 881.578 907.073 879.258C907.84 876.937 908.444 874.768 908.883 872.749C909.323 870.731 909.113 868.84 908.252 867.076C907.093 864.698 905.115 863.028 902.319 862.066C899.524 861.103 896.39 860.566 892.918 860.456Z" fill="#FFE2EC" fill-opacity="0.58"/>
<path d="M20.9183 875.456L21.118 866.814C23.8463 866.86 26.7345 867.136 29.7826 867.643C32.7924 868.169 35.6347 869.228 38.3096 870.819C40.9462 872.428 43.0967 874.94 44.7614 878.353C46.0706 881.037 46.6363 883.657 46.4585 886.212C46.2619 888.729 45.7895 891.167 45.0411 893.526C44.274 895.846 43.6987 898.073 43.3151 900.207C42.9128 902.302 43.1511 904.25 44.0302 906.053C44.9093 907.855 46.2981 909.243 48.1968 910.216C50.0954 911.188 52.1951 912.087 54.4959 912.911C56.778 913.697 58.9618 914.768 61.0475 916.124C63.1518 917.519 64.868 919.578 66.196 922.3C67.5052 924.985 68.0616 927.585 67.865 930.102C67.6872 932.657 67.2147 935.095 66.4476 937.416C65.6992 939.775 65.1239 942.001 64.7216 944.097C64.338 946.23 64.5857 948.198 65.4648 950C66.6806 952.493 68.6675 954.182 71.4257 955.068C74.1455 955.973 77.2507 956.499 80.7412 956.648L80.7141 965.206C77.8904 965.159 74.9638 964.902 71.9344 964.433C68.905 963.964 66.0627 962.906 63.4074 961.257C60.7709 959.648 58.6203 957.136 56.9557 953.723C55.5529 950.847 54.9311 948.112 55.0902 945.519C55.2681 942.963 55.7405 940.525 56.5076 938.205C57.2747 935.885 57.8781 933.715 58.3178 931.697C58.7575 929.678 58.5472 927.787 57.6868 926.023C56.8265 924.259 55.4657 922.929 53.6045 922.033C51.762 921.175 49.6997 920.353 47.4176 919.568C45.1542 918.82 42.961 917.73 40.8379 916.297C38.7148 914.864 36.9426 912.69 35.5211 909.776C34.1183 906.9 33.5058 904.184 33.6837 901.629C33.8428 899.035 34.306 896.578 35.073 894.258C35.8401 891.937 36.4435 889.768 36.8832 887.749C37.3229 885.731 37.1126 883.84 36.2522 882.076C35.0926 879.698 33.115 878.028 30.3194 877.066C27.5239 876.103 24.3902 875.566 20.9183 875.456Z" fill="#FFE2EC" fill-opacity="0.58"/>
<path d="M-71.9302 103.324C-73.1633 105.055 -75.8823 104.34 -76.1044 102.227L-81.0458 55.2127C-82.0303 45.8458 -79.8018 36.4223 -74.7261 28.4884L-74.5494 28.2123C-70.3361 21.6266 -64.3036 16.4037 -57.1826 13.1765V13.1765C-49.2396 9.57681 -40.3455 8.64201 -31.8276 10.5116L-31.5582 10.5708C-24.0847 12.2111 -17.2147 15.8974 -11.7157 21.2176L-11.2713 21.6476C-4.26404 28.427 0.258625 37.3668 1.56896 47.0283L7.94644 94.0515C8.22025 96.0704 5.9344 97.4276 4.29297 96.2207L-4.47442 89.7745C-7.27101 87.7183 -11.2139 88.3809 -13.1847 91.2382L-20.5021 101.847C-20.7647 102.228 -21.3014 102.292 -21.6468 101.985L-31.4382 93.2667C-34.1196 90.8794 -38.2669 91.285 -40.4348 94.1466L-48.5267 104.828C-48.8032 105.193 -49.3356 105.237 -49.6683 104.922L-58.5112 96.5585C-61.2257 93.9913 -65.5829 94.4157 -67.7509 97.4585L-71.9302 103.324Z" stroke="#FFE2EC" stroke-width="2.30751"/>
<path d="M138.599 228.553C136.787 229.665 134.564 227.944 135.185 225.912L149.006 180.705C151.76 171.698 157.493 163.894 165.266 158.574L165.536 158.389C171.988 153.973 179.581 151.523 187.397 151.334V151.334C196.115 151.124 204.668 153.739 211.778 158.788L212.003 158.948C218.241 163.378 223.125 169.456 226.108 176.501L226.349 177.071C230.15 186.049 230.82 196.046 228.252 205.451L215.749 251.228C215.212 253.193 212.577 253.55 211.538 251.797L205.986 242.438C204.215 239.452 200.327 238.522 197.396 240.382L186.516 247.288C186.125 247.536 185.606 247.386 185.408 246.968L179.801 235.117C178.266 231.872 174.29 230.624 171.176 232.412L159.554 239.082C159.157 239.31 158.65 239.142 158.467 238.722L153.594 227.569C152.099 224.145 147.922 222.833 144.738 224.787L138.599 228.553Z" stroke="#FFE2EC" stroke-width="2.30751"/>
<path d="M349.713 284.296C349.26 285.737 347.266 285.85 346.651 284.471L332.988 253.783C330.266 247.669 329.703 240.811 331.391 234.335L331.45 234.11C332.851 228.734 335.781 223.88 339.885 220.135V220.135C344.462 215.958 350.268 213.373 356.435 212.766L356.63 212.747C362.041 212.215 367.493 213.197 372.378 215.585L372.772 215.778C378.997 218.821 384.016 223.87 387.023 230.111L401.659 260.49C402.287 261.794 401.04 263.213 399.666 262.758L392.325 260.327C389.984 259.551 387.465 260.865 386.76 263.229L384.145 272.005C384.051 272.32 383.702 272.481 383.401 272.349L374.87 268.608C372.533 267.583 369.82 268.768 368.983 271.178L365.86 280.173C365.753 280.48 365.403 280.627 365.109 280.487L357.296 276.777C354.898 275.638 352.047 276.882 351.25 279.414L349.713 284.296Z" stroke="#FFAECA" stroke-width="1.63969"/>
<path d="M492.373 143.746C490.988 144.349 489.594 142.918 490.232 141.55L504.428 111.105C507.257 105.04 512.063 100.115 518.058 97.1406L518.267 97.0371C523.243 94.5677 528.829 93.5943 534.348 94.2348V94.2348C540.503 94.9492 546.263 97.6349 550.767 101.891L550.909 102.026C554.861 105.76 557.696 110.52 559.098 115.773L559.212 116.197C560.999 122.891 560.482 129.991 557.744 136.356L544.419 167.331C543.847 168.661 541.958 168.651 541.4 167.315L538.419 160.18C537.468 157.904 534.824 156.865 532.577 157.884L524.238 161.668C523.939 161.803 523.588 161.646 523.49 161.333L520.717 152.439C519.958 150.004 517.283 148.733 514.915 149.683L506.077 153.227C505.775 153.348 505.435 153.18 505.348 152.866L503.022 144.536C502.308 141.979 499.499 140.643 497.065 141.703L492.373 143.746Z" stroke="#FFAECA" stroke-width="1.63969"/>
<path d="M132.487 20.6616C131.41 21.7206 129.596 20.8847 129.701 19.3783L132.045 -14.1314C132.511 -20.8078 135.234 -27.1273 139.765 -32.0531L139.922 -32.2245C143.683 -36.3133 148.549 -39.2238 153.931 -40.6035V-40.6035C159.933 -42.1424 166.273 -41.6992 172.003 -39.3398L172.184 -39.2651C177.212 -37.195 181.564 -33.7677 184.756 -29.3662L185.014 -29.0104C189.081 -23.4015 191.143 -16.5875 190.868 -9.66476L189.528 24.0287C189.471 25.4753 187.704 26.143 186.704 25.0959L181.364 19.503C179.661 17.719 176.82 17.6962 175.088 19.4526L168.658 25.9735C168.428 26.2075 168.044 26.1865 167.84 25.9287L162.064 18.6197C160.482 16.6182 157.53 16.3903 155.66 18.1254L148.679 24.6014C148.441 24.8227 148.063 24.7878 147.869 24.5266L142.712 17.5827C141.13 15.4512 138.028 15.2106 136.135 17.0724L132.487 20.6616Z" stroke="#FFAECA" stroke-width="1.63969"/>
<path d="M338.836 82.8754C337.695 84.6683 334.942 84.0965 334.61 81.9976L327.215 35.3067C325.741 26.0041 327.473 16.477 332.127 8.28834L332.289 8.00335C336.152 1.2061 341.903 -4.32526 348.845 -7.92074V-7.92074C356.589 -11.9312 365.422 -13.3302 374.026 -11.909L374.298 -11.864C381.847 -10.617 388.901 -7.29537 394.67 -2.27027L395.137 -1.86409C402.489 4.53932 407.474 13.2301 409.288 22.8098L418.117 69.4348C418.497 71.4366 416.285 72.9115 414.583 71.7922L405.49 65.8137C402.589 63.9067 398.687 64.7747 396.868 67.7313L390.116 78.7084C389.874 79.1023 389.341 79.1949 388.98 78.9058L378.746 70.7123C375.943 68.4686 371.823 69.0907 369.807 72.0619L362.286 83.1517C362.029 83.5308 361.499 83.6026 361.151 83.3057L351.882 75.4165C349.037 72.9948 344.708 73.6467 342.702 76.7988L338.836 82.8754Z" stroke="#FFE2EC" stroke-width="2.30751"/>
<path d="M-62.1644 469.875C-63.3052 471.668 -66.0579 471.096 -66.3903 468.998L-73.7854 422.307C-75.2588 413.004 -73.5266 403.477 -68.873 395.288L-68.7111 395.003C-64.8482 388.206 -59.0973 382.675 -52.1549 379.079V379.079C-44.4112 375.069 -35.5783 373.67 -26.9742 375.091L-26.702 375.136C-19.153 376.383 -12.0994 379.705 -6.32958 384.73L-5.86321 385.136C1.48922 391.539 6.47356 400.23 8.28774 409.81L17.1175 456.435C17.4966 458.437 15.2849 459.912 13.5826 458.792L4.48981 452.814C1.58944 450.907 -2.31333 451.775 -4.13196 454.731L-10.8841 465.708C-11.1264 466.102 -11.659 466.195 -12.02 465.906L-22.2543 457.712C-25.0569 455.469 -29.1773 456.091 -31.1925 459.062L-38.7143 470.152C-38.9713 470.531 -39.5006 470.603 -39.8494 470.306L-49.1179 462.417C-51.963 459.995 -56.292 460.647 -58.2978 463.799L-62.1644 469.875Z" stroke="#FFE2EC" stroke-width="2.30751"/>
<path d="M373.596 445.493C372.134 447.035 369.541 445.949 369.616 443.825L371.265 396.581C371.594 387.168 375.112 378.147 381.243 370.996L381.456 370.747C386.545 364.812 393.246 360.48 400.747 358.275V358.275C409.113 355.816 418.051 356.128 426.226 359.165L426.484 359.261C433.657 361.925 439.947 366.532 444.652 372.566L445.032 373.053C451.028 380.742 454.262 390.224 454.215 399.974L453.986 447.427C453.976 449.464 451.524 450.49 450.066 449.067L442.281 441.463C439.798 439.038 435.802 439.145 433.452 441.7L424.73 451.187C424.417 451.528 423.876 451.517 423.577 451.164L415.094 441.169C412.771 438.431 408.608 438.256 406.063 440.788L396.563 450.239C396.238 450.562 395.705 450.531 395.419 450.173L387.826 440.661C385.496 437.741 381.122 437.554 378.551 440.266L373.596 445.493Z" stroke="#FFE2EC" stroke-width="2.30751"/>
<path d="M805.07 168.324C803.837 170.055 801.118 169.34 800.896 167.227L795.954 120.213C794.97 110.846 797.198 101.422 802.274 93.4884L802.451 93.2123C806.664 86.6266 812.696 81.4037 819.817 78.1765V78.1765C827.76 74.5768 836.655 73.642 845.172 75.5116L845.442 75.5708C852.915 77.2111 859.785 80.8974 865.284 86.2176L865.729 86.6476C872.736 93.427 877.259 102.367 878.569 112.028L884.946 159.052C885.22 161.07 882.934 162.428 881.293 161.221L872.526 154.774C869.729 152.718 865.786 153.381 863.815 156.238L856.498 166.847C856.235 167.228 855.699 167.292 855.353 166.985L845.562 158.267C842.88 155.879 838.733 156.285 836.565 159.147L828.473 169.828C828.197 170.193 827.664 170.237 827.332 169.922L818.489 161.559C815.774 158.991 811.417 159.416 809.249 162.459L805.07 168.324Z" stroke="#FFE2EC" stroke-width="2.30751"/>
<path d="M1015.6 293.553C1013.79 294.665 1011.56 292.944 1012.19 290.912L1026.01 245.705C1028.76 236.698 1034.49 228.894 1042.27 223.574L1042.54 223.389C1048.99 218.973 1056.58 216.523 1064.4 216.334V216.334C1073.12 216.124 1081.67 218.739 1088.78 223.788L1089 223.948C1095.24 228.378 1100.12 234.456 1103.11 241.501L1103.35 242.071C1107.15 251.049 1107.82 261.046 1105.25 270.451L1092.75 316.228C1092.21 318.193 1089.58 318.55 1088.54 316.797L1082.99 307.438C1081.22 304.452 1077.33 303.522 1074.4 305.382L1063.52 312.288C1063.13 312.536 1062.61 312.386 1062.41 311.968L1056.8 300.117C1055.27 296.872 1051.29 295.624 1048.18 297.412L1036.55 304.082C1036.16 304.31 1035.65 304.142 1035.47 303.722L1030.59 292.569C1029.1 289.145 1024.92 287.833 1021.74 289.787L1015.6 293.553Z" stroke="#FFE2EC" stroke-width="2.30751"/>
<path d="M1226.71 349.296C1226.26 350.737 1224.27 350.85 1223.65 349.471L1209.99 318.783C1207.27 312.669 1206.7 305.811 1208.39 299.335L1208.45 299.11C1209.85 293.734 1212.78 288.88 1216.88 285.135V285.135C1221.46 280.958 1227.27 278.373 1233.43 277.766L1233.63 277.747C1239.04 277.215 1244.49 278.197 1249.38 280.585L1249.77 280.778C1256 283.821 1261.02 288.87 1264.02 295.111L1278.66 325.49C1279.29 326.794 1278.04 328.213 1276.67 327.758L1269.33 325.327C1266.98 324.551 1264.46 325.865 1263.76 328.229L1261.14 337.005C1261.05 337.32 1260.7 337.481 1260.4 337.349L1251.87 333.608C1249.53 332.583 1246.82 333.768 1245.98 336.178L1242.86 345.173C1242.75 345.48 1242.4 345.627 1242.11 345.487L1234.3 341.777C1231.9 340.638 1229.05 341.882 1228.25 344.414L1226.71 349.296Z" stroke="#FFAECA" stroke-width="1.63969"/>
<path d="M1056.21 468.399C1054.74 468.752 1053.62 467.101 1054.48 465.864L1073.75 438.348C1077.59 432.865 1083.18 428.851 1089.6 426.962L1089.82 426.896C1095.15 425.329 1100.82 425.34 1106.15 426.929V426.929C1112.08 428.702 1117.29 432.346 1120.99 437.32L1121.1 437.477C1124.35 441.841 1126.31 447.021 1126.78 452.437L1126.82 452.875C1127.42 459.778 1125.67 466.68 1121.87 472.473L1103.37 500.664C1102.58 501.874 1100.72 501.536 1100.4 500.124L1098.7 492.58C1098.16 490.173 1095.74 488.69 1093.35 489.304L1084.48 491.582C1084.16 491.664 1083.84 491.448 1083.8 491.122L1082.61 481.882C1082.29 479.352 1079.88 477.636 1077.38 478.16L1068.06 480.116C1067.74 480.183 1067.44 479.958 1067.4 479.634L1066.56 471.026C1066.3 468.384 1063.77 466.581 1061.19 467.202L1056.21 468.399Z" stroke="#FFAECA" stroke-width="1.63969"/>
<path d="M1369.37 208.746C1367.99 209.349 1366.59 207.918 1367.23 206.55L1381.43 176.105C1384.26 170.04 1389.06 165.115 1395.06 162.141L1395.27 162.037C1400.24 159.568 1405.83 158.594 1411.35 159.235V159.235C1417.5 159.949 1423.26 162.635 1427.77 166.891L1427.91 167.026C1431.86 170.76 1434.7 175.52 1436.1 180.773L1436.21 181.197C1438 187.891 1437.48 194.991 1434.74 201.356L1421.42 232.331C1420.85 233.661 1418.96 233.651 1418.4 232.315L1415.42 225.18C1414.47 222.904 1411.82 221.865 1409.58 222.884L1401.24 226.668C1400.94 226.803 1400.59 226.646 1400.49 226.333L1397.72 217.439C1396.96 215.004 1394.28 213.733 1391.92 214.683L1383.08 218.227C1382.78 218.348 1382.44 218.18 1382.35 217.866L1380.02 209.536C1379.31 206.979 1376.5 205.643 1374.07 206.703L1369.37 208.746Z" stroke="#FFAECA" stroke-width="1.63969"/>
<path d="M773.652 319.234C772.379 320.046 770.778 318.851 771.194 317.4L780.453 285.11C782.298 278.676 786.274 273.061 791.731 269.185L791.92 269.05C796.449 265.832 801.814 263.997 807.365 263.766V263.766C813.556 263.509 819.665 265.261 824.779 268.76L824.941 268.871C829.428 271.941 832.973 276.198 835.18 281.167L835.359 281.569C838.171 287.901 838.771 294.994 837.062 301.709L828.747 334.387C828.39 335.79 826.522 336.076 825.762 334.844L821.702 328.263C820.407 326.164 817.633 325.551 815.573 326.909L807.928 331.95C807.654 332.131 807.283 332.031 807.138 331.737L803.007 323.386C801.876 321.1 799.036 320.263 796.846 321.571L788.671 326.454C788.392 326.621 788.029 326.509 787.894 326.213L784.294 318.349C783.189 315.935 780.205 315.054 777.967 316.482L773.652 319.234Z" stroke="#FFAECA" stroke-width="1.63969"/>
<path d="M1009.49 85.6616C1008.41 86.7206 1006.6 85.8847 1006.7 84.3783L1009.04 50.8686C1009.51 44.1922 1012.23 37.8727 1016.76 32.9469L1016.92 32.7755C1020.68 28.6867 1025.55 25.7762 1030.93 24.3965V24.3965C1036.93 22.8576 1043.27 23.3008 1049 25.6602L1049.18 25.7349C1054.21 27.805 1058.56 31.2323 1061.76 35.6338L1062.01 35.9896C1066.08 41.5985 1068.14 48.4125 1067.87 55.3352L1066.53 89.0287C1066.47 90.4753 1064.7 91.143 1063.7 90.0959L1058.36 84.503C1056.66 82.719 1053.82 82.6962 1052.09 84.4526L1045.66 90.9735C1045.43 91.2075 1045.04 91.1865 1044.84 90.9287L1039.06 83.6197C1037.48 81.6182 1034.53 81.3903 1032.66 83.1254L1025.68 89.6014C1025.44 89.8227 1025.06 89.7878 1024.87 89.5266L1019.71 82.5827C1018.13 80.4512 1015.03 80.2106 1013.14 82.0724L1009.49 85.6616Z" stroke="#FFAECA" stroke-width="1.63969"/>
<path d="M1215.84 147.875C1214.69 149.668 1211.94 149.096 1211.61 146.998L1204.21 100.307C1202.74 91.0041 1204.47 81.477 1209.13 73.2883L1209.29 73.0033C1213.15 66.2061 1218.9 60.6747 1225.85 57.0793V57.0793C1233.59 53.0688 1242.42 51.6698 1251.03 53.091L1251.3 53.136C1258.85 54.383 1265.9 57.7046 1271.67 62.7297L1272.14 63.1359C1279.49 69.5393 1284.47 78.2301 1286.29 87.8098L1295.12 134.435C1295.5 136.437 1293.28 137.912 1291.58 136.792L1282.49 130.814C1279.59 128.907 1275.69 129.775 1273.87 132.731L1267.12 143.708C1266.87 144.102 1266.34 144.195 1265.98 143.906L1255.75 135.712C1252.94 133.469 1248.82 134.091 1246.81 137.062L1239.29 148.152C1239.03 148.531 1238.5 148.603 1238.15 148.306L1228.88 140.417C1226.04 137.995 1221.71 138.647 1219.7 141.799L1215.84 147.875Z" stroke="#FFE2EC" stroke-width="2.30751"/>
<path d="M814.836 534.875C813.695 536.668 810.942 536.096 810.61 533.998L803.215 487.307C801.741 478.004 803.473 468.477 808.127 460.288L808.289 460.003C812.152 453.206 817.903 447.675 824.845 444.079V444.079C832.589 440.069 841.422 438.67 850.026 440.091L850.298 440.136C857.847 441.383 864.901 444.705 870.67 449.73L871.137 450.136C878.489 456.539 883.474 465.23 885.288 474.81L894.117 521.435C894.497 523.437 892.285 524.912 890.583 523.792L881.49 517.814C878.589 515.907 874.687 516.775 872.868 519.731L866.116 530.708C865.874 531.102 865.341 531.195 864.98 530.906L854.746 522.712C851.943 520.469 847.823 521.091 845.807 524.062L838.286 535.152C838.029 535.531 837.499 535.603 837.151 535.306L827.882 527.417C825.037 524.995 820.708 525.647 818.702 528.799L814.836 534.875Z" stroke="#FFE2EC" stroke-width="2.30751"/>
<path d="M1250.6 510.493C1249.13 512.035 1246.54 510.949 1246.62 508.825L1248.27 461.581C1248.59 452.168 1252.11 443.147 1258.24 435.996L1258.46 435.747C1263.55 429.812 1270.25 425.48 1277.75 423.275V423.275C1286.11 420.816 1295.05 421.128 1303.23 424.165L1303.48 424.261C1310.66 426.925 1316.95 431.532 1321.65 437.566L1322.03 438.053C1328.03 445.742 1331.26 455.224 1331.22 464.974L1330.99 512.427C1330.98 514.464 1328.52 515.49 1327.07 514.067L1319.28 506.463C1316.8 504.038 1312.8 504.145 1310.45 506.7L1301.73 516.187C1301.42 516.528 1300.88 516.517 1300.58 516.164L1292.09 506.169C1289.77 503.431 1285.61 503.256 1283.06 505.788L1273.56 515.239C1273.24 515.562 1272.7 515.531 1272.42 515.173L1264.83 505.661C1262.5 502.741 1258.12 502.554 1255.55 505.266L1250.6 510.493Z" stroke="#FFE2EC" stroke-width="2.30751"/>
<path d="M74.0698 615.324C72.8367 617.055 70.1177 616.34 69.8956 614.227L64.9542 567.213C63.9697 557.846 66.1982 548.422 71.2739 540.488L71.4506 540.212C75.6639 533.627 81.6964 528.404 88.8174 525.177V525.177C96.7604 521.577 105.655 520.642 114.172 522.512L114.442 522.571C121.915 524.211 128.785 527.897 134.284 533.218L134.729 533.648C141.736 540.427 146.259 549.367 147.569 559.028L153.946 606.052C154.22 608.07 151.934 609.428 150.293 608.221L141.526 601.774C138.729 599.718 134.786 600.381 132.815 603.238L125.498 613.847C125.235 614.228 124.699 614.292 124.353 613.985L114.562 605.267C111.88 602.879 107.733 603.285 105.565 606.147L97.4733 616.828C97.1968 617.193 96.6644 617.237 96.3317 616.922L87.4888 608.559C84.7743 605.991 80.4171 606.416 78.2491 609.459L74.0698 615.324Z" stroke="#FFE2EC" stroke-width="2.30751"/>
<path d="M287.196 774.493C285.385 775.604 283.161 773.884 283.783 771.851L297.604 726.644C300.358 717.637 306.091 709.834 313.863 704.514L314.134 704.328C320.585 699.913 328.179 697.462 335.995 697.274V697.274C344.713 697.064 353.265 699.678 360.376 704.728L360.601 704.887C366.839 709.317 371.723 715.395 374.706 722.441L374.947 723.01C378.748 731.989 379.418 741.985 376.849 751.391L364.346 797.167C363.809 799.133 361.175 799.489 360.136 797.737L354.584 788.377C352.813 785.392 348.925 784.461 345.994 786.321L335.113 793.227C334.723 793.475 334.204 793.325 334.006 792.907L328.399 781.056C326.864 777.811 322.888 776.564 319.774 778.351L308.152 785.021C307.755 785.249 307.248 785.082 307.064 784.662L302.192 773.508C300.697 770.084 296.52 768.773 293.335 770.726L287.196 774.493Z" stroke="#FFE2EC" stroke-width="2.30751"/>
<path d="M498.311 830.236C497.858 831.676 495.863 831.79 495.249 830.411L481.586 799.723C478.864 793.609 478.301 786.751 479.989 780.275L480.047 780.05C481.449 774.674 484.379 769.82 488.483 766.075V766.075C493.06 761.898 498.866 759.313 505.033 758.706L505.228 758.687C510.638 758.155 516.091 759.137 520.975 761.525L521.37 761.718C527.594 764.761 532.614 769.81 535.621 776.051L550.256 806.43C550.885 807.734 549.638 809.153 548.264 808.698L540.923 806.267C538.581 805.491 536.062 806.805 535.358 809.169L532.742 817.945C532.648 818.26 532.3 818.421 531.999 818.289L523.467 814.548C521.131 813.523 518.417 814.708 517.581 817.118L514.457 826.113C514.351 826.42 514.001 826.567 513.707 826.427L505.894 822.717C503.496 821.578 500.644 822.822 499.847 825.354L498.311 830.236Z" stroke="#FFAECA" stroke-width="1.63969"/>
<path d="M640.97 689.685C639.586 690.288 638.191 688.858 638.83 687.489L653.026 657.045C655.854 650.979 660.661 646.055 666.656 643.08L666.865 642.977C671.841 640.507 677.427 639.534 682.945 640.174V640.174C689.101 640.889 694.86 643.574 699.364 647.83L699.507 647.965C703.458 651.699 706.294 656.459 707.696 661.712L707.809 662.137C709.596 668.83 709.079 675.931 706.341 682.295L693.016 713.271C692.444 714.6 690.555 714.591 689.997 713.255L687.016 706.12C686.065 703.844 683.421 702.804 681.175 703.823L672.836 707.607C672.536 707.743 672.186 707.586 672.088 707.272L669.315 698.379C668.555 695.943 665.881 694.672 663.513 695.622L654.675 699.166C654.373 699.287 654.033 699.119 653.945 698.806L651.62 690.475C650.906 687.918 648.097 686.582 645.663 687.642L640.97 689.685Z" stroke="#FFAECA" stroke-width="1.63969"/>
<path d="M42.6519 766.234C41.3788 767.046 39.7778 765.851 40.194 764.4L49.4531 732.11C51.2979 725.676 55.2745 720.061 60.7306 716.185L60.9205 716.05C65.4494 712.832 70.8142 710.997 76.3649 710.766V710.766C82.5564 710.509 88.665 712.261 93.7793 715.76L93.9411 715.871C98.4283 718.941 101.973 723.198 104.18 728.167L104.359 728.569C107.171 734.901 107.771 741.994 106.062 748.709L97.7468 781.387C97.3897 782.79 95.5225 783.076 94.7623 781.844L90.7018 775.263C89.4066 773.164 86.6325 772.551 84.5734 773.909L76.9285 778.95C76.6541 779.131 76.2833 779.031 76.1376 778.737L72.0072 770.386C70.8761 768.1 68.0357 767.263 65.8456 768.571L57.6711 773.454C57.3917 773.621 57.0293 773.509 56.8939 773.213L53.294 765.349C52.189 762.935 49.2052 762.054 46.9669 763.482L42.6519 766.234Z" stroke="#FFAECA" stroke-width="1.63969"/>
<path d="M278.487 532.662C277.41 533.721 275.596 532.885 275.701 531.378L278.045 497.869C278.511 491.192 281.234 484.873 285.765 479.947L285.922 479.776C289.683 475.687 294.549 472.776 299.931 471.397V471.397C305.933 469.858 312.273 470.301 318.003 472.66L318.184 472.735C323.212 474.805 327.564 478.232 330.756 482.634L331.014 482.99C335.081 488.598 337.143 495.412 336.868 502.335L335.528 536.029C335.471 537.475 333.704 538.143 332.704 537.096L327.364 531.503C325.661 529.719 322.82 529.696 321.088 531.453L314.658 537.974C314.428 538.208 314.044 538.186 313.84 537.929L308.064 530.62C306.482 528.618 303.53 528.39 301.66 530.125L294.679 536.601C294.441 536.823 294.063 536.788 293.869 536.527L288.712 529.583C287.13 527.451 284.028 527.211 282.135 529.072L278.487 532.662Z" stroke="#FFAECA" stroke-width="1.63969"/>
<path d="M487.433 628.815C486.292 630.608 483.54 630.036 483.207 627.937L475.812 581.246C474.339 571.944 476.071 562.416 480.725 554.228L480.887 553.943C484.749 547.146 490.5 541.614 497.443 538.019V538.019C505.186 534.008 514.019 532.609 522.623 534.03L522.896 534.075C530.445 535.322 537.498 538.644 543.268 543.669L543.734 544.075C551.087 550.479 556.071 559.17 557.885 568.749L566.715 615.374C567.094 617.376 564.883 618.851 563.18 617.732L554.087 611.753C551.187 609.846 547.284 610.714 545.466 613.671L538.714 624.648C538.471 625.042 537.939 625.134 537.578 624.845L527.343 616.652C524.541 614.408 520.42 615.03 518.405 618.001L510.883 629.091C510.626 629.47 510.097 629.542 509.748 629.245L500.48 621.356C497.635 618.934 493.306 619.586 491.3 622.738L487.433 628.815Z" stroke="#FFE2EC" stroke-width="2.30751"/>
</g>
<defs>
<clipPath id="clip0_671_1806">
<rect width="1440" height="6575" fill="white" transform="translate(0 -3449)"/>
</clipPath>
</defs>
</svg>
