<svg width="1440" height="1721" viewBox="0 0 1440 1721" fill="none" xmlns="http://www.w3.org/2000/svg">
<g clip-path="url(#clip0_671_1806)">
<rect width="1440" height="6575" transform="translate(0 -4320)" fill="#FFE2EC"/>
<path d="M-123.618 -2272H1611.24L1890 582H-460L-123.618 -2272Z" fill="#E4FFF8"/>
<rect x="-122" y="667" width="1671" height="907" fill="#E4FFF8"/>
<rect x="-4" y="545" width="1444" height="148" fill="#E4FFF8"/>
<path d="M760.787 324.407L769.379 325.359C769.096 328.073 768.568 330.926 767.798 333.918C767.011 336.871 765.709 339.61 763.891 342.136C762.058 344.622 759.368 346.546 755.823 347.907C753.035 348.977 750.376 349.312 747.846 348.912C745.356 348.497 742.968 347.814 740.684 346.863C738.439 345.896 736.27 345.129 734.179 344.561C732.127 343.978 730.165 344.045 728.292 344.764C726.42 345.483 724.917 346.745 723.782 348.552C722.648 350.359 721.57 352.372 720.548 354.592C719.566 356.797 718.309 358.879 716.776 360.839C715.203 362.814 713.003 364.344 710.175 365.429C707.387 366.5 704.747 366.827 702.257 366.412C699.727 366.012 697.34 365.329 695.095 364.363C692.81 363.412 690.642 362.644 688.59 362.061C686.498 361.493 684.516 361.568 682.644 362.287C680.055 363.281 678.199 365.113 677.076 367.783C675.938 370.414 675.142 373.461 674.69 376.926L666.167 376.153C666.46 373.344 666.971 370.451 667.703 367.474C668.434 364.497 669.736 361.758 671.609 359.256C673.442 356.77 676.132 354.846 679.677 353.486C682.664 352.339 685.443 351.958 688.013 352.342C690.543 352.742 692.93 353.425 695.175 354.392C697.42 355.358 699.528 356.148 701.501 356.762C703.473 357.376 705.375 357.332 707.208 356.628C709.04 355.925 710.484 354.685 711.539 352.909C712.554 351.148 713.552 349.166 714.534 346.961C715.476 344.771 716.753 342.681 718.365 340.691C719.978 338.701 722.298 337.125 725.325 335.963C728.313 334.816 731.071 334.443 733.601 334.842C736.171 335.227 738.579 335.903 740.823 336.869C743.068 337.835 745.177 338.626 747.149 339.239C749.121 339.853 751.024 339.809 752.856 339.105C755.326 338.157 757.162 336.333 758.364 333.632C759.567 330.931 760.375 327.856 760.787 324.407Z" fill="#FFE2EC" fill-opacity="0.58"/>
<path d="M1428.79 660.407L1437.38 661.359C1437.1 664.073 1436.57 666.926 1435.8 669.918C1435.01 672.871 1433.71 675.61 1431.89 678.136C1430.06 680.622 1427.37 682.546 1423.82 683.907C1421.03 684.977 1418.38 685.312 1415.85 684.912C1413.36 684.497 1410.97 683.814 1408.68 682.863C1406.44 681.896 1404.27 681.129 1402.18 680.561C1400.13 679.978 1398.16 680.045 1396.29 680.764C1394.42 681.483 1392.92 682.745 1391.78 684.552C1390.65 686.359 1389.57 688.372 1388.55 690.592C1387.57 692.797 1386.31 694.879 1384.78 696.839C1383.2 698.814 1381 700.344 1378.17 701.429C1375.39 702.5 1372.75 702.827 1370.26 702.412C1367.73 702.012 1365.34 701.329 1363.09 700.363C1360.81 699.412 1358.64 698.644 1356.59 698.061C1354.5 697.493 1352.52 697.568 1350.64 698.287C1348.05 699.281 1346.2 701.113 1345.08 703.783C1343.94 706.414 1343.14 709.461 1342.69 712.926L1334.17 712.153C1334.46 709.344 1334.97 706.451 1335.7 703.474C1336.43 700.497 1337.74 697.758 1339.61 695.256C1341.44 692.77 1344.13 690.846 1347.68 689.486C1350.66 688.339 1353.44 687.958 1356.01 688.342C1358.54 688.742 1360.93 689.425 1363.17 690.392C1365.42 691.358 1367.53 692.148 1369.5 692.762C1371.47 693.376 1373.38 693.332 1375.21 692.628C1377.04 691.925 1378.48 690.685 1379.54 688.909C1380.55 687.148 1381.55 685.166 1382.53 682.961C1383.48 680.771 1384.75 678.681 1386.37 676.691C1387.98 674.701 1390.3 673.125 1393.33 671.963C1396.31 670.816 1399.07 670.443 1401.6 670.842C1404.17 671.227 1406.58 671.903 1408.82 672.869C1411.07 673.835 1413.18 674.626 1415.15 675.239C1417.12 675.853 1419.02 675.809 1420.86 675.105C1423.33 674.157 1425.16 672.333 1426.36 669.632C1427.57 666.931 1428.37 663.856 1428.79 660.407Z" fill="#FFE2EC" fill-opacity="0.58"/>
<path d="M892.918 -10.5442L893.118 -19.1864C895.846 -19.1404 898.735 -18.8639 901.783 -18.3568C904.792 -17.8309 907.635 -16.7725 910.31 -15.1814C912.946 -13.5716 915.097 -11.0601 916.761 -7.64712C918.071 -4.96272 918.636 -2.34291 918.458 0.212335C918.262 2.72923 917.789 5.16707 917.041 7.52586C916.274 9.8463 915.699 12.0732 915.315 14.2066C914.913 16.3017 915.151 18.2504 916.03 20.0528C916.909 21.8552 918.298 23.2428 920.197 24.2156C922.095 25.1884 924.195 26.0869 926.496 26.911C928.778 27.6968 930.962 28.7679 933.047 30.1242C935.152 31.5189 936.868 33.5776 938.196 36.3003C939.505 38.9847 940.062 41.5854 939.865 44.1022C939.687 46.6575 939.215 49.0953 938.448 51.4158C937.699 53.7746 937.124 56.0015 936.722 58.0965C936.338 60.2299 936.586 62.1978 937.465 64.0002C938.681 66.4929 940.668 68.1821 943.426 69.068C946.145 69.9726 949.251 70.4994 952.741 70.6483L952.714 79.2063C949.89 79.1594 946.964 78.9016 943.934 78.4328C940.905 77.964 938.063 76.9056 935.407 75.2574C932.771 73.6476 930.62 71.1362 928.956 67.7232C927.553 64.847 926.931 62.1122 927.09 59.5186C927.268 56.9633 927.741 54.5255 928.508 52.2051C929.275 49.8846 929.878 47.7152 930.318 45.6968C930.758 43.6785 930.547 41.7873 929.687 40.0233C928.826 38.2592 927.466 36.9291 925.604 36.033C923.762 35.1752 921.7 34.3534 919.418 33.5677C917.154 32.8202 914.961 31.73 912.838 30.297C910.715 28.864 908.943 26.6902 907.521 23.7757C906.118 20.8996 905.506 18.1839 905.684 15.6287C905.843 13.0351 906.306 10.5781 907.073 8.25762C907.84 5.93718 908.444 3.76777 908.883 1.74941C909.323 -0.268945 909.113 -2.16014 908.252 -3.92417C907.093 -6.30179 905.115 -7.97188 902.319 -8.93447C899.524 -9.89707 896.39 -10.4336 892.918 -10.5442Z" fill="#FFE2EC" fill-opacity="0.58"/>
<path d="M724.918 532.456L725.118 523.814C727.846 523.86 730.735 524.136 733.783 524.643C736.792 525.169 739.635 526.228 742.31 527.819C744.946 529.428 747.097 531.94 748.761 535.353C750.071 538.037 750.636 540.657 750.458 543.212C750.262 545.729 749.789 548.167 749.041 550.526C748.274 552.846 747.699 555.073 747.315 557.207C746.913 559.302 747.151 561.25 748.03 563.053C748.909 564.855 750.298 566.243 752.197 567.216C754.095 568.188 756.195 569.087 758.496 569.911C760.778 570.697 762.962 571.768 765.047 573.124C767.152 574.519 768.868 576.578 770.196 579.3C771.505 581.985 772.062 584.585 771.865 587.102C771.687 589.657 771.215 592.095 770.448 594.416C769.699 596.775 769.124 599.001 768.722 601.097C768.338 603.23 768.586 605.198 769.465 607C770.681 609.493 772.668 611.182 775.426 612.068C778.145 612.973 781.251 613.499 784.741 613.648L784.714 622.206C781.89 622.159 778.964 621.902 775.934 621.433C772.905 620.964 770.063 619.906 767.407 618.257C764.771 616.648 762.62 614.136 760.956 610.723C759.553 607.847 758.931 605.112 759.09 602.519C759.268 599.963 759.741 597.525 760.508 595.205C761.275 592.885 761.878 590.715 762.318 588.697C762.758 586.678 762.547 584.787 761.687 583.023C760.826 581.259 759.466 579.929 757.604 579.033C755.762 578.175 753.7 577.353 751.418 576.568C749.154 575.82 746.961 574.73 744.838 573.297C742.715 571.864 740.943 569.69 739.521 566.776C738.118 563.9 737.506 561.184 737.684 558.629C737.843 556.035 738.306 553.578 739.073 551.258C739.84 548.937 740.444 546.768 740.883 544.749C741.323 542.731 741.113 540.84 740.252 539.076C739.093 536.698 737.115 535.028 734.319 534.066C731.524 533.103 728.39 532.566 724.918 532.456Z" fill="#FFE2EC"/>
<path d="M31.9183 613.456L32.118 604.814C34.8463 604.86 37.7345 605.136 40.7826 605.643C43.7924 606.169 46.6347 607.228 49.3096 608.819C51.9462 610.428 54.0967 612.94 55.7614 616.353C57.0706 619.037 57.6363 621.657 57.4585 624.212C57.2619 626.729 56.7895 629.167 56.0411 631.526C55.274 633.846 54.6987 636.073 54.3151 638.207C53.9128 640.302 54.1511 642.25 55.0302 644.053C55.9093 645.855 57.2981 647.243 59.1968 648.216C61.0954 649.188 63.1951 650.087 65.4959 650.911C67.778 651.697 69.9618 652.768 72.0475 654.124C74.1518 655.519 75.868 657.578 77.196 660.3C78.5052 662.985 79.0616 665.585 78.865 668.102C78.6872 670.657 78.2147 673.095 77.4476 675.416C76.6992 677.775 76.1239 680.001 75.7216 682.097C75.338 684.23 75.5857 686.198 76.4648 688C77.6806 690.493 79.6675 692.182 82.4257 693.068C85.1455 693.973 88.2507 694.499 91.7412 694.648L91.7141 703.206C88.8904 703.159 85.9638 702.902 82.9344 702.433C79.905 701.964 77.0627 700.906 74.4074 699.257C71.7709 697.648 69.6203 695.136 67.9557 691.723C66.5529 688.847 65.9311 686.112 66.0902 683.519C66.2681 680.963 66.7405 678.525 67.5076 676.205C68.2747 673.885 68.8781 671.715 69.3178 669.697C69.7575 667.678 69.5472 665.787 68.6868 664.023C67.8265 662.259 66.4657 660.929 64.6045 660.033C62.762 659.175 60.6997 658.353 58.4176 657.568C56.1542 656.82 53.961 655.73 51.8379 654.297C49.7148 652.864 47.9426 650.69 46.5211 647.776C45.1183 644.9 44.5058 642.184 44.6837 639.629C44.8428 637.035 45.306 634.578 46.073 632.258C46.8401 629.937 47.4435 627.768 47.8832 625.749C48.3229 623.731 48.1126 621.84 47.2522 620.076C46.0926 617.698 44.115 616.028 41.3194 615.066C38.5239 614.103 35.3902 613.566 31.9183 613.456Z" fill="#FFE2EC" fill-opacity="0.58"/>
<path d="M914.918 195.456L915.118 186.814C917.846 186.86 920.735 187.136 923.783 187.643C926.792 188.169 929.635 189.228 932.31 190.819C934.946 192.428 937.097 194.94 938.761 198.353C940.071 201.037 940.636 203.657 940.458 206.212C940.262 208.729 939.789 211.167 939.041 213.526C938.274 215.846 937.699 218.073 937.315 220.207C936.913 222.302 937.151 224.25 938.03 226.053C938.909 227.855 940.298 229.243 942.197 230.216C944.095 231.188 946.195 232.087 948.496 232.911C950.778 233.697 952.962 234.768 955.047 236.124C957.152 237.519 958.868 239.578 960.196 242.3C961.505 244.985 962.062 247.585 961.865 250.102C961.687 252.657 961.215 255.095 960.448 257.416C959.699 259.775 959.124 262.001 958.722 264.097C958.338 266.23 958.586 268.198 959.465 270C960.681 272.493 962.668 274.182 965.426 275.068C968.145 275.973 971.251 276.499 974.741 276.648L974.714 285.206C971.89 285.159 968.964 284.902 965.934 284.433C962.905 283.964 960.063 282.906 957.407 281.257C954.771 279.648 952.62 277.136 950.956 273.723C949.553 270.847 948.931 268.112 949.09 265.519C949.268 262.963 949.741 260.525 950.508 258.205C951.275 255.885 951.878 253.715 952.318 251.697C952.758 249.678 952.547 247.787 951.687 246.023C950.826 244.259 949.466 242.929 947.604 242.033C945.762 241.175 943.7 240.353 941.418 239.568C939.154 238.82 936.961 237.73 934.838 236.297C932.715 234.864 930.943 232.69 929.521 229.776C928.118 226.9 927.506 224.184 927.684 221.629C927.843 219.035 928.306 216.578 929.073 214.258C929.84 211.937 930.444 209.768 930.883 207.749C931.323 205.731 931.113 203.84 930.252 202.076C929.093 199.698 927.115 198.028 924.319 197.066C921.524 196.103 918.39 195.566 914.918 195.456Z" fill="#FFE2EC" fill-opacity="0.58"/>
<path d="M20.9183 4.45579L21.118 -4.18641C23.8463 -4.14042 26.7345 -3.86387 29.7826 -3.35676C32.7924 -2.83094 35.6347 -1.77248 38.3096 -0.181368C40.9462 1.42844 43.0967 3.93986 44.7614 7.35288C46.0706 10.0373 46.6363 12.6571 46.4585 15.2123C46.2619 17.7292 45.7895 20.1671 45.0411 22.5259C44.274 24.8463 43.6987 27.0732 43.3151 29.2066C42.9128 31.3017 43.1511 33.2504 44.0302 35.0528C44.9093 36.8552 46.2981 38.2428 48.1968 39.2156C50.0954 40.1884 52.1951 41.0869 54.4959 41.911C56.778 42.6968 58.9618 43.7679 61.0475 45.1242C63.1518 46.5189 64.868 48.5776 66.196 51.3003C67.5052 53.9847 68.0616 56.5854 67.865 59.1022C67.6872 61.6575 67.2147 64.0953 66.4476 66.4158C65.6992 68.7746 65.1239 71.0015 64.7216 73.0965C64.338 75.2299 64.5857 77.1978 65.4648 79.0002C66.6806 81.4929 68.6675 83.1821 71.4257 84.068C74.1455 84.9726 77.2507 85.4994 80.7412 85.6483L80.7141 94.2063C77.8904 94.1594 74.9638 93.9016 71.9344 93.4328C68.905 92.964 66.0627 91.9056 63.4074 90.2574C60.7709 88.6476 58.6203 86.1362 56.9557 82.7232C55.5529 79.847 54.9311 77.1122 55.0902 74.5186C55.2681 71.9633 55.7405 69.5255 56.5076 67.2051C57.2747 64.8846 57.8781 62.7152 58.3178 60.6968C58.7575 58.6785 58.5472 56.7873 57.6868 55.0233C56.8265 53.2592 55.4657 51.9291 53.6045 51.033C51.762 50.1752 49.6997 49.3534 47.4176 48.5677C45.1542 47.8202 42.961 46.73 40.8379 45.297C38.7148 43.864 36.9426 41.6902 35.5211 38.7757C34.1183 35.8996 33.5058 33.1839 33.6837 30.6287C33.8428 28.0351 34.306 25.5781 35.073 23.2576C35.8401 20.9372 36.4435 18.7678 36.8832 16.7494C37.3229 14.7311 37.1126 12.8399 36.2522 11.0758C35.0926 8.69821 33.115 7.02812 30.3194 6.06553C27.5239 5.10293 24.3902 4.56635 20.9183 4.45579Z" fill="#FFE2EC" fill-opacity="0.58"/>
<path d="M592.32 619.083L596.335 626.739C593.926 628.021 591.266 629.18 588.354 630.214C585.467 631.213 582.468 631.665 579.357 631.571C576.27 631.441 573.172 630.287 570.061 628.109C567.615 626.396 565.85 624.379 564.767 622.058C563.718 619.761 562.95 617.4 562.461 614.974C562.007 612.573 561.43 610.346 560.731 608.294C560.068 606.267 558.914 604.678 557.272 603.528C555.629 602.377 553.742 601.837 551.609 601.907C549.477 601.976 547.205 602.208 544.793 602.603C542.416 603.022 539.987 603.144 537.505 602.969C534.989 602.769 532.49 601.801 530.008 600.063C527.562 598.35 525.814 596.345 524.766 594.049C523.683 591.728 522.914 589.366 522.46 586.965C521.971 584.539 521.394 582.313 520.731 580.285C520.032 578.233 518.861 576.632 517.218 575.482C514.947 573.891 512.39 573.377 509.548 573.939C506.731 574.467 503.759 575.512 500.634 577.074L496.509 569.575C499.001 568.247 501.686 567.054 504.563 565.995C507.44 564.937 510.439 564.485 513.56 564.639C516.647 564.769 519.745 565.922 522.856 568.1C525.477 569.936 527.347 572.026 528.465 574.372C529.548 576.693 530.317 579.054 530.771 581.456C531.225 583.857 531.749 586.047 532.343 588.026C532.937 590.004 534.038 591.556 535.645 592.682C537.253 593.808 539.088 594.311 541.15 594.193C543.178 594.05 545.38 593.769 547.757 593.349C550.099 592.906 552.546 592.796 555.097 593.02C557.649 593.244 560.253 594.286 562.909 596.146C565.53 597.982 567.383 600.06 568.466 602.381C569.584 604.726 570.37 607.1 570.824 609.501C571.278 611.903 571.802 614.093 572.396 616.071C572.99 618.05 574.091 619.602 575.699 620.727C577.866 622.245 580.405 622.747 583.317 622.233C586.228 621.72 589.229 620.67 592.32 619.083Z" fill="#FFE2EC"/>
<path d="M157.459 978.396L165.397 981.818C164.333 984.331 162.994 986.905 161.382 989.541C159.767 992.135 157.721 994.374 155.244 996.258C152.764 998.099 149.629 999.153 145.841 999.417C142.862 999.626 140.221 999.169 137.918 998.047C135.658 996.922 133.575 995.57 131.668 993.993C129.804 992.412 127.955 991.045 126.121 989.89C124.329 988.732 122.433 988.223 120.432 988.363C118.432 988.503 116.625 989.271 115.012 990.667C113.399 992.063 111.779 993.673 110.153 995.497C108.569 997.319 106.758 998.943 104.719 1000.37C102.638 1001.8 100.086 1002.62 97.0644 1002.83C94.085 1003.04 91.4653 1002.58 89.2054 1001.45C86.9028 1000.33 84.8195 998.98 82.9553 997.399C81.0487 995.822 79.1994 994.454 77.4076 993.296C75.5733 992.141 73.6559 991.634 71.6554 991.774C68.8888 991.967 66.5782 993.177 64.7236 995.402C62.866 997.585 61.2144 1000.27 59.7688 1003.45L51.8441 1000.22C52.9453 997.616 54.2807 994.999 55.8502 992.366C57.4197 989.732 59.4658 987.494 61.9886 985.649C64.4689 983.808 67.603 982.754 71.3911 982.49C74.5833 982.266 77.352 982.714 79.6971 983.833C81.9997 984.956 84.083 986.307 85.9471 987.887C87.8112 989.468 89.5966 990.84 91.3033 992.004C93.01 993.167 94.8423 993.681 96.8001 993.544C98.758 993.407 100.501 992.644 102.029 991.254C103.515 989.867 105.049 988.262 106.633 986.441C108.173 984.622 110.006 982.997 112.13 981.566C114.254 980.134 116.933 979.305 120.168 979.079C123.36 978.856 126.108 979.305 128.41 980.427C130.755 981.546 132.86 982.896 134.724 984.477C136.588 986.057 138.374 987.429 140.08 988.593C141.787 989.757 143.619 990.27 145.577 990.133C148.216 989.949 150.505 988.741 152.445 986.509C154.385 984.278 156.056 981.573 157.459 978.396Z" fill="#FFE2EC" fill-opacity="0.58"/>
<path d="M358.93 1377.02L350.79 1379.93C349.856 1377.37 349.079 1374.57 348.46 1371.55C347.872 1368.55 347.842 1365.51 348.368 1362.45C348.926 1359.41 350.5 1356.5 353.09 1353.72C355.127 1351.54 357.37 1350.07 359.819 1349.32C362.24 1348.6 364.685 1348.17 367.155 1348.02C369.596 1347.91 371.882 1347.65 374.011 1347.24C376.111 1346.87 377.845 1345.95 379.212 1344.48C380.58 1343.01 381.378 1341.22 381.605 1339.1C381.833 1336.98 381.92 1334.69 381.864 1332.25C381.78 1329.84 381.997 1327.42 382.516 1324.98C383.064 1322.52 384.371 1320.18 386.437 1317.96C388.474 1315.78 390.703 1314.33 393.123 1313.61C395.572 1312.86 398.017 1312.43 400.458 1312.31C402.929 1312.16 405.214 1311.9 407.314 1311.53C409.443 1311.12 411.192 1310.19 412.559 1308.72C414.451 1306.69 415.316 1304.23 415.154 1301.34C415.024 1298.47 414.403 1295.39 413.291 1292.07L421.291 1289.03C422.259 1291.69 423.067 1294.51 423.715 1297.51C424.363 1300.5 424.393 1303.54 423.806 1306.61C423.248 1309.64 421.674 1312.55 419.084 1315.33C416.902 1317.67 414.572 1319.23 412.093 1320.01C409.644 1320.76 407.199 1321.19 404.757 1321.31C402.316 1321.42 400.075 1321.64 398.033 1321.95C395.991 1322.26 394.301 1323.14 392.962 1324.57C391.624 1326.01 390.87 1327.76 390.7 1329.81C390.559 1331.84 390.531 1334.06 390.616 1336.47C390.729 1338.85 390.497 1341.29 389.92 1343.79C389.343 1346.28 387.949 1348.72 385.737 1351.09C383.555 1353.43 381.239 1354.97 378.79 1355.72C376.312 1356.5 373.852 1356.95 371.41 1357.07C368.969 1357.18 366.728 1357.4 364.686 1357.71C362.644 1358.02 360.954 1358.9 359.615 1360.33C357.811 1362.27 356.961 1364.71 357.064 1367.67C357.167 1370.62 357.789 1373.74 358.93 1377.02Z" fill="#FFE2EC" fill-opacity="0.58"/>
<path d="M1053.94 1312.03L1062.15 1314.74C1061.31 1317.34 1060.2 1320.02 1058.82 1322.79C1057.44 1325.51 1055.6 1327.92 1053.29 1330.01C1050.98 1332.06 1047.95 1333.39 1044.2 1333.98C1041.25 1334.45 1038.58 1334.22 1036.19 1333.3C1033.84 1332.38 1031.65 1331.22 1029.61 1329.81C1027.61 1328.4 1025.65 1327.2 1023.72 1326.21C1021.84 1325.21 1019.91 1324.87 1017.93 1325.18C1015.94 1325.5 1014.21 1326.42 1012.73 1327.95C1011.24 1329.48 1009.77 1331.23 1008.31 1333.18C1006.89 1335.14 1005.23 1336.91 1003.32 1338.51C1001.37 1340.12 998.899 1341.15 995.907 1341.63C992.957 1342.1 990.307 1341.87 987.958 1340.94C985.566 1340.03 983.373 1338.86 981.378 1337.45C979.341 1336.04 977.38 1334.84 975.494 1333.85C973.566 1332.86 971.612 1332.52 969.631 1332.83C966.892 1333.26 964.696 1334.67 963.042 1337.05C961.382 1339.39 959.97 1342.2 958.807 1345.5L950.631 1342.97C951.501 1340.28 952.604 1337.56 953.938 1334.8C955.272 1332.04 957.115 1329.63 959.467 1327.57C961.778 1325.52 964.808 1324.2 968.559 1323.6C971.719 1323.1 974.516 1323.31 976.95 1324.22C979.342 1325.14 981.535 1326.3 983.53 1327.71C985.525 1329.13 987.423 1330.34 989.224 1331.35C991.026 1332.36 992.896 1332.71 994.834 1332.4C996.773 1332.1 998.443 1331.18 999.844 1329.67C1001.2 1328.15 1002.59 1326.42 1004.01 1324.47C1005.39 1322.52 1007.07 1320.74 1009.06 1319.13C1011.05 1317.52 1013.65 1316.46 1016.85 1315.96C1020.01 1315.46 1022.79 1315.66 1025.18 1316.58C1027.61 1317.49 1029.83 1318.65 1031.82 1320.06C1033.82 1321.48 1035.72 1322.69 1037.52 1323.7C1039.32 1324.71 1041.19 1325.06 1043.13 1324.75C1045.74 1324.34 1047.92 1322.94 1049.65 1320.54C1051.39 1318.15 1052.82 1315.31 1053.94 1312.03Z" fill="#FFE2EC" fill-opacity="0.58"/>
<path d="M1405.91 1270.85L1413.52 1274.95C1412.24 1277.36 1410.68 1279.81 1408.84 1282.29C1407.01 1284.74 1404.78 1286.79 1402.14 1288.45C1399.51 1290.07 1396.3 1290.84 1392.5 1290.78C1389.52 1290.73 1386.92 1290.04 1384.73 1288.72C1382.57 1287.4 1380.62 1285.88 1378.86 1284.14C1377.14 1282.4 1375.41 1280.88 1373.69 1279.57C1372 1278.26 1370.16 1277.59 1368.15 1277.55C1366.15 1277.52 1364.28 1278.12 1362.55 1279.37C1360.82 1280.62 1359.07 1282.09 1357.29 1283.76C1355.55 1285.44 1353.61 1286.9 1351.45 1288.14C1349.25 1289.38 1346.64 1289.98 1343.61 1289.92C1340.63 1289.87 1338.06 1289.19 1335.9 1287.87C1333.71 1286.55 1331.75 1285.02 1330.03 1283.29C1328.27 1281.55 1326.55 1280.03 1324.86 1278.72C1323.13 1277.41 1321.27 1276.73 1319.26 1276.7C1316.49 1276.65 1314.08 1277.65 1312.04 1279.71C1310 1281.72 1308.12 1284.25 1306.4 1287.29L1298.79 1283.38C1300.12 1280.89 1301.67 1278.4 1303.47 1275.91C1305.26 1273.42 1307.49 1271.37 1310.17 1269.75C1312.8 1268.14 1316.01 1267.36 1319.81 1267.43C1323.01 1267.48 1325.73 1268.17 1327.97 1269.49C1330.16 1270.81 1332.12 1272.34 1333.84 1274.07C1335.56 1275.81 1337.22 1277.33 1338.82 1278.64C1340.42 1279.95 1342.2 1280.62 1344.16 1280.65C1346.12 1280.69 1347.92 1280.08 1349.57 1278.83C1351.17 1277.57 1352.84 1276.11 1354.57 1274.43C1356.27 1272.76 1358.23 1271.3 1360.47 1270.06C1362.71 1268.82 1365.46 1268.22 1368.7 1268.28C1371.9 1268.34 1374.6 1269.02 1376.79 1270.34C1379.03 1271.66 1381.01 1273.19 1382.73 1274.93C1384.45 1276.66 1386.11 1278.18 1387.71 1279.49C1389.3 1280.8 1391.08 1281.47 1393.05 1281.51C1395.69 1281.55 1398.08 1280.55 1400.2 1278.49C1402.33 1276.44 1404.23 1273.89 1405.91 1270.85Z" fill="#FFE2EC" fill-opacity="0.58"/>
<path d="M1290.32 1008.17L1283.39 1013.33C1281.74 1011.15 1280.18 1008.71 1278.71 1005.99C1277.27 1003.3 1276.35 1000.4 1275.96 997.317C1275.61 994.249 1276.26 991.008 1277.92 987.595C1279.23 984.91 1280.95 982.852 1283.07 981.419C1285.18 980.024 1287.39 978.895 1289.71 978.033C1292.01 977.209 1294.12 976.291 1296.04 975.28C1297.93 974.307 1299.32 972.92 1300.2 971.117C1301.08 969.315 1301.32 967.366 1300.92 965.271C1300.52 963.176 1299.93 960.968 1299.16 958.648C1298.38 956.366 1297.88 953.985 1297.66 951.507C1297.47 948.99 1298.03 946.37 1299.36 943.647C1300.67 940.963 1302.38 938.923 1304.48 937.529C1306.6 936.096 1308.81 934.967 1311.12 934.143C1313.43 933.281 1315.54 932.363 1317.44 931.39C1319.36 930.379 1320.76 928.972 1321.64 927.17C1322.85 924.677 1322.96 922.071 1321.96 919.352C1321 916.652 1319.5 913.881 1317.47 911.039L1324.23 905.791C1325.93 908.045 1327.53 910.51 1329.03 913.186C1330.52 915.862 1331.44 918.753 1331.77 921.86C1332.13 924.929 1331.47 928.17 1329.81 931.583C1328.41 934.459 1326.63 936.633 1324.49 938.104C1322.37 939.537 1320.16 940.666 1317.86 941.49C1315.56 942.314 1313.48 943.174 1311.61 944.07C1309.75 944.966 1308.39 946.296 1307.53 948.061C1306.67 949.825 1306.46 951.716 1306.9 953.734C1307.36 955.714 1307.98 957.845 1308.77 960.127C1309.57 962.371 1310.06 964.771 1310.24 967.326C1310.42 969.881 1309.8 972.616 1308.38 975.53C1306.97 978.406 1305.21 980.561 1303.09 981.994C1300.94 983.465 1298.72 984.613 1296.42 985.437C1294.12 986.261 1292.04 987.122 1290.18 988.018C1288.32 988.914 1286.96 990.244 1286.1 992.008C1284.94 994.386 1284.84 996.972 1285.8 999.768C1286.76 1002.56 1288.27 1005.36 1290.32 1008.17Z" fill="#FFE2EC" fill-opacity="0.58"/>
<path d="M898.835 1016.64L903.374 1024C901.061 1025.44 898.488 1026.78 895.655 1028.02C892.845 1029.22 889.885 1029.88 886.775 1030C883.687 1030.09 880.515 1029.15 877.26 1027.2C874.7 1025.66 872.799 1023.77 871.556 1021.53C870.35 1019.31 869.419 1017.01 868.762 1014.62C868.141 1012.26 867.411 1010.08 866.571 1008.08C865.767 1006.1 864.506 1004.6 862.787 1003.57C861.068 1002.53 859.148 1002.13 857.025 1002.34C854.903 1002.56 852.653 1002.95 850.275 1003.51C847.933 1004.1 845.518 1004.39 843.03 1004.39C840.505 1004.36 837.945 1003.57 835.348 1002.01C832.788 1000.47 830.905 998.596 829.699 996.378C828.457 994.138 827.525 991.836 826.905 989.472C826.248 987.086 825.517 984.905 824.714 982.929C823.873 980.931 822.594 979.416 820.875 978.383C818.498 976.954 815.911 976.62 813.116 977.379C810.342 978.102 807.451 979.351 804.442 981.127L799.804 973.935C802.198 972.437 804.793 971.059 807.589 969.802C810.385 968.545 813.345 967.885 816.469 967.821C819.557 967.735 822.729 968.67 825.984 970.626C828.727 972.274 830.738 974.229 832.017 976.491C833.259 978.731 834.191 981.033 834.811 983.397C835.432 985.76 836.107 987.909 836.838 989.841C837.568 991.773 838.775 993.244 840.457 994.255C842.139 995.266 844.005 995.641 846.054 995.378C848.066 995.094 850.244 994.66 852.585 994.076C854.891 993.471 857.324 993.19 859.885 993.236C862.446 993.281 865.116 994.139 867.896 995.809C870.639 997.457 872.631 999.401 873.874 1001.64C875.153 1003.9 876.103 1006.22 876.723 1008.58C877.344 1010.94 878.019 1013.09 878.75 1015.02C879.48 1016.96 880.687 1018.43 882.369 1019.44C884.636 1020.8 887.205 1021.12 890.073 1020.41C892.942 1019.69 895.863 1018.44 898.835 1016.64Z" fill="#FFE2EC" fill-opacity="0.58"/>
<path d="M520.343 964.725L511.878 966.475C511.309 963.806 510.929 960.93 510.737 957.845C510.572 954.795 510.964 951.787 511.913 948.823C512.888 945.892 514.852 943.231 517.803 940.841C520.124 938.962 522.549 937.821 525.079 937.42C527.576 937.045 530.057 936.957 532.524 937.156C534.957 937.381 537.257 937.441 539.422 937.335C541.554 937.255 543.399 936.585 544.957 935.323C546.516 934.061 547.555 932.395 548.076 930.327C548.597 928.258 549 926.01 549.285 923.583C549.538 921.182 550.09 918.813 550.942 916.476C551.828 914.112 553.448 911.977 555.802 910.07C558.123 908.191 560.532 907.064 563.029 906.689C565.558 906.287 568.04 906.199 570.473 906.425C572.94 906.623 575.239 906.683 577.371 906.604C579.536 906.498 581.398 905.814 582.956 904.552C585.112 902.806 586.311 900.49 586.553 897.603C586.823 894.75 586.638 891.606 585.998 888.171L594.343 886.272C594.932 889.034 595.339 891.944 595.564 895.001C595.789 898.058 595.397 901.066 594.388 904.024C593.412 906.955 591.449 909.615 588.498 912.005C586.011 914.019 583.486 915.24 580.923 915.668C578.394 916.07 575.912 916.158 573.479 915.932C571.045 915.707 568.795 915.607 566.73 915.633C564.664 915.658 562.869 916.289 561.344 917.524C559.818 918.759 558.829 920.384 558.374 922.399C557.953 924.387 557.616 926.582 557.364 928.982C557.145 931.356 556.576 933.738 555.657 936.129C554.738 938.52 553.019 940.736 550.499 942.776C548.012 944.79 545.504 945.998 542.974 946.399C540.411 946.828 537.913 946.929 535.479 946.704C533.046 946.478 530.796 946.378 528.731 946.404C526.665 946.43 524.87 947.06 523.344 948.295C521.289 949.96 520.106 952.262 519.797 955.203C519.488 958.143 519.67 961.317 520.343 964.725Z" fill="#FFE2EC" fill-opacity="0.58"/>
<path d="M515.343 175.725L506.878 177.475C506.309 174.806 505.929 171.93 505.737 168.845C505.572 165.795 505.964 162.787 506.913 159.823C507.888 156.892 509.852 154.231 512.803 151.841C515.124 149.962 517.549 148.821 520.079 148.42C522.576 148.045 525.057 147.957 527.524 148.156C529.957 148.381 532.257 148.441 534.422 148.335C536.554 148.255 538.399 147.585 539.957 146.323C541.516 145.061 542.555 143.395 543.076 141.327C543.597 139.258 544 137.01 544.285 134.583C544.538 132.182 545.09 129.813 545.942 127.476C546.828 125.112 548.448 122.977 550.802 121.07C553.123 119.191 555.532 118.064 558.029 117.689C560.558 117.287 563.04 117.199 565.473 117.425C567.94 117.623 570.239 117.683 572.371 117.604C574.536 117.498 576.398 116.814 577.956 115.552C580.112 113.806 581.311 111.49 581.553 108.603C581.823 105.75 581.638 102.606 580.998 99.1712L589.343 97.2725C589.932 100.034 590.339 102.944 590.564 106.001C590.789 109.058 590.397 112.066 589.388 115.024C588.412 117.955 586.449 120.615 583.498 123.005C581.011 125.019 578.486 126.24 575.923 126.668C573.394 127.07 570.912 127.158 568.479 126.932C566.045 126.707 563.795 126.607 561.73 126.633C559.664 126.658 557.869 127.289 556.344 128.524C554.818 129.759 553.829 131.384 553.374 133.399C552.953 135.387 552.616 137.582 552.364 139.982C552.144 142.356 551.576 144.738 550.657 147.129C549.738 149.52 548.019 151.736 545.499 153.776C543.012 155.79 540.504 156.998 537.974 157.399C535.411 157.828 532.913 157.929 530.479 157.704C528.046 157.478 525.796 157.378 523.731 157.404C521.665 157.43 519.87 158.06 518.344 159.295C516.289 160.96 515.106 163.262 514.797 166.203C514.488 169.143 514.67 172.317 515.343 175.725Z" fill="#FFE2EC" fill-opacity="0.58"/>
<path d="M1355.69 266.156L1347.55 269.066C1346.61 266.503 1345.84 263.707 1345.22 260.68C1344.63 257.682 1344.6 254.649 1345.13 251.581C1345.68 248.543 1347.26 245.635 1349.85 242.858C1351.88 240.674 1354.13 239.207 1356.58 238.457C1359 237.739 1361.44 237.306 1363.91 237.159C1366.35 237.044 1368.64 236.783 1370.77 236.377C1372.87 236.001 1374.6 235.081 1375.97 233.614C1377.34 232.147 1378.14 230.353 1378.36 228.232C1378.59 226.111 1378.68 223.829 1378.62 221.386C1378.54 218.973 1378.76 216.551 1379.27 214.118C1379.82 211.653 1381.13 209.313 1383.19 207.098C1385.23 204.914 1387.46 203.462 1389.88 202.744C1392.33 201.994 1394.78 201.561 1397.22 201.446C1399.69 201.299 1401.97 201.038 1404.07 200.663C1406.2 200.257 1407.95 199.32 1409.32 197.854C1411.21 195.825 1412.07 193.365 1411.91 190.473C1411.78 187.609 1411.16 184.522 1410.05 181.209L1418.05 178.168C1419.02 180.821 1419.82 183.645 1420.47 186.642C1421.12 189.638 1421.15 192.671 1420.56 195.74C1420.01 198.778 1418.43 201.686 1415.84 204.463C1413.66 206.804 1411.33 208.364 1408.85 209.145C1406.4 209.895 1403.96 210.327 1401.52 210.443C1399.07 210.558 1396.83 210.772 1394.79 211.085C1392.75 211.398 1391.06 212.272 1389.72 213.708C1388.38 215.143 1387.63 216.89 1387.46 218.949C1387.32 220.976 1387.29 223.196 1387.37 225.608C1387.49 227.989 1387.25 230.427 1386.68 232.923C1386.1 235.419 1384.71 237.852 1382.5 240.224C1380.31 242.564 1378 244.109 1375.55 244.859C1373.07 245.64 1370.61 246.088 1368.17 246.203C1365.73 246.319 1363.49 246.533 1361.44 246.846C1359.4 247.158 1357.71 248.032 1356.37 249.468C1354.57 251.403 1353.72 253.847 1353.82 256.802C1353.92 259.757 1354.55 262.875 1355.69 266.156Z" fill="#FFE2EC" fill-opacity="0.58"/>
<path d="M44.3434 215.254L36.8066 211.02C38.128 208.633 39.7281 206.212 41.6069 203.759C43.4841 201.349 45.7531 199.336 48.4138 197.721C51.0729 196.149 54.3 195.429 58.095 195.562C61.0799 195.666 63.6586 196.396 65.8312 197.753C67.9612 199.108 69.8919 200.67 71.6233 202.438C73.312 204.205 75.0081 205.758 76.7117 207.098C78.3727 208.437 80.2052 209.142 82.2093 209.212C84.2134 209.282 86.0906 208.707 87.8409 207.487C89.5912 206.267 91.3703 204.835 93.1781 203.191C94.9433 201.545 96.9143 200.119 99.091 198.914C101.31 197.711 103.934 197.162 106.961 197.268C109.946 197.372 112.503 198.102 114.633 199.457C116.806 200.814 118.737 202.376 120.426 204.142C122.157 205.91 123.853 207.464 125.514 208.803C127.218 210.143 129.071 210.848 131.076 210.918C133.847 211.015 136.272 210.053 138.349 208.034C140.424 206.057 142.347 203.563 144.117 200.551L151.661 204.593C150.294 207.064 148.692 209.527 146.856 211.981C145.02 214.436 142.751 216.449 140.049 218.02C137.39 219.592 134.163 220.311 130.368 220.179C127.17 220.067 124.463 219.332 122.248 217.974C120.075 216.618 118.145 215.056 116.456 213.289C114.767 211.523 113.135 209.971 111.559 208.636C109.984 207.3 108.215 206.598 106.254 206.529C104.292 206.461 102.479 207.038 100.814 208.26C99.1915 209.484 97.4977 210.919 95.7325 212.566C94.01 214.213 92.0177 215.638 89.7557 216.84C87.4937 218.041 84.7424 218.586 81.5017 218.473C78.3036 218.361 75.6183 217.627 73.4456 216.27C71.2304 214.912 69.2784 213.349 67.5897 211.583C65.901 209.816 64.2688 208.265 62.6931 206.929C61.1174 205.593 59.3488 204.891 57.3874 204.823C54.7437 204.73 52.3406 205.692 50.1783 207.709C48.0159 209.725 46.0709 212.24 44.3434 215.254Z" fill="#FFE2EC"/>
<path d="M18.4254 1309.42L12.4557 1303.17C14.4174 1301.27 16.6552 1299.43 19.1692 1297.63C21.6692 1295.87 24.4275 1294.61 27.444 1293.85C30.4466 1293.12 33.7431 1293.38 37.3336 1294.61C40.1575 1295.59 42.41 1297.04 44.0911 1298.97C45.7318 1300.89 47.1215 1302.95 48.2603 1305.14C49.3587 1307.33 50.5265 1309.31 51.7638 1311.09C52.9608 1312.85 54.5073 1314.06 56.4034 1314.72C58.2995 1315.37 60.2627 1315.37 62.2931 1314.71C64.3235 1314.06 66.4436 1313.21 68.6532 1312.17C70.8225 1311.11 73.1241 1310.32 75.558 1309.8C78.0321 1309.3 80.7014 1309.55 83.5656 1310.53C86.3896 1311.5 88.6219 1312.95 90.2627 1314.87C91.9437 1316.8 93.3334 1318.86 94.4318 1321.04C95.5706 1323.24 96.7384 1325.22 97.9354 1326.99C99.1727 1328.77 100.739 1329.98 102.635 1330.64C105.258 1331.54 107.857 1331.33 110.434 1330C112.997 1328.72 115.565 1326.9 118.138 1324.53L124.171 1330.6C122.141 1332.57 119.889 1334.46 117.416 1336.27C114.942 1338.08 112.184 1339.34 109.141 1340.05C106.138 1340.78 102.842 1340.52 99.2511 1339.28C96.2254 1338.24 93.8519 1336.75 92.1305 1334.8C90.4494 1332.87 89.0597 1330.81 87.9613 1328.63C86.8629 1326.45 85.7556 1324.48 84.6393 1322.75C83.523 1321.01 82.037 1319.82 80.1813 1319.18C78.3256 1318.54 76.4228 1318.56 74.4731 1319.25C72.5637 1319.94 70.5244 1320.82 68.355 1321.88C66.2261 1322.95 63.9043 1323.73 61.3898 1324.22C58.8753 1324.71 56.085 1324.42 53.019 1323.37C49.9934 1322.32 47.64 1320.84 45.9589 1318.9C44.2375 1316.96 42.8276 1314.89 41.7292 1312.71C40.6309 1310.53 39.5235 1308.57 38.4072 1306.83C37.291 1305.09 35.805 1303.9 33.9492 1303.26C31.448 1302.4 28.8687 1302.62 26.2113 1303.91C23.5539 1305.21 20.9586 1307.05 18.4254 1309.42Z" fill="#FFE2EC" fill-opacity="0.58"/>
</g>
<defs>
<clipPath id="clip0_671_1806">
<rect width="1440" height="6575" fill="white" transform="translate(0 -4320)"/>
</clipPath>
</defs>
</svg>
