<svg width="370" height="280" viewBox="0 0 370 280" fill="none" xmlns="http://www.w3.org/2000/svg">
<path d="M344.212 171.235L344.334 178.178L260.819 179.636L260.698 172.692L344.212 171.235ZM344.529 189.384L344.651 196.375L261.137 197.833L261.015 190.842L344.529 189.384ZM330.227 154.857L356.786 183.565L331.245 213.183L325.218 208.211L331.089 201.498C331.808 200.623 332.592 199.779 333.44 198.966C334.32 198.152 335.471 197.334 336.894 196.511L341.704 189.433L346.73 183.741L341.508 178.228L336.455 171.37C335.004 170.565 333.824 169.756 332.916 168.941C332.038 168.094 331.226 167.262 330.477 166.445L324.377 160.037L330.227 154.857Z" fill="#FFAAC7"/>
<path d="M326.525 33.097L326.525 103.573L321.28 103.573L321.28 33.097L326.525 33.097ZM302.027 118.48L323.903 98.9391L345.778 118.48L341.97 122.934L323.903 106.482L305.835 122.934L302.027 118.48ZM302.027 140.176L323.903 120.635L345.778 140.176L341.97 144.63L323.903 128.178L305.835 144.63L302.027 140.176Z" fill="#FF586C"/>
<path d="M69.7475 112.93L74.9679 117.336L60.5997 133.046C59.7377 134.003 59.0192 134.786 58.4445 135.392C57.8698 135.967 57.2951 136.494 56.7203 136.973C56.1456 137.42 55.4112 137.947 54.5172 138.553H167.547V145.642H54.4693C55.6188 146.408 56.7044 147.27 57.7261 148.228C58.7159 149.154 59.6738 150.128 60.5997 151.149L74.9679 166.859L69.7475 171.265L43.7411 142.098L69.7475 112.93ZM184.836 112.93L190.775 118.007L168.84 142.098L190.775 166.188L184.836 171.265L158.782 142.098L184.836 112.93Z" fill="#E4FFF8"/>
<path d="M271.376 38.2406H265.018L262.898 54.1533H268.717V58.823H262.216L260.707 71H255.535L257.151 58.823H246.698L245.118 71H239.945L241.562 58.823H219.111L217.603 71H212.43L214.047 58.823H203.594L202.013 71H196.841L198.457 58.823H176.007L174.498 71H169.326L170.942 58.823H160.489L158.909 71H153.736L155.353 58.823H149.677V54.1533H155.963L158.154 38.2406H152.335V33.535H158.765L160.346 21.5376H165.518L163.794 33.535H174.355L175.935 21.5376H181.108L179.419 33.535H201.87L203.45 21.5376H208.623L206.898 33.535H217.459L219.04 21.5376H224.212L222.524 33.535H244.974L246.555 21.5376H251.727L250.003 33.535H260.564L262.144 21.5376H267.317L265.628 33.535H271.376V38.2406ZM171.553 54.1533L173.744 38.2406H163.219L161.1 54.1533H171.553ZM199.068 54.1533L201.259 38.2406H178.809L176.689 54.1533H199.068ZM214.657 54.1533L216.848 38.2406H206.324L204.204 54.1533H214.657ZM242.172 54.1533L244.363 38.2406H221.913L219.794 54.1533H242.172ZM257.762 54.1533L259.953 38.2406H249.428L247.309 54.1533H257.762Z" fill="#E4FFF8"/>
<path d="M253.327 104.796C255.801 104.796 257.885 105.171 259.577 105.922C261.285 106.656 262.674 107.67 263.744 108.963C264.829 110.256 265.659 111.757 266.234 113.465C266.825 115.157 267.232 116.961 267.455 118.877C267.679 120.777 267.791 122.708 267.791 124.672C267.791 128.695 267.599 132.04 267.216 134.706C266.849 137.356 266.162 139.336 265.157 140.645C264.151 141.97 262.682 142.632 260.75 142.632C259.761 142.632 258.906 142.393 258.188 141.914C257.47 141.435 256.879 140.828 256.416 140.094C255.953 139.375 255.618 138.633 255.41 137.867C255.203 137.085 255.107 136.406 255.123 135.831H254.931C254.644 136.566 254.229 137.292 253.686 138.01C253.159 138.713 252.465 139.296 251.603 139.759C250.741 140.238 249.671 140.477 248.394 140.477C246.654 140.477 245.249 140.006 244.179 139.064C243.125 138.122 242.359 136.821 241.88 135.161C241.401 133.5 241.162 131.617 241.162 129.509C241.162 125.343 241.992 122.245 243.652 120.218C245.313 118.174 247.611 117.153 250.549 117.153C251.666 117.153 252.736 117.272 253.758 117.512C254.78 117.751 255.961 118.23 257.302 118.949V133.101C257.302 134.826 257.454 136.143 257.757 137.053C258.06 137.947 258.467 138.561 258.978 138.897C259.489 139.232 260.056 139.399 260.678 139.399C261.429 139.399 262.012 139.024 262.427 138.274C262.842 137.524 263.137 136.478 263.313 135.137C263.488 133.796 263.592 132.239 263.624 130.467C263.656 128.679 263.672 126.763 263.672 124.72C263.672 122.437 263.544 120.306 263.289 118.326C263.033 116.331 262.546 114.582 261.828 113.082C261.11 111.581 260.072 110.408 258.715 109.562C257.358 108.715 255.578 108.292 253.375 108.292C252.96 108.292 252.297 108.324 251.387 108.388C250.477 108.436 249.463 108.572 248.346 108.795C247.244 109.003 246.167 109.338 245.113 109.801C244.059 110.264 243.181 110.911 242.479 111.741C241.617 112.762 240.874 113.92 240.252 115.213C239.645 116.506 239.134 117.711 238.719 118.829C238.304 119.947 237.953 120.777 237.665 121.319C237.187 122.229 236.62 123.155 235.965 124.097C235.295 125.023 234.473 125.806 233.499 126.444C232.525 127.067 231.328 127.378 229.907 127.378C228.789 127.378 227.823 127.139 227.009 126.66C226.179 126.181 225.437 125.622 224.782 124.983C224.112 124.345 223.457 123.786 222.818 123.307C222.164 122.828 221.461 122.589 220.711 122.589C219.673 122.589 218.779 122.98 218.029 123.762C217.279 124.528 216.592 125.486 215.97 126.636L213.096 125.223C213.575 124.281 214.142 123.339 214.796 122.397C215.451 121.455 216.273 120.673 217.263 120.05C218.237 119.428 219.434 119.116 220.855 119.116C222.052 119.116 223.074 119.356 223.92 119.835C224.75 120.314 225.492 120.872 226.147 121.511C226.802 122.15 227.432 122.708 228.039 123.187C228.645 123.666 229.316 123.906 230.05 123.906C231.04 123.906 231.926 123.515 232.708 122.732C233.475 121.95 234.169 120.984 234.792 119.835C235.015 119.452 235.287 118.861 235.606 118.063C235.925 117.248 236.301 116.331 236.732 115.309C237.147 114.287 237.642 113.257 238.216 112.22C238.775 111.166 239.398 110.208 240.084 109.346C240.946 108.244 242 107.39 243.245 106.784C244.506 106.161 245.799 105.706 247.125 105.419C248.45 105.131 249.671 104.956 250.788 104.892C251.906 104.828 252.752 104.796 253.327 104.796ZM253.806 133.245V120.841C252.864 120.362 251.842 120.122 250.741 120.122C248.553 120.122 247.061 120.912 246.262 122.493C245.464 124.073 245.065 126.412 245.065 129.509C245.065 131.074 245.177 132.455 245.4 133.652C245.64 134.834 246.039 135.767 246.598 136.454C247.156 137.124 247.915 137.46 248.873 137.46C249.99 137.46 250.868 137.204 251.507 136.693C252.161 136.183 252.656 135.6 252.992 134.945C253.343 134.275 253.614 133.708 253.806 133.245Z" fill="#FF586C"/>
<path d="M29.7979 230.253C28.84 230.253 28.0019 230.457 27.2835 230.864C26.5411 231.295 25.8347 231.822 25.1641 232.444C24.4936 233.067 23.7393 233.677 22.9012 234.276C22.063 234.875 21.0692 235.366 19.9198 235.749C18.7464 236.156 17.3096 236.336 15.6093 236.288V230.325C16.7827 230.229 17.7765 229.966 18.5907 229.535C19.4049 229.104 20.1592 228.613 20.8537 228.062C21.5242 227.535 22.2426 226.996 23.0089 226.445C23.7752 225.919 24.6972 225.476 25.7748 225.116C26.8285 224.757 28.1695 224.578 29.7979 224.578C31.4502 224.578 32.8631 224.829 34.0365 225.332C35.1859 225.859 36.1797 226.493 37.0179 227.236C37.856 228.002 38.6343 228.756 39.3527 229.499C40.0711 230.265 40.8135 230.9 41.5798 231.402C42.3461 231.929 43.2082 232.193 44.166 232.193C45.4113 232.193 46.4769 231.834 47.363 231.115C48.249 230.397 49.159 229.559 50.0929 228.601C51.0508 227.643 52.1763 226.805 53.4694 226.086C54.7865 225.368 56.4748 225.009 58.5342 225.009C60.1626 225.009 61.5515 225.224 62.701 225.655C63.8504 226.086 64.8442 226.613 65.6824 227.236C66.5445 227.882 67.3347 228.517 68.0531 229.139C68.7955 229.786 69.5498 230.325 70.3161 230.756C71.0824 231.187 71.9445 231.402 72.9024 231.402C73.9081 231.402 74.7822 231.163 75.5246 230.684C76.2909 230.229 77.0332 229.666 77.7516 228.996C78.47 228.325 79.2483 227.643 80.0864 226.948C80.9485 226.278 81.9423 225.715 83.0678 225.26C84.2173 224.805 85.6182 224.578 87.2705 224.578C88.9229 224.578 90.3238 224.829 91.4732 225.332C92.6466 225.859 93.6524 226.493 94.4905 227.236C95.3287 228.002 96.1069 228.756 96.8254 229.499C97.5438 230.265 98.2861 230.9 99.0524 231.402C99.8187 231.929 100.681 232.193 101.639 232.193C102.884 232.193 103.95 231.834 104.836 231.115C105.722 230.397 106.632 229.559 107.566 228.601C108.523 227.643 109.649 226.805 110.942 226.086C112.259 225.368 113.947 225.009 116.007 225.009C117.755 225.009 119.467 225.476 121.143 226.41C122.82 227.367 124.281 228.505 125.526 229.822C126.771 231.139 127.633 232.384 128.112 233.558L122.975 236.072C122.161 234.468 121.131 233.091 119.886 231.941C118.641 230.816 117.348 230.253 116.007 230.253C114.786 230.253 113.72 230.612 112.81 231.331C111.924 232.049 111.014 232.887 110.08 233.845C109.146 234.803 108.021 235.641 106.703 236.359C105.386 237.078 103.698 237.437 101.639 237.437C99.5793 237.437 97.891 237.078 96.5739 236.359C95.2808 235.641 94.1553 234.803 93.1974 233.845C92.2635 232.887 91.3535 232.049 90.4674 231.331C89.5814 230.612 88.5158 230.253 87.2705 230.253C86.0492 230.253 84.9836 230.612 84.0736 231.331C83.1876 232.049 82.2776 232.887 81.3437 233.845C80.4097 234.803 79.2842 235.641 77.9671 236.359C76.6501 237.078 74.9618 237.437 72.9024 237.437C71.274 237.437 69.8851 237.198 68.7356 236.719C67.5861 236.24 66.5804 235.641 65.7183 234.923C64.8801 234.204 64.0899 233.486 63.3475 232.767C62.6291 232.049 61.8868 231.45 61.1205 230.971C60.3781 230.492 59.516 230.253 58.5342 230.253C57.3129 230.253 56.2473 230.612 55.3373 231.331C54.4513 232.049 53.5413 232.887 52.6073 233.845C51.6734 234.803 50.5479 235.641 49.2308 236.359C47.9137 237.078 46.2255 237.437 44.166 237.437C42.1066 237.437 40.4303 237.078 39.1372 236.359C37.8201 235.641 36.6946 234.803 35.7607 233.845C34.8028 232.887 33.8808 232.049 32.9948 231.331C32.1088 230.612 31.0431 230.253 29.7979 230.253ZM26.601 253.242L7.06026 231.367L26.601 209.491L31.0551 213.299L20.8178 224.578C20.1233 225.344 19.4049 226.074 18.6626 226.769C17.8963 227.487 17.0701 228.134 16.184 228.708L16.22 234.025C16.8905 234.48 17.4532 234.875 17.9082 235.21C18.3393 235.569 18.7703 235.964 19.2014 236.395C19.6085 236.85 20.1473 237.437 20.8178 238.156L31.0551 249.435L26.601 253.242Z" fill="#FFAAC7"/>
<path d="M196.793 220.334V234.558H191.154V220.334H160.873V234.558H155.234V220.334H141.296V215.269H155.234V200.937H160.873V215.269H191.154V200.937H196.793V215.269H227.074V200.937H232.714V215.269H246.831V220.334H232.714V234.558H227.074V220.334H196.793Z" fill="#FF586C"/>
<path d="M274.795 238.595L274.795 251.838L277.908 251.838L277.908 238.595C277.908 236.855 278.164 235.586 278.675 234.788C279.185 233.974 280.175 233.566 281.644 233.566L291.702 233.59C293.697 233.606 295.198 233.279 296.204 232.609C297.193 231.922 297.84 230.757 298.143 229.112C298.447 230.789 299.069 231.954 300.011 232.609C300.937 233.263 302.462 233.59 304.585 233.59L314.547 233.59C316.032 233.59 317.038 233.989 317.564 234.788C318.091 235.586 318.355 236.855 318.355 238.595L318.355 251.838L321.492 251.838L321.492 238.595C321.492 236.807 321.276 235.259 320.845 233.95C320.43 232.64 319.68 231.635 318.594 230.932C317.508 230.23 315.984 229.879 314.02 229.879L304.825 229.879C304.01 229.879 303.292 229.799 302.669 229.639C302.031 229.479 301.496 229.16 301.065 228.681C300.634 228.186 300.307 227.452 300.083 226.478C299.86 225.504 299.748 224.211 299.748 222.599L296.539 222.599C296.539 224.211 296.427 225.504 296.204 226.478C295.98 227.436 295.661 228.162 295.246 228.657C294.831 229.152 294.312 229.479 293.689 229.639C293.051 229.799 292.324 229.879 291.51 229.879L282.003 229.926C280.024 229.942 278.515 230.302 277.477 231.004C276.439 231.691 275.737 232.68 275.37 233.974C274.987 235.267 274.795 236.807 274.795 238.595ZM274.795 258.998L321.492 258.998L321.492 255.382L274.795 255.382L274.795 258.998Z" fill="#E4FFF8"/>
<path d="M50.0528 69.1498L54.5788 65.3422L44.3056 54.0632C43.6351 53.3448 43.0843 52.7581 42.6532 52.3031C42.2222 51.8721 41.7911 51.4769 41.3601 51.1177C40.929 50.7825 40.3783 50.3874 39.7078 49.9324H120.313V44.6161H39.7078C40.5459 44.0414 41.3481 43.3949 42.1144 42.6764C42.8568 41.982 43.5872 41.2516 44.3056 40.4853L54.5788 29.2063L50.0528 25.3987L30.5481 47.2743L50.0528 69.1498ZM28.2851 69.1498L32.7392 65.3422L16.2877 47.2743L32.7392 29.2063L28.2851 25.3987L8.74436 47.2743L28.2851 69.1498Z" fill="#FF586C"/>
</svg>
