<svg width="966" height="863" viewBox="0 0 966 863" fill="none" xmlns="http://www.w3.org/2000/svg">
<path d="M425 0H542V669.5H424L425 0Z" fill="#F0ABCF"/>
<rect x="542" y="0.5" width="118" height="669" fill="#F2E2E8"/>
<path d="M306 0.5H425L424 669.5H306V0.5Z" fill="#F2F0F2"/>
<rect x="660" y="0.5" width="119" height="669" fill="#F2CCE2"/>
<rect x="183" y="0.5" width="123" height="669" fill="#F2C4DD"/>
<path d="M424 669.5H542L580 862.5H399L424 669.5Z" fill="url(#paint0_linear_616_13975)"/>
<path d="M305.24 669.5H424L399.18 860.5H210.24L305.24 669.5Z" fill="url(#paint1_linear_616_13975)"/>
<path d="M183 669.5H306L213.697 860.5H0L183 669.5Z" fill="url(#paint2_linear_616_13975)"/>
<path opacity="0.9" d="M542 669.5H660L759 861.575L580 862.5L542 669.5Z" fill="url(#paint3_linear_616_13975)"/>
<path d="M660 669.5H779.999L965.999 861.5H758.999L660 669.5Z" fill="url(#paint4_linear_616_13975)"/>
<defs>
<linearGradient id="paint0_linear_616_13975" x1="490.251" y1="669.118" x2="490.251" y2="862.5" gradientUnits="userSpaceOnUse">
<stop stop-color="#F0ABCF"/>
<stop offset="1" stop-color="#F6D5E6"/>
</linearGradient>
<linearGradient id="paint1_linear_616_13975" x1="323.011" y1="668.5" x2="323.011" y2="861.735" gradientUnits="userSpaceOnUse">
<stop stop-color="#F2F0F2"/>
<stop offset="1" stop-color="white"/>
</linearGradient>
<linearGradient id="paint2_linear_616_13975" x1="184.853" y1="669.267" x2="184.853" y2="860.5" gradientUnits="userSpaceOnUse">
<stop stop-color="#F2C4DD"/>
<stop offset="1" stop-color="#ECD2E0"/>
</linearGradient>
<linearGradient id="paint3_linear_616_13975" x1="650.75" y1="669.5" x2="650.75" y2="862.5" gradientUnits="userSpaceOnUse">
<stop stop-color="#F2E2E8"/>
<stop offset="1" stop-color="#FDFDFD"/>
</linearGradient>
<linearGradient id="paint4_linear_616_13975" x1="789.75" y1="669.5" x2="789.75" y2="861.5" gradientUnits="userSpaceOnUse">
<stop stop-color="#F2CCE2"/>
<stop offset="1" stop-color="#EEEDEE"/>
</linearGradient>
</defs>
</svg>
