<svg width="448" height="173" viewBox="0 0 448 173" fill="none" xmlns="http://www.w3.org/2000/svg">
<path d="M0 28.6396C0 12.8224 12.8224 0 28.6396 0H448V173H28.6396C12.8224 173 0 160.178 0 144.36V28.6396Z" fill="#FFE2EC"/>
<mask id="path-2-outside-1_630_14438" maskUnits="userSpaceOnUse" x="107" y="78" width="33" height="8" fill="black">
<rect fill="white" x="107" y="78" width="33" height="8"/>
<path d="M136.853 79.7794L138.91 80.8425C138.579 81.4941 138.173 82.1572 137.693 82.8316C137.213 83.4947 136.624 84.0548 135.927 84.5121C135.229 84.9579 134.372 85.1808 133.355 85.1808C132.554 85.1808 131.857 85.0093 131.263 84.6664C130.68 84.3234 130.148 83.9233 129.668 83.4661C129.199 83.0088 128.73 82.6087 128.262 82.2658C127.805 81.9228 127.307 81.7513 126.77 81.7513C126.233 81.7513 125.735 81.9228 125.278 82.2658C124.821 82.6087 124.358 83.0088 123.889 83.4661C123.432 83.9233 122.918 84.3234 122.346 84.6664C121.763 85.0093 121.066 85.1808 120.254 85.1808C119.454 85.1808 118.762 85.0093 118.179 84.6664C117.585 84.3234 117.053 83.9233 116.584 83.4661C116.104 83.0088 115.636 82.6087 115.178 82.2658C114.71 81.9228 114.207 81.7513 113.669 81.7513C112.926 81.7513 112.286 82.0314 111.749 82.5916C111.212 83.1403 110.72 83.8262 110.274 84.6492L108.217 83.6376C108.559 82.9631 108.965 82.2886 109.434 81.6142C109.903 80.9397 110.491 80.3796 111.2 79.9337C111.897 79.4879 112.755 79.265 113.772 79.265C114.63 79.265 115.361 79.4365 115.967 79.7794C116.562 80.1223 117.093 80.5225 117.562 80.9797C118.031 81.437 118.482 81.8371 118.916 82.18C119.351 82.523 119.831 82.6944 120.357 82.6944C120.883 82.6944 121.363 82.523 121.797 82.18C122.22 81.8371 122.66 81.437 123.118 80.9797C123.563 80.5225 124.084 80.1223 124.678 79.7794C125.272 79.4365 126.004 79.265 126.873 79.265C127.73 79.265 128.456 79.4365 129.051 79.7794C129.656 80.1223 130.194 80.5225 130.662 80.9797C131.131 81.437 131.583 81.8371 132.017 82.18C132.451 82.523 132.932 82.6944 133.457 82.6944C134.166 82.6944 134.801 82.4144 135.361 81.8542C135.921 81.2941 136.418 80.6025 136.853 79.7794Z"/>
</mask>
<path d="M136.853 79.7794L138.91 80.8425C138.579 81.4941 138.173 82.1572 137.693 82.8316C137.213 83.4947 136.624 84.0548 135.927 84.5121C135.229 84.9579 134.372 85.1808 133.355 85.1808C132.554 85.1808 131.857 85.0093 131.263 84.6664C130.68 84.3234 130.148 83.9233 129.668 83.4661C129.199 83.0088 128.73 82.6087 128.262 82.2658C127.805 81.9228 127.307 81.7513 126.77 81.7513C126.233 81.7513 125.735 81.9228 125.278 82.2658C124.821 82.6087 124.358 83.0088 123.889 83.4661C123.432 83.9233 122.918 84.3234 122.346 84.6664C121.763 85.0093 121.066 85.1808 120.254 85.1808C119.454 85.1808 118.762 85.0093 118.179 84.6664C117.585 84.3234 117.053 83.9233 116.584 83.4661C116.104 83.0088 115.636 82.6087 115.178 82.2658C114.71 81.9228 114.207 81.7513 113.669 81.7513C112.926 81.7513 112.286 82.0314 111.749 82.5916C111.212 83.1403 110.72 83.8262 110.274 84.6492L108.217 83.6376C108.559 82.9631 108.965 82.2886 109.434 81.6142C109.903 80.9397 110.491 80.3796 111.2 79.9337C111.897 79.4879 112.755 79.265 113.772 79.265C114.63 79.265 115.361 79.4365 115.967 79.7794C116.562 80.1223 117.093 80.5225 117.562 80.9797C118.031 81.437 118.482 81.8371 118.916 82.18C119.351 82.523 119.831 82.6944 120.357 82.6944C120.883 82.6944 121.363 82.523 121.797 82.18C122.22 81.8371 122.66 81.437 123.118 80.9797C123.563 80.5225 124.084 80.1223 124.678 79.7794C125.272 79.4365 126.004 79.265 126.873 79.265C127.73 79.265 128.456 79.4365 129.051 79.7794C129.656 80.1223 130.194 80.5225 130.662 80.9797C131.131 81.437 131.583 81.8371 132.017 82.18C132.451 82.523 132.932 82.6944 133.457 82.6944C134.166 82.6944 134.801 82.4144 135.361 81.8542C135.921 81.2941 136.418 80.6025 136.853 79.7794Z" fill="#FFE2EC"/>
<path d="M136.853 79.7794L137.099 79.3033L136.627 79.0595L136.379 79.5293L136.853 79.7794ZM138.91 80.8425L139.388 81.0855L139.629 80.6109L139.156 80.3665L138.91 80.8425ZM137.693 82.8316L138.127 83.1459L138.129 83.1424L137.693 82.8316ZM135.927 84.5121L136.215 84.9636L136.22 84.9602L135.927 84.5121ZM131.263 84.6664L130.991 85.1283L130.995 85.1305L131.263 84.6664ZM129.668 83.4661L129.294 83.8497L129.298 83.8541L129.668 83.4661ZM128.262 82.2658L127.94 82.6945L127.945 82.6982L128.262 82.2658ZM125.278 82.2658L124.957 81.8371L124.957 81.8371L125.278 82.2658ZM123.889 83.4661L123.515 83.0825L123.51 83.0872L123.889 83.4661ZM122.346 84.6664L122.618 85.1283L122.622 85.1259L122.346 84.6664ZM118.179 84.6664L118.451 84.2045L118.447 84.2022L118.179 84.6664ZM116.584 83.4661L116.959 83.0825L116.954 83.078L116.584 83.4661ZM115.178 82.2658L115.5 81.8371L115.495 81.8333L115.178 82.2658ZM111.749 82.5916L112.132 82.9665L112.136 82.9625L111.749 82.5916ZM110.274 84.6492L110.038 85.1301L110.5 85.3574L110.745 84.9045L110.274 84.6492ZM108.217 83.6376L107.739 83.3947L107.493 83.8788L107.98 84.1184L108.217 83.6376ZM111.2 79.9337L111.485 80.3873L111.489 80.3852L111.2 79.9337ZM115.967 79.7794L116.235 79.3152L116.231 79.3131L115.967 79.7794ZM118.916 82.18L119.249 81.7594L119.249 81.7594L118.916 82.18ZM121.797 82.18L122.129 82.6006L122.135 82.5963L121.797 82.18ZM123.118 80.9797L123.497 81.3586L123.501 81.3538L123.118 80.9797ZM124.678 79.7794L124.946 80.2435L124.946 80.2435L124.678 79.7794ZM129.051 79.7794L128.783 80.2436L128.787 80.2457L129.051 79.7794ZM130.662 80.9797L131.037 80.5962L131.037 80.5962L130.662 80.9797ZM132.017 82.18L132.349 81.7594L132.349 81.7594L132.017 82.18ZM135.361 81.8542L134.982 81.4753L134.982 81.4753L135.361 81.8542ZM136.607 80.2555L138.664 81.3186L139.156 80.3665L137.099 79.3033L136.607 80.2555ZM138.433 80.5995C138.115 81.2247 137.723 81.8652 137.256 82.5209L138.129 83.1424C138.623 82.4491 139.043 81.7635 139.388 81.0855L138.433 80.5995ZM137.259 82.5173C136.818 83.1266 136.277 83.6417 135.633 84.064L136.22 84.9602C136.971 84.4679 137.608 83.8627 138.127 83.1459L137.259 82.5173ZM135.638 84.0606C135.045 84.4399 134.293 84.645 133.355 84.645V85.7167C134.451 85.7167 135.414 85.4759 136.215 84.9635L135.638 84.0606ZM133.355 84.645C132.633 84.645 132.031 84.4909 131.53 84.2022L130.995 85.1305C131.683 85.5278 132.476 85.7167 133.355 85.7167V84.645ZM131.534 84.2045C130.986 83.8819 130.487 83.5065 130.037 83.078L129.298 83.8541C129.809 84.3402 130.373 84.7649 130.991 85.1283L131.534 84.2045ZM130.042 83.0825C129.558 82.6098 129.07 82.1929 128.578 81.8333L127.945 82.6982C128.391 83.0245 128.841 83.4078 129.294 83.8496L130.042 83.0825ZM128.583 81.8371C128.04 81.4293 127.431 81.2155 126.77 81.2155V82.2872C127.184 82.2872 127.569 82.4163 127.94 82.6944L128.583 81.8371ZM126.77 81.2155C126.109 81.2155 125.5 81.4293 124.957 81.8371L125.6 82.6944C125.97 82.4163 126.356 82.2872 126.77 82.2872V81.2155ZM124.957 81.8371C124.478 82.1957 123.998 82.6114 123.515 83.0825L124.263 83.8496C124.718 83.4063 125.163 83.0217 125.6 82.6944L124.957 81.8371ZM123.51 83.0872C123.085 83.5125 122.605 83.8858 122.07 84.2069L122.622 85.1259C123.23 84.7611 123.779 84.3342 124.268 83.845L123.51 83.0872ZM122.074 84.2045C121.589 84.4902 120.989 84.645 120.254 84.645V85.7167C121.142 85.7167 121.937 85.5285 122.618 85.1283L122.074 84.2045ZM120.254 84.645C119.532 84.645 118.938 84.4908 118.451 84.2045L117.907 85.1283C118.587 85.5279 119.376 85.7167 120.254 85.7167V84.645ZM118.447 84.2022C117.889 83.8805 117.394 83.5071 116.959 83.0825L116.21 83.8496C116.712 84.3396 117.28 84.7663 117.911 85.1305L118.447 84.2022ZM116.954 83.078C116.461 82.6085 115.976 82.1944 115.5 81.8371L114.857 82.6944C115.295 83.023 115.748 83.4091 116.215 83.8541L116.954 83.078ZM115.495 81.8333C114.942 81.4289 114.33 81.2155 113.669 81.2155V82.2872C114.084 82.2872 114.477 82.4167 114.862 82.6982L115.495 81.8333ZM113.669 81.2155C112.773 81.2155 111.995 81.5604 111.362 82.2206L112.136 82.9625C112.577 82.5024 113.079 82.2872 113.669 82.2872V81.2155ZM111.366 82.2167C110.787 82.8077 110.268 83.5364 109.803 84.394L110.745 84.9045C111.172 84.116 111.636 83.4728 112.132 82.9665L111.366 82.2167ZM110.511 84.1684L108.453 83.1567L107.98 84.1184L110.038 85.1301L110.511 84.1684ZM108.694 83.8804C109.025 83.2295 109.418 82.576 109.874 81.92L108.994 81.3084C108.512 82.0012 108.094 82.6967 107.739 83.3947L108.694 83.8804ZM109.874 81.92C110.301 81.3058 110.837 80.7955 111.485 80.3873L110.915 79.4801C110.146 79.9636 109.505 80.5736 108.994 81.3084L109.874 81.92ZM111.489 80.3852C112.082 80.0059 112.834 79.8008 113.772 79.8008V78.7291C112.676 78.7291 111.713 78.9699 110.912 79.4823L111.489 80.3852ZM113.772 79.8008C114.558 79.8008 115.194 79.9578 115.703 80.2457L116.231 79.3131C115.528 78.9151 114.701 78.7291 113.772 78.7291V79.8008ZM115.699 80.2435C116.257 80.5652 116.752 80.9387 117.188 81.3633L117.936 80.5962C117.434 80.1062 116.866 79.6794 116.235 79.3153L115.699 80.2435ZM117.188 81.3633C117.667 81.8313 118.133 82.2442 118.584 82.6006L119.249 81.7594C118.831 81.43 118.394 81.0426 117.936 80.5962L117.188 81.3633ZM118.584 82.6006C119.108 83.014 119.704 83.2303 120.357 83.2303V82.1586C119.958 82.1586 119.594 82.0319 119.249 81.7594L118.584 82.6006ZM120.357 83.2303C121.01 83.2303 121.606 83.014 122.129 82.6006L121.465 81.7594C121.12 82.0319 120.756 82.1586 120.357 82.1586V83.2303ZM122.135 82.5963C122.574 82.2397 123.028 81.8267 123.496 81.3586L122.739 80.6008C122.292 81.0473 121.866 81.4345 121.46 81.7638L122.135 82.5963ZM123.501 81.3538C123.91 80.9342 124.391 80.5638 124.946 80.2435L124.41 79.3153C123.776 79.6809 123.217 80.1107 122.734 80.6056L123.501 81.3538ZM124.946 80.2435C125.44 79.9585 126.073 79.8008 126.873 79.8008V78.7291C125.935 78.7291 125.105 78.9144 124.41 79.3153L124.946 80.2435ZM126.873 79.8008C127.659 79.8008 128.288 79.9579 128.783 80.2435L129.318 79.3153C128.625 78.915 127.801 78.7291 126.873 78.7291V79.8008ZM128.787 80.2457C129.355 80.5674 129.855 80.9402 130.288 81.3633L131.037 80.5962C130.533 80.1047 129.958 79.6773 129.315 79.3131L128.787 80.2457ZM130.288 81.3633C130.768 81.8313 131.234 82.2442 131.685 82.6006L132.349 81.7594C131.932 81.43 131.494 81.0426 131.037 80.5962L130.288 81.3633ZM131.685 82.6006C132.209 83.014 132.804 83.2303 133.457 83.2303V82.1586C133.059 82.1586 132.694 82.0319 132.349 81.7594L131.685 82.6006ZM133.457 83.2303C134.326 83.2303 135.092 82.8808 135.74 82.2331L134.982 81.4753C134.509 81.9479 134.007 82.1586 133.457 82.1586V83.2303ZM135.74 82.2331C136.344 81.6291 136.871 80.892 137.326 80.0295L136.379 79.5293C135.965 80.313 135.498 80.9591 134.982 81.4753L135.74 82.2331Z" fill="#EF5A92" mask="url(#path-2-outside-1_630_14438)"/>
<mask id="path-4-outside-2_630_14438" maskUnits="userSpaceOnUse" x="107" y="38" width="33" height="8" fill="black">
<rect fill="white" x="107" y="38" width="33" height="8"/>
<path d="M136.853 39.7794L138.91 40.8425C138.579 41.4941 138.173 42.1572 137.693 42.8316C137.213 43.4947 136.624 44.0548 135.927 44.5121C135.229 44.9579 134.372 45.1808 133.355 45.1808C132.554 45.1808 131.857 45.0093 131.263 44.6664C130.68 44.3234 130.148 43.9233 129.668 43.4661C129.199 43.0088 128.73 42.6087 128.262 42.2658C127.805 41.9228 127.307 41.7513 126.77 41.7513C126.233 41.7513 125.735 41.9228 125.278 42.2658C124.821 42.6087 124.358 43.0088 123.889 43.4661C123.432 43.9233 122.918 44.3234 122.346 44.6664C121.763 45.0093 121.066 45.1808 120.254 45.1808C119.454 45.1808 118.762 45.0093 118.179 44.6664C117.585 44.3234 117.053 43.9233 116.584 43.4661C116.104 43.0088 115.636 42.6087 115.178 42.2658C114.71 41.9228 114.207 41.7513 113.669 41.7513C112.926 41.7513 112.286 42.0314 111.749 42.5916C111.212 43.1403 110.72 43.8262 110.274 44.6492L108.217 43.6376C108.559 42.9631 108.965 42.2886 109.434 41.6142C109.903 40.9397 110.491 40.3796 111.2 39.9337C111.897 39.4879 112.755 39.265 113.772 39.265C114.63 39.265 115.361 39.4365 115.967 39.7794C116.562 40.1223 117.093 40.5225 117.562 40.9797C118.031 41.437 118.482 41.8371 118.916 42.18C119.351 42.523 119.831 42.6944 120.357 42.6944C120.883 42.6944 121.363 42.523 121.797 42.18C122.22 41.8371 122.66 41.437 123.118 40.9797C123.563 40.5225 124.084 40.1223 124.678 39.7794C125.272 39.4365 126.004 39.265 126.873 39.265C127.73 39.265 128.456 39.4365 129.051 39.7794C129.656 40.1223 130.194 40.5225 130.662 40.9797C131.131 41.437 131.583 41.8371 132.017 42.18C132.451 42.523 132.932 42.6944 133.457 42.6944C134.166 42.6944 134.801 42.4144 135.361 41.8542C135.921 41.2941 136.418 40.6025 136.853 39.7794Z"/>
</mask>
<path d="M136.853 39.7794L138.91 40.8425C138.579 41.4941 138.173 42.1572 137.693 42.8316C137.213 43.4947 136.624 44.0548 135.927 44.5121C135.229 44.9579 134.372 45.1808 133.355 45.1808C132.554 45.1808 131.857 45.0093 131.263 44.6664C130.68 44.3234 130.148 43.9233 129.668 43.4661C129.199 43.0088 128.73 42.6087 128.262 42.2658C127.805 41.9228 127.307 41.7513 126.77 41.7513C126.233 41.7513 125.735 41.9228 125.278 42.2658C124.821 42.6087 124.358 43.0088 123.889 43.4661C123.432 43.9233 122.918 44.3234 122.346 44.6664C121.763 45.0093 121.066 45.1808 120.254 45.1808C119.454 45.1808 118.762 45.0093 118.179 44.6664C117.585 44.3234 117.053 43.9233 116.584 43.4661C116.104 43.0088 115.636 42.6087 115.178 42.2658C114.71 41.9228 114.207 41.7513 113.669 41.7513C112.926 41.7513 112.286 42.0314 111.749 42.5916C111.212 43.1403 110.72 43.8262 110.274 44.6492L108.217 43.6376C108.559 42.9631 108.965 42.2886 109.434 41.6142C109.903 40.9397 110.491 40.3796 111.2 39.9337C111.897 39.4879 112.755 39.265 113.772 39.265C114.63 39.265 115.361 39.4365 115.967 39.7794C116.562 40.1223 117.093 40.5225 117.562 40.9797C118.031 41.437 118.482 41.8371 118.916 42.18C119.351 42.523 119.831 42.6944 120.357 42.6944C120.883 42.6944 121.363 42.523 121.797 42.18C122.22 41.8371 122.66 41.437 123.118 40.9797C123.563 40.5225 124.084 40.1223 124.678 39.7794C125.272 39.4365 126.004 39.265 126.873 39.265C127.73 39.265 128.456 39.4365 129.051 39.7794C129.656 40.1223 130.194 40.5225 130.662 40.9797C131.131 41.437 131.583 41.8371 132.017 42.18C132.451 42.523 132.932 42.6944 133.457 42.6944C134.166 42.6944 134.801 42.4144 135.361 41.8542C135.921 41.2941 136.418 40.6025 136.853 39.7794Z" fill="#FFE2EC"/>
<path d="M136.853 39.7794L137.099 39.3033L136.627 39.0595L136.379 39.5293L136.853 39.7794ZM138.91 40.8425L139.388 41.0855L139.629 40.6109L139.156 40.3665L138.91 40.8425ZM137.693 42.8316L138.127 43.1459L138.129 43.1424L137.693 42.8316ZM135.927 44.5121L136.215 44.9636L136.22 44.9602L135.927 44.5121ZM131.263 44.6664L130.991 45.1283L130.995 45.1305L131.263 44.6664ZM129.668 43.4661L129.294 43.8497L129.298 43.8541L129.668 43.4661ZM128.262 42.2658L127.94 42.6945L127.945 42.6982L128.262 42.2658ZM125.278 42.2658L124.957 41.8371L124.957 41.8371L125.278 42.2658ZM123.889 43.4661L123.515 43.0825L123.51 43.0872L123.889 43.4661ZM122.346 44.6664L122.618 45.1283L122.622 45.1259L122.346 44.6664ZM118.179 44.6664L118.451 44.2045L118.447 44.2022L118.179 44.6664ZM116.584 43.4661L116.959 43.0825L116.954 43.078L116.584 43.4661ZM115.178 42.2658L115.5 41.8371L115.495 41.8333L115.178 42.2658ZM111.749 42.5916L112.132 42.9665L112.136 42.9625L111.749 42.5916ZM110.274 44.6492L110.038 45.1301L110.5 45.3574L110.745 44.9045L110.274 44.6492ZM108.217 43.6376L107.739 43.3947L107.493 43.8788L107.98 44.1184L108.217 43.6376ZM111.2 39.9337L111.485 40.3873L111.489 40.3852L111.2 39.9337ZM115.967 39.7794L116.235 39.3152L116.231 39.3131L115.967 39.7794ZM118.916 42.18L119.249 41.7594L119.249 41.7594L118.916 42.18ZM121.797 42.18L122.129 42.6006L122.135 42.5963L121.797 42.18ZM123.118 40.9797L123.497 41.3586L123.501 41.3538L123.118 40.9797ZM124.678 39.7794L124.946 40.2435L124.946 40.2435L124.678 39.7794ZM129.051 39.7794L128.783 40.2436L128.787 40.2457L129.051 39.7794ZM130.662 40.9797L131.037 40.5962L131.037 40.5962L130.662 40.9797ZM132.017 42.18L132.349 41.7594L132.349 41.7594L132.017 42.18ZM135.361 41.8542L134.982 41.4753L134.982 41.4753L135.361 41.8542ZM136.607 40.2555L138.664 41.3186L139.156 40.3665L137.099 39.3033L136.607 40.2555ZM138.433 40.5995C138.115 41.2247 137.723 41.8652 137.256 42.5209L138.129 43.1424C138.623 42.4491 139.043 41.7635 139.388 41.0855L138.433 40.5995ZM137.259 42.5173C136.818 43.1266 136.277 43.6417 135.633 44.064L136.22 44.9602C136.971 44.4679 137.608 43.8627 138.127 43.1459L137.259 42.5173ZM135.638 44.0606C135.045 44.4399 134.293 44.645 133.355 44.645V45.7167C134.451 45.7167 135.414 45.4759 136.215 44.9635L135.638 44.0606ZM133.355 44.645C132.633 44.645 132.031 44.4909 131.53 44.2022L130.995 45.1305C131.683 45.5278 132.476 45.7167 133.355 45.7167V44.645ZM131.534 44.2045C130.986 43.8819 130.487 43.5065 130.037 43.078L129.298 43.8541C129.809 44.3402 130.373 44.7649 130.991 45.1283L131.534 44.2045ZM130.042 43.0825C129.558 42.6098 129.07 42.1929 128.578 41.8333L127.945 42.6982C128.391 43.0245 128.841 43.4078 129.294 43.8496L130.042 43.0825ZM128.583 41.8371C128.04 41.4293 127.431 41.2155 126.77 41.2155V42.2872C127.184 42.2872 127.569 42.4163 127.94 42.6944L128.583 41.8371ZM126.77 41.2155C126.109 41.2155 125.5 41.4293 124.957 41.8371L125.6 42.6944C125.97 42.4163 126.356 42.2872 126.77 42.2872V41.2155ZM124.957 41.8371C124.478 42.1957 123.998 42.6114 123.515 43.0825L124.263 43.8496C124.718 43.4063 125.163 43.0217 125.6 42.6944L124.957 41.8371ZM123.51 43.0872C123.085 43.5125 122.605 43.8858 122.07 44.2069L122.622 45.1259C123.23 44.7611 123.779 44.3342 124.268 43.845L123.51 43.0872ZM122.074 44.2045C121.589 44.4902 120.989 44.645 120.254 44.645V45.7167C121.142 45.7167 121.937 45.5285 122.618 45.1283L122.074 44.2045ZM120.254 44.645C119.532 44.645 118.938 44.4908 118.451 44.2045L117.907 45.1283C118.587 45.5279 119.376 45.7167 120.254 45.7167V44.645ZM118.447 44.2022C117.889 43.8805 117.394 43.5071 116.959 43.0825L116.21 43.8496C116.712 44.3396 117.28 44.7663 117.911 45.1305L118.447 44.2022ZM116.954 43.078C116.461 42.6085 115.976 42.1944 115.5 41.8371L114.857 42.6944C115.295 43.023 115.748 43.4091 116.215 43.8541L116.954 43.078ZM115.495 41.8333C114.942 41.4289 114.33 41.2155 113.669 41.2155V42.2872C114.084 42.2872 114.477 42.4167 114.862 42.6982L115.495 41.8333ZM113.669 41.2155C112.773 41.2155 111.995 41.5604 111.362 42.2206L112.136 42.9625C112.577 42.5024 113.079 42.2872 113.669 42.2872V41.2155ZM111.366 42.2167C110.787 42.8077 110.268 43.5364 109.803 44.394L110.745 44.9045C111.172 44.116 111.636 43.4728 112.132 42.9665L111.366 42.2167ZM110.511 44.1684L108.453 43.1567L107.98 44.1184L110.038 45.1301L110.511 44.1684ZM108.694 43.8804C109.025 43.2295 109.418 42.576 109.874 41.92L108.994 41.3084C108.512 42.0012 108.094 42.6967 107.739 43.3947L108.694 43.8804ZM109.874 41.92C110.301 41.3058 110.837 40.7955 111.485 40.3873L110.915 39.4801C110.146 39.9636 109.505 40.5736 108.994 41.3084L109.874 41.92ZM111.489 40.3852C112.082 40.0059 112.834 39.8008 113.772 39.8008V38.7291C112.676 38.7291 111.713 38.9699 110.912 39.4823L111.489 40.3852ZM113.772 39.8008C114.558 39.8008 115.194 39.9578 115.703 40.2457L116.231 39.3131C115.528 38.9151 114.701 38.7291 113.772 38.7291V39.8008ZM115.699 40.2435C116.257 40.5652 116.752 40.9387 117.188 41.3633L117.936 40.5962C117.434 40.1062 116.866 39.6794 116.235 39.3153L115.699 40.2435ZM117.188 41.3633C117.667 41.8313 118.133 42.2442 118.584 42.6006L119.249 41.7594C118.831 41.43 118.394 41.0426 117.936 40.5962L117.188 41.3633ZM118.584 42.6006C119.108 43.014 119.704 43.2303 120.357 43.2303V42.1586C119.958 42.1586 119.594 42.0319 119.249 41.7594L118.584 42.6006ZM120.357 43.2303C121.01 43.2303 121.606 43.014 122.129 42.6006L121.465 41.7594C121.12 42.0319 120.756 42.1586 120.357 42.1586V43.2303ZM122.135 42.5963C122.574 42.2397 123.028 41.8267 123.496 41.3586L122.739 40.6008C122.292 41.0473 121.866 41.4345 121.46 41.7638L122.135 42.5963ZM123.501 41.3538C123.91 40.9342 124.391 40.5638 124.946 40.2435L124.41 39.3153C123.776 39.6809 123.217 40.1107 122.734 40.6056L123.501 41.3538ZM124.946 40.2435C125.44 39.9585 126.073 39.8008 126.873 39.8008V38.7291C125.935 38.7291 125.105 38.9144 124.41 39.3153L124.946 40.2435ZM126.873 39.8008C127.659 39.8008 128.288 39.9579 128.783 40.2435L129.318 39.3153C128.625 38.915 127.801 38.7291 126.873 38.7291V39.8008ZM128.787 40.2457C129.355 40.5674 129.855 40.9402 130.288 41.3633L131.037 40.5962C130.533 40.1047 129.958 39.6773 129.315 39.3131L128.787 40.2457ZM130.288 41.3633C130.768 41.8313 131.234 42.2442 131.685 42.6006L132.349 41.7594C131.932 41.43 131.494 41.0426 131.037 40.5962L130.288 41.3633ZM131.685 42.6006C132.209 43.014 132.804 43.2303 133.457 43.2303V42.1586C133.059 42.1586 132.694 42.0319 132.349 41.7594L131.685 42.6006ZM133.457 43.2303C134.326 43.2303 135.092 42.8808 135.74 42.2331L134.982 41.4753C134.509 41.9479 134.007 42.1586 133.457 42.1586V43.2303ZM135.74 42.2331C136.344 41.6291 136.871 40.892 137.326 40.0295L136.379 39.5293C135.965 40.313 135.498 40.9591 134.982 41.4753L135.74 42.2331Z" fill="#EF5A92" mask="url(#path-4-outside-2_630_14438)"/>
<mask id="path-6-outside-3_630_14438" maskUnits="userSpaceOnUse" x="107" y="118" width="33" height="8" fill="black">
<rect fill="white" x="107" y="118" width="33" height="8"/>
<path d="M136.853 119.779L138.91 120.843C138.579 121.494 138.173 122.157 137.693 122.832C137.213 123.495 136.624 124.055 135.927 124.512C135.229 124.958 134.372 125.181 133.355 125.181C132.554 125.181 131.857 125.009 131.263 124.666C130.68 124.323 130.148 123.923 129.668 123.466C129.199 123.009 128.73 122.609 128.262 122.266C127.805 121.923 127.307 121.751 126.77 121.751C126.233 121.751 125.735 121.923 125.278 122.266C124.821 122.609 124.358 123.009 123.889 123.466C123.432 123.923 122.918 124.323 122.346 124.666C121.763 125.009 121.066 125.181 120.254 125.181C119.454 125.181 118.762 125.009 118.179 124.666C117.585 124.323 117.053 123.923 116.584 123.466C116.104 123.009 115.636 122.609 115.178 122.266C114.71 121.923 114.207 121.751 113.669 121.751C112.926 121.751 112.286 122.031 111.749 122.592C111.212 123.14 110.72 123.826 110.274 124.649L108.217 123.638C108.559 122.963 108.965 122.289 109.434 121.614C109.903 120.94 110.491 120.38 111.2 119.934C111.897 119.488 112.755 119.265 113.772 119.265C114.63 119.265 115.361 119.436 115.967 119.779C116.562 120.122 117.093 120.522 117.562 120.98C118.031 121.437 118.482 121.837 118.916 122.18C119.351 122.523 119.831 122.694 120.357 122.694C120.883 122.694 121.363 122.523 121.797 122.18C122.22 121.837 122.66 121.437 123.118 120.98C123.563 120.522 124.084 120.122 124.678 119.779C125.272 119.436 126.004 119.265 126.873 119.265C127.73 119.265 128.456 119.436 129.051 119.779C129.656 120.122 130.194 120.522 130.662 120.98C131.131 121.437 131.583 121.837 132.017 122.18C132.451 122.523 132.932 122.694 133.457 122.694C134.166 122.694 134.801 122.414 135.361 121.854C135.921 121.294 136.418 120.602 136.853 119.779Z"/>
</mask>
<path d="M136.853 119.779L138.91 120.843C138.579 121.494 138.173 122.157 137.693 122.832C137.213 123.495 136.624 124.055 135.927 124.512C135.229 124.958 134.372 125.181 133.355 125.181C132.554 125.181 131.857 125.009 131.263 124.666C130.68 124.323 130.148 123.923 129.668 123.466C129.199 123.009 128.73 122.609 128.262 122.266C127.805 121.923 127.307 121.751 126.77 121.751C126.233 121.751 125.735 121.923 125.278 122.266C124.821 122.609 124.358 123.009 123.889 123.466C123.432 123.923 122.918 124.323 122.346 124.666C121.763 125.009 121.066 125.181 120.254 125.181C119.454 125.181 118.762 125.009 118.179 124.666C117.585 124.323 117.053 123.923 116.584 123.466C116.104 123.009 115.636 122.609 115.178 122.266C114.71 121.923 114.207 121.751 113.669 121.751C112.926 121.751 112.286 122.031 111.749 122.592C111.212 123.14 110.72 123.826 110.274 124.649L108.217 123.638C108.559 122.963 108.965 122.289 109.434 121.614C109.903 120.94 110.491 120.38 111.2 119.934C111.897 119.488 112.755 119.265 113.772 119.265C114.63 119.265 115.361 119.436 115.967 119.779C116.562 120.122 117.093 120.522 117.562 120.98C118.031 121.437 118.482 121.837 118.916 122.18C119.351 122.523 119.831 122.694 120.357 122.694C120.883 122.694 121.363 122.523 121.797 122.18C122.22 121.837 122.66 121.437 123.118 120.98C123.563 120.522 124.084 120.122 124.678 119.779C125.272 119.436 126.004 119.265 126.873 119.265C127.73 119.265 128.456 119.436 129.051 119.779C129.656 120.122 130.194 120.522 130.662 120.98C131.131 121.437 131.583 121.837 132.017 122.18C132.451 122.523 132.932 122.694 133.457 122.694C134.166 122.694 134.801 122.414 135.361 121.854C135.921 121.294 136.418 120.602 136.853 119.779Z" fill="#FFE2EC"/>
<path d="M136.853 119.779L137.099 119.303L136.627 119.06L136.379 119.529L136.853 119.779ZM138.91 120.843L139.388 121.086L139.629 120.611L139.156 120.366L138.91 120.843ZM137.693 122.832L138.127 123.146L138.129 123.142L137.693 122.832ZM135.927 124.512L136.215 124.964L136.22 124.96L135.927 124.512ZM131.263 124.666L130.991 125.128L130.995 125.131L131.263 124.666ZM129.668 123.466L129.294 123.85L129.298 123.854L129.668 123.466ZM128.262 122.266L127.94 122.694L127.945 122.698L128.262 122.266ZM125.278 122.266L124.957 121.837L124.957 121.837L125.278 122.266ZM123.889 123.466L123.515 123.082L123.51 123.087L123.889 123.466ZM122.346 124.666L122.618 125.128L122.622 125.126L122.346 124.666ZM118.179 124.666L118.451 124.205L118.447 124.202L118.179 124.666ZM116.584 123.466L116.959 123.082L116.954 123.078L116.584 123.466ZM115.178 122.266L115.5 121.837L115.495 121.833L115.178 122.266ZM111.749 122.592L112.132 122.966L112.136 122.962L111.749 122.592ZM110.274 124.649L110.038 125.13L110.5 125.357L110.745 124.904L110.274 124.649ZM108.217 123.638L107.739 123.395L107.493 123.879L107.98 124.118L108.217 123.638ZM111.2 119.934L111.485 120.387L111.489 120.385L111.2 119.934ZM115.967 119.779L116.235 119.315L116.231 119.313L115.967 119.779ZM118.916 122.18L119.249 121.759L119.249 121.759L118.916 122.18ZM121.797 122.18L122.129 122.601L122.135 122.596L121.797 122.18ZM123.118 120.98L123.497 121.359L123.501 121.354L123.118 120.98ZM124.678 119.779L124.946 120.244L124.946 120.244L124.678 119.779ZM129.051 119.779L128.783 120.244L128.787 120.246L129.051 119.779ZM130.662 120.98L131.037 120.596L131.037 120.596L130.662 120.98ZM132.017 122.18L132.349 121.759L132.349 121.759L132.017 122.18ZM135.361 121.854L134.982 121.475L134.982 121.475L135.361 121.854ZM136.607 120.255L138.664 121.319L139.156 120.366L137.099 119.303L136.607 120.255ZM138.433 120.6C138.115 121.225 137.723 121.865 137.256 122.521L138.129 123.142C138.623 122.449 139.043 121.764 139.388 121.086L138.433 120.6ZM137.259 122.517C136.818 123.127 136.277 123.642 135.633 124.064L136.22 124.96C136.971 124.468 137.608 123.863 138.127 123.146L137.259 122.517ZM135.638 124.061C135.045 124.44 134.293 124.645 133.355 124.645V125.717C134.451 125.717 135.414 125.476 136.215 124.964L135.638 124.061ZM133.355 124.645C132.633 124.645 132.031 124.491 131.53 124.202L130.995 125.131C131.683 125.528 132.476 125.717 133.355 125.717V124.645ZM131.534 124.205C130.986 123.882 130.487 123.506 130.037 123.078L129.298 123.854C129.809 124.34 130.373 124.765 130.991 125.128L131.534 124.205ZM130.042 123.083C129.558 122.61 129.07 122.193 128.578 121.833L127.945 122.698C128.391 123.025 128.841 123.408 129.294 123.85L130.042 123.083ZM128.583 121.837C128.04 121.429 127.431 121.215 126.77 121.215V122.287C127.184 122.287 127.569 122.416 127.94 122.694L128.583 121.837ZM126.77 121.215C126.109 121.215 125.5 121.429 124.957 121.837L125.6 122.694C125.97 122.416 126.356 122.287 126.77 122.287V121.215ZM124.957 121.837C124.478 122.196 123.998 122.611 123.515 123.083L124.263 123.85C124.718 123.406 125.163 123.022 125.6 122.694L124.957 121.837ZM123.51 123.087C123.085 123.513 122.605 123.886 122.07 124.207L122.622 125.126C123.23 124.761 123.779 124.334 124.268 123.845L123.51 123.087ZM122.074 124.205C121.589 124.49 120.989 124.645 120.254 124.645V125.717C121.142 125.717 121.937 125.529 122.618 125.128L122.074 124.205ZM120.254 124.645C119.532 124.645 118.938 124.491 118.451 124.205L117.907 125.128C118.587 125.528 119.376 125.717 120.254 125.717V124.645ZM118.447 124.202C117.889 123.881 117.394 123.507 116.959 123.083L116.21 123.85C116.712 124.34 117.28 124.766 117.911 125.131L118.447 124.202ZM116.954 123.078C116.461 122.609 115.976 122.194 115.5 121.837L114.857 122.694C115.295 123.023 115.748 123.409 116.215 123.854L116.954 123.078ZM115.495 121.833C114.942 121.429 114.33 121.215 113.669 121.215V122.287C114.084 122.287 114.477 122.417 114.862 122.698L115.495 121.833ZM113.669 121.215C112.773 121.215 111.995 121.56 111.362 122.221L112.136 122.962C112.577 122.502 113.079 122.287 113.669 122.287V121.215ZM111.366 122.217C110.787 122.808 110.268 123.536 109.803 124.394L110.745 124.904C111.172 124.116 111.636 123.473 112.132 122.966L111.366 122.217ZM110.511 124.168L108.453 123.157L107.98 124.118L110.038 125.13L110.511 124.168ZM108.694 123.88C109.025 123.23 109.418 122.576 109.874 121.92L108.994 121.308C108.512 122.001 108.094 122.697 107.739 123.395L108.694 123.88ZM109.874 121.92C110.301 121.306 110.837 120.796 111.485 120.387L110.915 119.48C110.146 119.964 109.505 120.574 108.994 121.308L109.874 121.92ZM111.489 120.385C112.082 120.006 112.834 119.801 113.772 119.801V118.729C112.676 118.729 111.713 118.97 110.912 119.482L111.489 120.385ZM113.772 119.801C114.558 119.801 115.194 119.958 115.703 120.246L116.231 119.313C115.528 118.915 114.701 118.729 113.772 118.729V119.801ZM115.699 120.244C116.257 120.565 116.752 120.939 117.188 121.363L117.936 120.596C117.434 120.106 116.866 119.679 116.235 119.315L115.699 120.244ZM117.188 121.363C117.667 121.831 118.133 122.244 118.584 122.601L119.249 121.759C118.831 121.43 118.394 121.043 117.936 120.596L117.188 121.363ZM118.584 122.601C119.108 123.014 119.704 123.23 120.357 123.23V122.159C119.958 122.159 119.594 122.032 119.249 121.759L118.584 122.601ZM120.357 123.23C121.01 123.23 121.606 123.014 122.129 122.601L121.465 121.759C121.12 122.032 120.756 122.159 120.357 122.159V123.23ZM122.135 122.596C122.574 122.24 123.028 121.827 123.496 121.359L122.739 120.601C122.292 121.047 121.866 121.434 121.46 121.764L122.135 122.596ZM123.501 121.354C123.91 120.934 124.391 120.564 124.946 120.244L124.41 119.315C123.776 119.681 123.217 120.111 122.734 120.606L123.501 121.354ZM124.946 120.244C125.44 119.959 126.073 119.801 126.873 119.801V118.729C125.935 118.729 125.105 118.914 124.41 119.315L124.946 120.244ZM126.873 119.801C127.659 119.801 128.288 119.958 128.783 120.244L129.318 119.315C128.625 118.915 127.801 118.729 126.873 118.729V119.801ZM128.787 120.246C129.355 120.567 129.855 120.94 130.288 121.363L131.037 120.596C130.533 120.105 129.958 119.677 129.315 119.313L128.787 120.246ZM130.288 121.363C130.768 121.831 131.234 122.244 131.685 122.601L132.349 121.759C131.932 121.43 131.494 121.043 131.037 120.596L130.288 121.363ZM131.685 122.601C132.209 123.014 132.804 123.23 133.457 123.23V122.159C133.059 122.159 132.694 122.032 132.349 121.759L131.685 122.601ZM133.457 123.23C134.326 123.23 135.092 122.881 135.74 122.233L134.982 121.475C134.509 121.948 134.007 122.159 133.457 122.159V123.23ZM135.74 122.233C136.344 121.629 136.871 120.892 137.326 120.03L136.379 119.529C135.965 120.313 135.498 120.959 134.982 121.475L135.74 122.233Z" fill="#EF5A92" mask="url(#path-6-outside-3_630_14438)"/>
<rect x="13.2939" y="12.2939" width="27.0369" height="22.3348" rx="2.05716" fill="#FFE2EC" stroke="#FB5AA8" stroke-width="0.587759"/>
<rect x="43.8564" y="12.2939" width="26.8488" height="22.351" rx="2.05716" fill="#FFE2EC" stroke="#FB5AA8" stroke-width="0.587759"/>
<rect x="31.1438" y="15.2" width="2.11092" height="17.5871" rx="1.05546" transform="rotate(34 31.1438 15.2)" fill="#FB5AA8" stroke="#FB5AA8" stroke-width="0.587759"/>
<rect x="48.5595" y="24.9844" width="2.11092" height="17.5871" rx="1.05546" transform="rotate(-90 48.5595 24.9844)" fill="#FB5AA8" stroke="#FB5AA8" stroke-width="0.587759"/>
<rect x="21.4261" y="16.2803" width="2.11092" height="17.5871" rx="1.05546" transform="rotate(-33 21.4261 16.2803)" fill="#FB5AA8" stroke="#FB5AA8" stroke-width="0.587759"/>
<path d="M394.19 161V150.5H395.23L395.33 152.03C395.743 151.483 396.287 151.06 396.96 150.76C397.64 150.46 398.273 150.31 398.86 150.31C399.933 150.31 400.697 150.583 401.15 151.13C401.61 151.677 401.84 152.433 401.84 153.4V161H400.6V154.73C400.6 153.93 400.557 153.28 400.47 152.78C400.383 152.28 400.197 151.917 399.91 151.69C399.623 151.457 399.173 151.34 398.56 151.34C398.093 151.34 397.653 151.443 397.24 151.65C396.833 151.85 396.473 152.1 396.16 152.4C395.853 152.693 395.61 152.98 395.43 153.26V161H394.19ZM407.082 156.25C407.102 157.13 407.259 157.853 407.552 158.42C407.852 158.98 408.246 159.393 408.732 159.66C409.219 159.927 409.749 160.06 410.322 160.06C410.876 160.06 411.366 159.98 411.792 159.82C412.226 159.66 412.679 159.417 413.152 159.09L413.802 160.02C413.316 160.393 412.766 160.683 412.152 160.89C411.546 161.097 410.952 161.2 410.372 161.2C409.406 161.2 408.576 160.973 407.882 160.52C407.196 160.067 406.669 159.433 406.302 158.62C405.936 157.8 405.752 156.847 405.752 155.76C405.752 154.693 405.939 153.75 406.312 152.93C406.686 152.11 407.202 151.47 407.862 151.01C408.529 150.543 409.302 150.31 410.182 150.31C411.036 150.31 411.766 150.517 412.372 150.93C412.979 151.343 413.442 151.93 413.762 152.69C414.089 153.443 414.252 154.343 414.252 155.39C414.252 155.57 414.249 155.733 414.242 155.88C414.236 156.02 414.229 156.143 414.222 156.25H407.082ZM410.212 151.47C409.366 151.47 408.652 151.77 408.072 152.37C407.499 152.97 407.176 153.89 407.102 155.13H413.072C413.046 153.897 412.769 152.98 412.242 152.38C411.716 151.773 411.039 151.47 410.212 151.47ZM418.764 161H417.294L421.254 155.45L417.814 150.5H419.344L422.004 154.57L424.724 150.5H426.214L422.724 155.39L426.674 161H425.064L421.954 156.32L418.764 161ZM438.177 160.5C437.83 160.727 437.41 160.9 436.917 161.02C436.423 161.14 435.967 161.2 435.547 161.2C434.493 161.2 433.667 160.92 433.067 160.36C432.473 159.8 432.177 159.097 432.177 158.25V151.54H429.697V150.5H432.177V148.08L433.417 147.93V150.5H437.117L436.947 151.54H433.417V158.22C433.417 158.827 433.58 159.297 433.907 159.63C434.24 159.957 434.797 160.12 435.577 160.12C435.977 160.12 436.347 160.073 436.687 159.98C437.027 159.887 437.343 159.763 437.637 159.61L438.177 160.5Z" fill="#FB5AA8"/>
</svg>
