<svg width="627" height="283" viewBox="0 0 627 283" fill="none" xmlns="http://www.w3.org/2000/svg">
<rect x="0.5" y="0.5" width="626" height="282" rx="42.2111" fill="#FFE2EC" stroke="#18305A"/>
<path d="M566.615 239.176L564.417 242.045C563.196 243.638 563.074 245.816 564.109 247.536V247.536L565.088 248.753C566.244 250.191 567.606 251.451 569.129 252.491L569.466 252.721C570.549 253.461 571.722 254.062 572.955 254.508V254.508C574.24 254.972 575.581 255.265 576.942 255.379L577.447 255.422C578.627 255.521 579.814 255.512 580.992 255.394L583.315 255.163V255.163C585.319 255.059 587.056 253.74 587.694 251.837L588.843 248.41L566.615 239.176Z" fill="#E4FFF8" stroke="#18305A" stroke-width="1.61364"/>
<path d="M572.422 244.473C563.556 238.493 558.691 231.451 563.683 224.05C568.675 216.649 581.633 211.692 590.499 217.672C599.365 223.652 602.623 236.635 597.631 244.036C592.639 251.437 581.287 250.453 572.422 244.473Z" fill="#FFAAC7"/>
<path d="M573.621 246.455C572.912 247.588 571.523 248.181 570.767 247.708C570.011 247.236 569.655 245.21 570.363 244.076C571.071 242.943 572.692 242.662 573.447 243.134C574.203 243.607 574.329 245.321 573.621 246.455Z" fill="#18305A"/>
<path d="M581.439 249.953C580.731 251.087 579.341 251.679 578.585 251.207C577.83 250.735 577.473 248.709 578.181 247.575C578.89 246.441 580.51 246.161 581.266 246.633C582.022 247.105 582.148 248.82 581.439 249.953Z" fill="#18305A"/>
<path d="M580.343 248.764C579.949 249.396 579.21 249.747 578.824 249.506C578.439 249.266 578.296 248.172 578.69 247.541C579.085 246.91 579.938 246.723 580.323 246.963C580.708 247.204 580.737 248.133 580.343 248.764Z" fill="white"/>
<path d="M572.511 244.838C572.117 245.469 571.377 245.821 570.992 245.58C570.607 245.339 570.464 244.246 570.858 243.614C571.253 242.983 572.106 242.796 572.491 243.037C572.876 243.278 572.905 244.207 572.511 244.838Z" fill="white"/>
<path d="M588.054 247.984C586.825 250.619 581.038 249.029 577 247.145C572.961 245.262 568.142 241.979 569.37 239.344C570.598 236.71 577.916 234.449 581.955 236.332C585.993 238.215 589.282 245.35 588.054 247.984Z" fill="#FF586C"/>
<path d="M565.159 234.727C562.297 234.222 560.897 231.791 562.032 227.226C563.65 223.368 566.565 219.092 569.588 220.701C572.45 221.206 574.247 224.422 573.474 228.81C572.7 233.198 568.022 235.232 565.159 234.727Z" fill="#FF586C"/>
<path d="M596.676 229.276C599.567 228.972 599.878 232.834 600.045 237.536C599.554 241.69 598.039 244.727 594.753 245.073C591.863 245.377 588.876 242.021 588.411 237.59C587.945 233.158 593.786 229.58 596.676 229.276Z" fill="#FF586C"/>
<path d="M576.253 216.739C577.389 214.064 583.467 214.313 587.569 216.054C591.671 217.795 596.363 222.047 595.227 224.722C594.091 227.398 586.857 229.913 582.755 228.172C578.653 226.431 575.117 219.415 576.253 216.739Z" fill="#FF586C"/>
</svg>
