<svg width="1440" height="320" viewBox="0 0 1440 320" fill="none" xmlns="http://www.w3.org/2000/svg">
<g clip-path="url(#clip0_685_2820)">
<path d="M619.78 228.986L613.652 259.207C611.042 272.078 616.457 285.252 627.364 292.568V292.568C628.786 293.521 630.281 294.36 631.835 295.078L641.331 299.461C653.864 305.246 667.164 309.2 680.822 311.202L684.124 311.687C693.951 313.127 703.919 313.319 713.794 312.259V312.259C724.077 311.155 734.171 308.701 743.814 304.961L759.951 298.702L787.5 283.5V283.5C800.301 275.354 807.224 260.53 805.254 245.485L801.66 218.052L619.78 228.986Z" fill="#E4FFF8" stroke="#18305A" stroke-width="12.2153"/>
<path d="M676.861 245.757C596.693 234.49 540.23 202.721 549.635 135.8C559.04 68.8791 630.752 -7.85289 710.92 3.414C791.088 14.6809 856.337 92.2101 846.931 159.131C837.526 226.052 757.029 257.024 676.861 245.757Z" fill="#FFAAC7"/>
<path d="M691.593 255.261C690.535 265.325 683.046 273.967 676.337 273.262C669.627 272.557 660.476 259.955 661.534 249.891C662.591 239.826 672.686 232.541 679.395 233.246C686.104 233.952 692.65 245.197 691.593 255.261Z" fill="#18305A"/>
<path d="M756.405 253.119C755.347 263.183 747.859 271.825 741.149 271.119C734.44 270.414 725.288 257.812 726.346 247.748C727.404 237.684 737.498 230.399 744.207 231.104C750.917 231.809 757.463 243.055 756.405 253.119Z" fill="#18305A"/>
<path d="M744.995 248.669C744.406 254.273 740.544 259.117 737.125 258.758C733.707 258.398 729.101 251.433 729.69 245.829C730.279 240.225 735.463 236.123 738.882 236.482C742.301 236.842 745.584 243.065 744.995 248.669Z" fill="white"/>
<path d="M678.683 247.942C678.094 253.546 674.232 258.39 670.813 258.031C667.394 257.672 662.788 250.706 663.377 245.102C663.966 239.499 669.151 235.396 672.569 235.756C675.988 236.115 679.272 242.339 678.683 247.942Z" fill="white"/>
<path d="M794.871 217.776C795.255 239.777 750.604 248.16 716.878 248.749C683.151 249.338 639.461 242.99 639.077 220.989C638.693 198.988 680.98 159.32 714.707 158.731C748.433 158.142 794.487 195.775 794.871 217.776Z" fill="#FF586C"/>
<path d="M595.107 203.546C573.956 209.611 556.365 197.714 548.939 162.884C547.14 131.268 552.79 92.5025 578.692 93.4183C599.844 87.3532 622.744 103.271 632.042 135.695C641.339 168.12 616.259 197.481 595.107 203.546Z" fill="#FF586C"/>
<path d="M791.456 61.8696C810.117 50.2092 825.047 75.4561 841.787 106.89C852.23 136.785 852.001 162.48 830.794 175.734C812.134 187.394 780.681 174.472 762.806 145.866C744.931 117.26 772.796 73.5299 791.456 61.8696Z" fill="#FF586C"/>
<path d="M610.889 44.3477C609.737 22.3738 651.919 3.89954 685.605 2.13417C719.29 0.368797 765.324 13.7256 766.475 35.6995C767.627 57.6733 726.75 98.7937 693.065 100.559C659.379 102.324 612.04 66.3215 610.889 44.3477Z" fill="#FF586C"/>
<ellipse cx="1147.88" cy="257.862" rx="15.8776" ry="22.2286" fill="#FE8CB3"/>
<ellipse cx="1274.9" cy="254.686" rx="19.0531" ry="22.2286" fill="#FE8CB3"/>
<ellipse cx="1249.5" cy="305.495" rx="31.7551" ry="15.8776" fill="#FE8CB3"/>
<ellipse cx="1170.11" cy="305.495" rx="31.7551" ry="15.8776" fill="#FE8CB3"/>
<circle cx="1211.39" cy="251.51" r="63.5103" fill="#FFAAC7"/>
<ellipse cx="1224.09" cy="238.808" rx="6.35103" ry="19.0531" fill="black"/>
<ellipse cx="1198.69" cy="238.808" rx="6.35103" ry="19.0531" fill="black"/>
<ellipse cx="1220.92" cy="227.694" rx="3.17551" ry="4.76327" fill="white"/>
<ellipse cx="1195.51" cy="227.694" rx="3.17551" ry="4.76327" fill="white"/>
<ellipse cx="378.878" cy="251.862" rx="15.8776" ry="22.2286" fill="#FE8CB3"/>
<ellipse cx="505.901" cy="248.686" rx="19.0531" ry="22.2286" fill="#FE8CB3"/>
<ellipse cx="480.495" cy="299.495" rx="31.7551" ry="15.8776" fill="#FE8CB3"/>
<ellipse cx="401.109" cy="299.495" rx="31.7551" ry="15.8776" fill="#FE8CB3"/>
<circle cx="442.387" cy="245.51" r="63.5103" fill="#FFAAC7"/>
<ellipse cx="455.091" cy="232.808" rx="6.35103" ry="19.0531" fill="black"/>
<ellipse cx="429.685" cy="232.808" rx="6.35103" ry="19.0531" fill="black"/>
<ellipse cx="451.916" cy="221.694" rx="3.17551" ry="4.76327" fill="white"/>
<ellipse cx="426.509" cy="221.694" rx="3.17551" ry="4.76327" fill="white"/>
<ellipse cx="66.9007" cy="248.686" rx="19.0531" ry="22.2286" fill="#FE8CB3"/>
<ellipse cx="41.4954" cy="299.495" rx="31.7551" ry="15.8776" fill="#FE8CB3"/>
<circle cx="3.38721" cy="245.51" r="63.5103" fill="#FFAAC7"/>
<ellipse cx="16.0913" cy="232.808" rx="6.35103" ry="19.0531" fill="black"/>
<ellipse cx="12.9157" cy="221.694" rx="3.17551" ry="4.76327" fill="white"/>
<ellipse cx="919.532" cy="256.457" rx="15.1593" ry="21.223" fill="#FE8CB3"/>
<ellipse cx="1040.81" cy="253.424" rx="18.1911" ry="21.223" fill="#FE8CB3"/>
<ellipse cx="1016.55" cy="301.935" rx="30.3186" ry="15.1593" fill="#FE8CB3"/>
<ellipse cx="940.76" cy="301.935" rx="30.3186" ry="15.1593" fill="#FE8CB3"/>
<circle cx="980.168" cy="250.392" r="60.6371" fill="#FFAAC7"/>
<ellipse cx="992.3" cy="238.264" rx="6.06371" ry="18.1911" fill="black"/>
<ellipse cx="968.042" cy="238.264" rx="6.06371" ry="18.1911" fill="black"/>
<ellipse cx="989.268" cy="227.654" rx="3.03186" ry="4.54778" fill="white"/>
<ellipse cx="965.01" cy="227.654" rx="3.03186" ry="4.54778" fill="white"/>
<path d="M907.988 245.931L917.351 247.06L920.446 160L917.785 162.155L914.643 165.648L911.785 170.199L905.161 182.789L901.286 194.737L899.212 203.536L897.655 213.931L894.072 236.117L904.66 240.517L907.033 242.543L907.988 245.931Z" fill="#858CA5" stroke="#6197FF" stroke-width="0.115141"/>
<path d="M899.261 283.805L903.679 277.451L904.012 265.727L905.775 257.407L907.905 245.83L917.223 247.027L915.257 283.82C915.205 284.807 915.021 285.783 914.711 286.722L914.596 287.07C914.154 288.41 913.42 289.635 912.448 290.657L911.703 291.439C910.863 292.322 909.775 292.93 908.582 293.183V293.183C907.014 293.517 905.378 293.214 904.033 292.34L903.731 292.144C902.455 291.315 901.487 290.089 900.979 288.654L899.261 283.805Z" fill="#441A1A" stroke="black" stroke-width="0.115141"/>
<path d="M902.22 191.654L904.951 183.187L918.818 205.783L918.406 216.583L902.22 191.654Z" fill="#A3AAC4"/>
<ellipse cx="1375.53" cy="256.457" rx="15.1593" ry="21.223" fill="#FE8CB3"/>
<ellipse cx="1396.76" cy="301.935" rx="30.3186" ry="15.1593" fill="#FE8CB3"/>
<circle cx="1436.17" cy="250.392" r="60.6371" fill="#FFAAC7"/>
<ellipse cx="1424.04" cy="238.264" rx="6.06371" ry="18.1911" fill="black"/>
<ellipse cx="1421.01" cy="227.654" rx="3.03186" ry="4.54778" fill="white"/>
<path d="M1363.99 245.931L1373.35 247.06L1376.45 160L1373.79 162.155L1370.64 165.648L1367.78 170.199L1361.16 182.789L1357.29 194.737L1355.21 203.536L1353.66 213.931L1350.07 236.117L1360.66 240.517L1363.03 242.543L1363.99 245.931Z" fill="#858CA5" stroke="#6197FF" stroke-width="0.115141"/>
<path d="M1355.26 283.805L1359.68 277.451L1360.01 265.727L1361.77 257.407L1363.9 245.83L1373.22 247.027L1371.26 283.82C1371.2 284.807 1371.02 285.783 1370.71 286.722L1370.6 287.07C1370.15 288.41 1369.42 289.635 1368.45 290.657L1367.7 291.439C1366.86 292.322 1365.77 292.93 1364.58 293.183V293.183C1363.01 293.517 1361.38 293.214 1360.03 292.34L1359.73 292.144C1358.45 291.315 1357.49 290.089 1356.98 288.654L1355.26 283.805Z" fill="#441A1A" stroke="black" stroke-width="0.115141"/>
<path d="M1358.22 191.654L1360.95 183.187L1374.82 205.783L1374.41 216.583L1358.22 191.654Z" fill="#A3AAC4"/>
<ellipse cx="167.532" cy="253.457" rx="15.1593" ry="21.223" fill="#FE8CB3"/>
<ellipse cx="288.81" cy="250.424" rx="18.1911" ry="21.223" fill="#FE8CB3"/>
<ellipse cx="264.555" cy="298.935" rx="30.3186" ry="15.1593" fill="#FE8CB3"/>
<ellipse cx="188.76" cy="298.935" rx="30.3186" ry="15.1593" fill="#FE8CB3"/>
<circle cx="228.168" cy="247.392" r="60.6371" fill="#FFAAC7"/>
<ellipse cx="240.3" cy="235.264" rx="6.06371" ry="18.1911" fill="black"/>
<ellipse cx="216.042" cy="235.264" rx="6.06371" ry="18.1911" fill="black"/>
<ellipse cx="237.268" cy="224.654" rx="3.03186" ry="4.54778" fill="white"/>
<ellipse cx="213.01" cy="224.654" rx="3.03186" ry="4.54778" fill="white"/>
<path d="M155.988 242.931L165.351 244.06L168.446 157L165.785 159.155L162.643 162.648L159.785 167.199L153.161 179.789L149.286 191.737L147.212 200.536L145.655 210.931L142.072 233.117L152.66 237.517L155.033 239.543L155.988 242.931Z" fill="#858CA5" stroke="#6197FF" stroke-width="0.115141"/>
<path d="M147.261 280.805L151.679 274.451L152.012 262.727L153.775 254.407L155.905 242.83L165.223 244.027L163.257 280.82C163.205 281.807 163.021 282.783 162.711 283.722L162.596 284.07C162.154 285.41 161.42 286.635 160.448 287.657L159.703 288.439C158.863 289.322 157.775 289.93 156.582 290.183V290.183C155.014 290.517 153.378 290.214 152.033 289.34L151.731 289.144C150.455 288.315 149.487 287.089 148.979 285.654L147.261 280.805Z" fill="#441A1A" stroke="black" stroke-width="0.115141"/>
<path d="M150.22 188.654L152.951 180.187L166.818 202.783L166.406 213.583L150.22 188.654Z" fill="#A3AAC4"/>
</g>
<defs>
<clipPath id="clip0_685_2820">
<rect width="1440" height="320" fill="white"/>
</clipPath>
</defs>
</svg>
