<svg width="477" height="787" viewBox="0 0 477 787" fill="none" xmlns="http://www.w3.org/2000/svg">
<g clip-path="url(#clip0_684_2721)">
<mask id="path-1-outside-1_684_2721" maskUnits="userSpaceOnUse" x="91.5967" y="416.706" width="106.597" height="65.0391" fill="black">
<rect fill="white" x="91.5967" y="416.706" width="106.597" height="65.0391"/>
<path d="M102.325 439.005L97.62 433.127C99.4661 431.63 101.548 430.198 103.866 428.829C106.168 427.495 108.657 426.61 111.333 426.174C113.993 425.772 116.834 426.244 119.855 427.589C122.232 428.647 124.076 430.078 125.388 431.883C126.666 433.672 127.715 435.563 128.536 437.556C129.324 439.534 130.187 441.341 131.125 442.98C132.03 444.603 133.28 445.769 134.875 446.48C136.471 447.19 138.174 447.339 139.986 446.925C141.797 446.511 143.701 445.935 145.697 445.196C147.66 444.443 149.717 443.935 151.868 443.672C154.052 443.425 156.35 443.838 158.76 444.911C161.137 445.969 162.964 447.392 164.242 449.182C165.554 450.986 166.603 452.877 167.391 454.855C168.212 456.848 169.075 458.656 169.979 460.279C170.918 461.917 172.185 463.091 173.78 463.802C175.987 464.784 178.258 464.799 180.595 463.846C182.916 462.926 185.282 461.539 187.695 459.685L192.468 465.41C190.558 466.959 188.461 468.426 186.177 469.809C183.893 471.192 181.404 472.077 178.71 472.464C176.05 472.866 173.209 472.395 170.187 471.049C167.641 469.916 165.695 468.439 164.349 466.62C163.037 464.815 161.988 462.924 161.201 460.946C160.413 458.969 159.601 457.184 158.765 455.591C157.928 453.998 156.729 452.854 155.167 452.159C153.606 451.463 151.953 451.338 150.21 451.782C148.5 452.241 146.664 452.847 144.701 453.601C142.773 454.369 140.699 454.87 138.48 455.102C136.262 455.334 133.862 454.876 131.282 453.728C128.736 452.594 126.807 451.125 125.495 449.321C124.149 447.501 123.083 445.602 122.295 443.625C121.508 441.647 120.696 439.862 119.86 438.269C119.023 436.676 117.824 435.532 116.262 434.837C114.157 433.9 111.903 433.893 109.499 434.815C107.095 435.738 104.703 437.135 102.325 439.005Z"/>
</mask>
<path d="M102.325 439.005L97.62 433.127C99.4661 431.63 101.548 430.198 103.866 428.829C106.168 427.495 108.657 426.61 111.333 426.174C113.993 425.772 116.834 426.244 119.855 427.589C122.232 428.647 124.076 430.078 125.388 431.883C126.666 433.672 127.715 435.563 128.536 437.556C129.324 439.534 130.187 441.341 131.125 442.98C132.03 444.603 133.28 445.769 134.875 446.48C136.471 447.19 138.174 447.339 139.986 446.925C141.797 446.511 143.701 445.935 145.697 445.196C147.66 444.443 149.717 443.935 151.868 443.672C154.052 443.425 156.35 443.838 158.76 444.911C161.137 445.969 162.964 447.392 164.242 449.182C165.554 450.986 166.603 452.877 167.391 454.855C168.212 456.848 169.075 458.656 169.979 460.279C170.918 461.917 172.185 463.091 173.78 463.802C175.987 464.784 178.258 464.799 180.595 463.846C182.916 462.926 185.282 461.539 187.695 459.685L192.468 465.41C190.558 466.959 188.461 468.426 186.177 469.809C183.893 471.192 181.404 472.077 178.71 472.464C176.05 472.866 173.209 472.395 170.187 471.049C167.641 469.916 165.695 468.439 164.349 466.62C163.037 464.815 161.988 462.924 161.201 460.946C160.413 458.969 159.601 457.184 158.765 455.591C157.928 453.998 156.729 452.854 155.167 452.159C153.606 451.463 151.953 451.338 150.21 451.782C148.5 452.241 146.664 452.847 144.701 453.601C142.773 454.369 140.699 454.87 138.48 455.102C136.262 455.334 133.862 454.876 131.282 453.728C128.736 452.594 126.807 451.125 125.495 449.321C124.149 447.501 123.083 445.602 122.295 443.625C121.508 441.647 120.696 439.862 119.86 438.269C119.023 436.676 117.824 435.532 116.262 434.837C114.157 433.9 111.903 433.893 109.499 434.815C107.095 435.738 104.703 437.135 102.325 439.005Z" fill="#FFE2EC"/>
<path d="M102.325 439.005L100.965 440.093L102.044 441.441L103.402 440.374L102.325 439.005ZM97.62 433.127L96.523 431.774L95.1783 432.864L96.2601 434.215L97.62 433.127ZM103.866 428.829L102.992 427.322L102.98 427.329L103.866 428.829ZM111.333 426.174L111.072 424.452L111.062 424.453L111.052 424.455L111.333 426.174ZM125.388 431.883L126.805 430.87L126.801 430.864L126.797 430.858L125.388 431.883ZM128.536 437.556L130.155 436.912L130.151 436.902L130.147 436.892L128.536 437.556ZM131.125 442.98L132.647 442.132L132.642 442.123L132.637 442.114L131.125 442.98ZM139.986 446.925L140.374 448.623L140.374 448.623L139.986 446.925ZM145.697 445.196L146.302 446.83L146.312 446.827L146.322 446.823L145.697 445.196ZM151.868 443.672L151.671 441.942L151.664 441.942L151.656 441.943L151.868 443.672ZM164.242 449.182L162.824 450.194L162.829 450.2L162.833 450.206L164.242 449.182ZM167.391 454.855L165.772 455.499L165.776 455.509L165.78 455.519L167.391 454.855ZM169.979 460.279L168.458 461.127L168.463 461.136L168.468 461.145L169.979 460.279ZM180.595 463.846L179.953 462.226L179.945 462.229L179.937 462.233L180.595 463.846ZM187.695 459.685L189.033 458.569L187.96 457.283L186.633 458.304L187.695 459.685ZM192.468 465.41L193.565 466.763L194.936 465.65L193.806 464.294L192.468 465.41ZM178.71 472.464L178.462 470.74L178.45 470.742L178.71 472.464ZM164.349 466.62L162.94 467.644L162.945 467.65L162.949 467.655L164.349 466.62ZM158.765 455.591L157.223 456.401L157.223 456.401L158.765 455.591ZM150.21 451.782L149.78 450.094L149.769 450.097L149.758 450.099L150.21 451.782ZM144.701 453.601L144.077 451.974L144.067 451.978L144.057 451.982L144.701 453.601ZM138.48 455.102L138.299 453.37L138.299 453.37L138.48 455.102ZM125.495 449.321L126.904 448.296L126.9 448.29L126.896 448.285L125.495 449.321ZM122.295 443.625L120.677 444.269L120.677 444.269L122.295 443.625ZM119.86 438.269L118.317 439.079L118.317 439.079L119.86 438.269ZM109.499 434.815L110.123 436.442L110.123 436.442L109.499 434.815ZM103.685 437.916L98.9799 432.038L96.2601 434.215L100.965 440.093L103.685 437.916ZM98.7171 434.48C100.488 433.044 102.498 431.66 104.751 430.329L102.98 427.329C100.598 428.736 98.4439 430.216 96.523 431.774L98.7171 434.48ZM104.739 430.337C106.855 429.111 109.142 428.296 111.613 427.893L111.052 424.455C108.172 424.924 105.481 425.88 102.992 427.322L104.739 430.337ZM111.593 427.897C113.856 427.555 116.359 427.939 119.147 429.18L120.564 425.998C117.308 424.548 114.13 423.99 111.072 424.452L111.593 427.897ZM119.147 429.18C121.291 430.135 122.874 431.388 123.979 432.907L126.797 430.858C125.277 428.768 123.172 427.159 120.564 425.998L119.147 429.18ZM123.97 432.895C125.172 434.578 126.156 436.353 126.926 438.22L130.147 436.892C129.274 434.774 128.159 432.766 126.805 430.87L123.97 432.895ZM126.918 438.2C127.732 440.245 128.629 442.128 129.614 443.846L132.637 442.114C131.744 440.555 130.916 438.822 130.155 436.912L126.918 438.2ZM129.603 443.828C130.679 445.758 132.204 447.197 134.167 448.071L135.584 444.888C134.355 444.341 133.38 443.448 132.647 442.132L129.603 443.828ZM134.167 448.071C136.129 448.945 138.22 449.115 140.374 448.623L139.598 445.226C138.129 445.562 136.812 445.435 135.584 444.888L134.167 448.071ZM140.374 448.623C142.268 448.19 144.244 447.591 146.302 446.83L145.093 443.563C143.157 444.278 141.326 444.832 139.598 445.226L140.374 448.623ZM146.322 446.823C148.147 446.122 150.065 445.647 152.079 445.401L151.656 441.943C149.369 442.223 147.173 442.764 145.073 443.57L146.322 446.823ZM152.064 445.403C153.883 445.197 155.868 445.53 158.052 446.502L159.469 443.319C156.832 442.145 154.221 441.653 151.671 441.942L152.064 445.403ZM158.052 446.502C160.197 447.457 161.758 448.7 162.824 450.194L165.659 448.169C164.17 446.084 162.077 444.48 159.469 443.319L158.052 446.502ZM162.833 450.206C164.064 451.899 165.041 453.663 165.772 455.499L169.009 454.211C168.166 452.092 167.044 450.074 165.651 448.157L162.833 450.206ZM165.78 455.519C166.623 457.565 167.515 459.435 168.458 461.127L171.501 459.431C170.634 457.876 169.8 456.131 169.001 454.191L165.78 455.519ZM168.468 461.145C169.574 463.076 171.111 464.52 173.072 465.393L174.489 462.21C173.259 461.663 172.261 460.757 171.491 459.413L168.468 461.145ZM173.072 465.393C175.733 466.578 178.499 466.582 181.253 465.459L179.937 462.233C178.018 463.016 176.241 462.99 174.489 462.21L173.072 465.393ZM181.236 465.465C183.736 464.475 186.243 462.998 188.757 461.066L186.633 458.304C184.322 460.081 182.095 461.378 179.953 462.226L181.236 465.465ZM186.357 460.8L191.13 466.525L193.806 464.294L189.033 458.569L186.357 460.8ZM191.37 464.057C189.527 465.552 187.496 466.974 185.274 468.319L187.079 471.299C189.425 469.878 191.588 468.366 193.565 466.763L191.37 464.057ZM185.274 468.319C183.195 469.579 180.929 470.386 178.462 470.74L178.958 474.188C181.879 473.769 184.591 472.806 187.079 471.299L185.274 468.319ZM178.45 470.742C176.186 471.084 173.683 470.699 170.896 469.458L169.479 472.641C172.734 474.09 175.913 474.649 178.97 474.187L178.45 470.742ZM170.896 469.458C168.561 468.419 166.88 467.111 165.75 465.584L162.949 467.655C164.51 469.767 166.721 471.413 169.479 472.641L170.896 469.458ZM165.758 465.595C164.528 463.903 163.55 462.139 162.819 460.302L159.582 461.591C160.426 463.71 161.547 465.728 162.94 467.644L165.758 465.595ZM162.819 460.302C162.013 458.278 161.176 456.436 160.307 454.781L157.223 456.401C158.026 457.931 158.813 459.66 159.582 461.591L162.819 460.302ZM160.307 454.781C159.298 452.861 157.815 451.431 155.876 450.567L154.459 453.75C155.643 454.277 156.558 455.135 157.223 456.401L160.307 454.781ZM155.876 450.567C153.937 449.704 151.881 449.558 149.78 450.094L150.64 453.47C152.025 453.117 153.275 453.223 154.459 453.75L155.876 450.567ZM149.758 450.099C147.98 450.577 146.086 451.203 144.077 451.974L145.326 455.227C147.242 454.491 149.02 453.905 150.662 453.464L149.758 450.099ZM144.057 451.982C142.287 452.687 140.371 453.152 138.299 453.37L138.662 456.834C141.028 456.587 143.259 456.051 145.346 455.219L144.057 451.982ZM138.299 453.37C136.455 453.563 134.365 453.193 131.991 452.136L130.574 455.319C133.36 456.559 136.069 457.106 138.662 456.834L138.299 453.37ZM131.991 452.136C129.655 451.096 127.997 449.799 126.904 448.296L124.086 450.345C125.617 452.451 127.817 454.092 130.574 455.319L131.991 452.136ZM126.896 448.285C125.633 446.578 124.642 444.81 123.914 442.98L120.677 444.269C121.523 446.395 122.665 448.424 124.095 450.356L126.896 448.285ZM123.914 442.98C123.108 440.956 122.271 439.114 121.402 437.459L118.317 439.079C119.121 440.609 119.908 442.338 120.677 444.269L123.914 442.98ZM121.402 437.459C120.393 435.539 118.91 434.109 116.971 433.245L115.554 436.428C116.738 436.955 117.653 437.813 118.317 439.079L121.402 437.459ZM116.971 433.245C114.392 432.098 111.654 432.122 108.874 433.189L110.123 436.442C112.151 435.663 113.922 435.702 115.554 436.428L116.971 433.245ZM108.875 433.189C106.282 434.184 103.741 435.676 101.248 437.635L103.402 440.374C105.666 438.594 107.907 437.292 110.123 436.442L108.875 433.189Z" fill="#EF5A92" mask="url(#path-1-outside-1_684_2721)"/>
<rect x="0.27907" y="0.805926" width="475.975" height="786.016" rx="25.9936" fill="#FFB5CF" stroke="#18305A" stroke-width="1.01127"/>
<rect x="32.0779" y="56.4544" width="415.027" height="293.13" rx="31.2934" fill="#EF5A92" stroke="#18305A" stroke-width="1.01127"/>
<rect x="63.8767" y="85.6033" width="348.778" height="234.832" rx="20.6937" fill="#FFE2EC" stroke="#18305A" stroke-width="1.01127"/>
<path d="M386.16 478.61C386.16 493.676 373.358 505.928 357.516 505.928C341.675 505.928 328.873 493.676 328.873 478.61C328.873 463.544 341.675 451.291 357.516 451.291C373.358 451.291 386.16 463.544 386.16 478.61Z" fill="#18305A" stroke="#18305A" stroke-width="1.01127"/>
<path d="M330.509 534.261C330.509 549.326 317.708 561.579 301.866 561.579C286.024 561.579 273.222 549.326 273.222 534.261C273.222 519.195 286.024 506.942 301.866 506.942C317.708 506.942 330.509 519.195 330.509 534.261Z" fill="#FFE2EC" stroke="#18305A" stroke-width="1.01127"/>
<path d="M439.152 534.26C439.152 549.326 426.35 561.579 410.509 561.579C394.667 561.579 381.865 549.326 381.865 534.26C381.865 519.195 394.667 506.942 410.509 506.942C426.35 506.942 439.152 519.195 439.152 534.26Z" fill="#FFE2EC" stroke="#18305A" stroke-width="1.01127"/>
<path d="M386.16 587.258C386.16 602.323 373.358 614.576 357.516 614.576C341.675 614.576 328.873 602.323 328.873 587.258C328.873 572.192 341.675 559.939 357.516 559.939C373.358 559.939 386.16 572.192 386.16 587.258Z" fill="#18305A" stroke="#18305A" stroke-width="1.01127"/>
<path d="M80.5945 461.387L126.968 461.387L126.968 503.786L170.692 503.786L170.692 550.16L126.968 550.16L126.968 592.558L83.2445 592.558L83.2445 550.16L40.8457 550.16L40.8457 503.786L80.5945 503.786L80.5945 461.387Z" fill="#FFE2EC" stroke="#18305A" stroke-width="1.01127"/>
<path d="M24.6213 744.682L451.405 744.682C453.385 744.682 455.348 745.032 457.206 745.716C474.791 752.193 470.146 778.248 451.405 778.248L24.6214 778.248C5.83866 778.248 1.2372 752.103 18.8912 745.69C20.728 745.023 22.6671 744.682 24.6213 744.682Z" fill="#18305A" stroke="#18305A" stroke-width="1.01127"/>
</g>
<defs>
<clipPath id="clip0_684_2721">
<rect width="477" height="787" fill="white"/>
</clipPath>
</defs>
</svg>
