<svg width="588" height="804" viewBox="0 0 588 804" fill="none" xmlns="http://www.w3.org/2000/svg">
<g clip-path="url(#clip0_684_2723)">
<rect x="0.484243" y="0.484295" width="387.508" height="379.427" rx="18.2805" transform="matrix(0.999981 -0.00617391 -0.00628068 0.99998 106.173 2.75202)" fill="#EF5A92" stroke="#18305A" stroke-width="0.974626"/>
<rect x="0.484243" y="0.484295" width="360.115" height="312.363" rx="18.2805" transform="matrix(0.999981 -0.00617391 -0.00628068 0.99998 118.407 36.9434)" fill="#FFB5CF" stroke="#18305A" stroke-width="0.974626"/>
<rect x="0.484243" y="0.484295" width="307.819" height="265.852" rx="18.2805" transform="matrix(0.999981 -0.00617391 -0.00628068 0.99998 145.663 58.8057)" fill="#FFE2EC" stroke="#18305A" stroke-width="0.974626"/>
<rect x="0.484243" y="0.484295" width="412.41" height="45.5364" rx="6.5506" transform="matrix(0.999981 -0.00617391 -0.00628068 0.99998 91.3546 379.803)" fill="#18305A" stroke="#18305A" stroke-width="0.974626"/>
<rect x="0.484243" y="0.484295" width="576.768" height="116.527" rx="6.5506" transform="matrix(0.999981 -0.00617391 -0.00628068 0.99998 7.25305 686.298)" fill="#EF5A92" stroke="#18305A" stroke-width="0.974626"/>
<path d="M111.372 426.673L486.524 424.357C497.682 424.288 507.479 431.531 510.644 442.191L583.135 686.319C587.953 702.546 575.683 719.016 558.698 719.121L34.4626 722.358C17.4366 722.463 5.36725 706.07 10.4643 689.762L87.0561 444.713C90.3856 434.06 100.251 426.742 111.372 426.673Z" fill="#FFE2EC" stroke="#18305A" stroke-width="0.974626"/>
<path d="M111.372 426.673L486.524 424.357C497.682 424.288 507.479 431.531 510.644 442.191L583.135 686.319C587.953 702.546 575.683 719.016 558.698 719.121L34.4626 722.358C17.4366 722.463 5.36725 706.07 10.4643 689.762L87.0561 444.713C90.3856 434.06 100.251 426.742 111.372 426.673Z" fill="#FFB5CF" stroke="#18305A" stroke-width="0.974626"/>
<path d="M45.1183 671.786L552.073 668.656C554.358 668.642 556.624 669.026 558.768 669.79C579.453 677.168 573.874 707.9 551.825 708.036L44.8709 711.166C22.7731 711.303 17.6321 680.533 38.4896 672.973C40.6196 672.201 42.8618 671.8 45.1183 671.786Z" fill="#18305A" stroke="#18305A" stroke-width="0.974626"/>
<path d="M154.378 597.7C151.47 582.739 161.79 568.108 177.482 565.058C193.175 562.008 208.223 571.707 211.131 586.668C214.039 601.629 203.72 616.259 188.028 619.31C172.335 622.36 157.287 612.661 154.378 597.7Z" fill="#FFE2EC" stroke="#18305A"/>
<path d="M99.2241 547.077C96.316 532.116 106.635 517.485 122.328 514.435C138.02 511.385 153.069 521.084 155.977 536.045C158.885 551.006 148.566 565.636 132.873 568.687C117.181 571.737 102.132 562.038 99.2241 547.077Z" fill="#FFE2EC" stroke="#18305A"/>
<path d="M152.541 497.459C149.632 482.498 159.952 467.867 175.644 464.817C191.337 461.767 206.385 471.466 209.293 486.427C212.202 501.388 201.882 516.018 186.19 519.069C170.497 522.119 155.449 512.42 152.541 497.459Z" fill="#FFE2EC" stroke="#18305A"/>
<path d="M206.13 543.465C203.222 528.504 213.541 513.874 229.234 510.823C244.927 507.773 259.975 517.472 262.883 532.433C265.791 547.394 255.472 562.025 239.78 565.075C224.087 568.125 209.038 558.426 206.13 543.465Z" fill="#FFE2EC" stroke="#18305A"/>
<path d="M371.852 562.24C381.041 550.046 398.228 547.514 410.237 556.564C422.247 565.614 424.551 582.833 415.362 595.027C406.173 607.221 388.986 609.752 376.977 600.703C364.967 591.653 362.664 574.434 371.852 562.24Z" fill="#FFE2EC" stroke="#18305A"/>
<path d="M374.581 488.897C383.77 476.703 400.956 474.171 412.966 483.221C424.976 492.271 427.279 509.49 418.09 521.684C408.902 533.877 391.715 536.409 379.705 527.359C367.696 518.309 365.392 501.091 374.581 488.897Z" fill="#FFE2EC" stroke="#18305A"/>
<path d="M444.333 493.209C453.522 481.015 470.708 478.483 482.718 487.533C494.727 496.583 497.031 513.802 487.842 525.995C478.654 538.189 461.467 540.721 449.457 531.671C437.448 522.621 435.144 505.402 444.333 493.209Z" fill="#FFE2EC" stroke="#18305A"/>
<path d="M444.015 562.322C453.203 550.128 470.39 547.596 482.4 556.646C494.409 565.696 496.713 582.915 487.524 595.109C478.335 607.303 461.149 609.834 449.139 600.785C437.129 591.735 434.826 574.516 444.015 562.322Z" fill="#FFE2EC" stroke="#18305A"/>
</g>
<defs>
<clipPath id="clip0_684_2723">
<rect width="588" height="804" fill="white"/>
</clipPath>
</defs>
</svg>
