<svg width="1078" height="503" viewBox="0 0 1078 503" fill="none" xmlns="http://www.w3.org/2000/svg">
<path d="M114.662 48.5615C152.361 22.6434 196.037 6.74648 241.576 2.36773L255.8 1H795.526C821.7 1 847.751 4.5711 872.959 11.6145L878.64 13.202C921.755 25.2488 961.113 48.0275 993.036 79.4101L996.984 83.2913C1024.78 110.612 1045.57 144.235 1057.59 181.306L1059.36 186.776C1071.5 224.2 1073.43 264.184 1064.96 302.603V302.603C1057.6 335.966 1042.61 367.169 1021.16 393.763L1013.62 403.105C987.168 435.912 953.033 461.692 914.24 478.166L911.62 479.279C875.014 494.824 835.173 501.221 795.541 497.919L789.173 497.388C756.837 494.693 725.518 484.776 697.525 468.366V468.366C664.27 448.871 626.419 438.595 587.871 438.595H494.98C455.257 438.595 416.212 448.889 381.652 468.473V468.473C352.792 484.827 320.735 494.741 287.681 497.534L267.143 499.269C238.37 501.701 209.395 498.882 181.63 490.949V490.949C142.699 479.826 107.245 458.965 78.6153 430.335L77.6586 429.378C52.9879 404.707 33.9078 375.023 21.7107 342.334L17.6519 331.457C6.02206 300.289 1.28196 266.971 3.7577 233.796V233.796C6.57192 196.086 18.6279 159.648 38.8611 127.701L41.656 123.288C59.816 94.6145 83.5981 69.9181 111.567 50.6897L114.662 48.5615Z" fill="#FFAAC7" stroke="#18305A" stroke-width="1.10895"/>
<rect x="305.547" y="74.5496" width="465.444" height="336.74" rx="25.1864" fill="#18305A" stroke="#18305A" stroke-width="1.10895"/>
<rect x="353.818" y="103.508" width="365.699" height="278.823" rx="15.5336" fill="#FFE2EC" stroke="#18305A" stroke-width="1.10895"/>
<path d="M284.917 251.984C284.917 319.212 231.137 373.698 164.811 373.698C98.485 373.698 44.7049 319.212 44.7049 251.984C44.7049 184.755 98.485 130.269 164.811 130.269C231.137 130.269 284.917 184.755 284.917 251.984Z" fill="#EF5A92" stroke="#18305A" stroke-width="1.10895"/>
<path d="M1024.25 251.973C1024.25 319.201 970.474 373.688 904.149 373.688C837.823 373.688 784.043 319.201 784.043 251.973C784.043 184.745 837.823 130.259 904.149 130.259C970.474 130.259 1024.25 184.745 1024.25 251.973Z" fill="#EF5A92" stroke="#18305A" stroke-width="1.10895"/>
<path d="M934.159 186.013C934.159 200.782 921.473 212.808 905.755 212.808C890.038 212.808 877.351 200.782 877.351 186.013C877.351 171.244 890.038 159.218 905.755 159.218C921.473 159.218 934.159 171.244 934.159 186.013Z" fill="#E4FFF8" stroke="#18305A" stroke-width="1.10895"/>
<path d="M866.32 246.865C866.32 261.634 853.633 273.661 837.916 273.661C822.198 273.661 809.512 261.634 809.512 246.865C809.512 232.096 822.198 220.07 837.916 220.07C853.633 220.07 866.32 232.096 866.32 246.865Z" fill="#FFAAC7" stroke="#18305A" stroke-width="1.10895"/>
<path d="M1002.52 246.866C1002.52 261.635 989.832 273.661 974.115 273.661C958.397 273.661 945.711 261.635 945.711 246.866C945.711 232.097 958.397 220.071 974.115 220.071C989.832 220.071 1002.52 232.097 1002.52 246.866Z" fill="#FFAAC7" stroke="#18305A" stroke-width="1.10895"/>
<path d="M932.554 311.499C932.554 326.268 919.867 338.294 904.15 338.294C888.433 338.294 875.746 326.268 875.746 311.499C875.746 296.73 888.433 284.704 904.15 284.704C919.867 284.704 932.554 296.73 932.554 311.499Z" fill="#E4FFF8" stroke="#18305A" stroke-width="1.10895"/>
</svg>
