<svg width="676" height="805" viewBox="0 0 676 805" fill="none" xmlns="http://www.w3.org/2000/svg">
<path d="M674.373 511.097C678.906 616.848 651.574 683.589 606.779 723.904C561.97 764.234 499.587 778.21 433.831 778.21C394.623 778.21 329.724 771.41 275.774 734.636C221.864 697.89 178.8 631.155 183.329 511.094C192.731 261.868 355.608 184.971 433.831 184.971C512.035 184.971 663.497 257.311 674.373 511.097Z" fill="#FFAAC7" stroke="#18305A"/>
<rect x="306.992" y="363.394" width="259.074" height="243.954" rx="26.7171" fill="#FFE2EC" stroke="#18305A"/>
<circle cx="357.901" cy="674.378" r="20.6688" fill="#FFE2EC" stroke="#18305A"/>
<circle cx="436.528" cy="689.499" r="20.6688" fill="#9DE4D2" stroke="#18305A"/>
<circle cx="437.319" cy="178.637" r="21.1688" fill="#18305A"/>
<circle cx="515.155" cy="674.378" r="20.6688" fill="#FFE2EC" stroke="#18305A"/>
<ellipse cx="317.075" cy="12.0965" rx="13.6085" ry="12.0965" fill="#18305A"/>
<ellipse cx="332.196" cy="45.3621" rx="13.6085" ry="12.0965" fill="#18305A"/>
<ellipse cx="350.341" cy="75.6033" rx="13.6085" ry="12.0965" fill="#18305A"/>
<ellipse cx="374.534" cy="105.845" rx="13.6085" ry="12.0965" fill="#18305A"/>
<ellipse cx="398.728" cy="133.061" rx="13.6085" ry="12.0965" fill="#18305A"/>
<ellipse cx="483.403" cy="133.061" rx="13.6085" ry="12.0965" fill="#18305A"/>
<ellipse cx="507.595" cy="105.845" rx="13.6085" ry="12.0965" fill="#18305A"/>
<ellipse cx="531.788" cy="75.6033" rx="13.6085" ry="12.0965" fill="#18305A"/>
<ellipse cx="549.933" cy="45.3621" rx="13.6085" ry="12.0965" fill="#18305A"/>
<ellipse cx="565.052" cy="12.0965" rx="13.6085" ry="12.0965" fill="#18305A"/>
<ellipse cx="438.041" cy="155.742" rx="25.705" ry="13.6085" fill="#18305A"/>
<path d="M317.399 663.263L184.003 747.607C182.901 748.303 181.513 748.36 180.358 747.757L136.989 725.094C135.784 724.464 135.028 723.216 135.028 721.856L135.028 710.224C135.028 708.521 134.098 706.954 132.603 706.139L67.3859 670.566C66.5487 670.109 65.5915 669.921 64.6438 670.026L48.7812 671.789C47.9141 671.885 47.0411 671.668 46.3202 671.176L5.49326 643.349C3.32451 641.871 3.37564 638.656 5.59027 637.248L136.757 553.826C137.937 553.076 139.441 553.065 140.632 553.798L190.435 584.446C191.516 585.111 192.174 586.289 192.174 587.557L192.174 597.382C192.174 599.04 193.056 600.573 194.491 601.406L255.655 636.921C256.489 637.405 257.452 637.618 258.413 637.531L278.636 635.692C279.382 635.624 280.13 635.787 280.78 636.158L317.259 657.004C319.65 658.37 319.727 661.791 317.399 663.263Z" fill="#FFAAC7" stroke="#18305A"/>
<path d="M4.00195 675.953V641.677L46.8106 671.97L46.9967 706.734L4.00195 675.953Z" fill="#FF8BC4" stroke="#18305A"/>
<path d="M179.715 626.769C179.715 649.332 156.805 667.802 128.299 667.802C99.7927 667.802 76.8828 649.332 76.8828 626.769C76.8828 604.205 99.7927 585.736 128.299 585.736C156.805 585.736 179.715 604.205 179.715 626.769Z" fill="#FF8BC4" stroke="#18305A"/>
<path d="M171.407 618.462C171.407 627.448 166.627 635.619 158.831 641.559C151.034 647.5 140.24 651.188 128.297 651.188C116.354 651.188 105.561 647.5 97.7635 641.559C89.9667 635.619 85.1875 627.448 85.1875 618.462C85.1875 609.476 89.9667 601.306 97.7635 595.365C105.561 589.425 116.354 585.736 128.297 585.736C140.24 585.736 151.034 589.425 158.831 595.365C166.627 601.306 171.407 609.476 171.407 618.462Z" fill="#FFAAC7" stroke="#18305A"/>
<path d="M47.9866 707.152L47.0147 672.162L65.9784 670.265L64.5202 705.262L47.9866 707.152Z" fill="#FF8BC4" stroke="#18305A"/>
<path d="M64.4349 705.397L65.9666 670.526L136.104 708.058V745.854L64.4349 705.397Z" fill="#FF8BC4" stroke="#18305A"/>
<path d="M182.997 785.316L182.793 747.491L318.85 662.971V701.249L182.997 785.316Z" fill="#FF8BC4" stroke="#18305A"/>
<path d="M133.021 751.461L135.44 717.589L182.498 747.98L182.014 785.266L133.021 751.461Z" fill="#FF8BC4" stroke="#18305A"/>
<path d="M208.786 695.298C208.786 701.409 205.409 706.983 199.866 711.047C194.324 715.112 186.643 717.641 178.136 717.641C169.629 717.641 161.948 715.112 156.406 711.047C150.863 706.983 147.486 701.409 147.486 695.298C147.486 689.188 150.863 683.614 156.406 679.549C161.948 675.484 169.629 672.955 178.136 672.955C186.643 672.955 194.324 675.484 199.866 679.549C205.409 683.614 208.786 689.188 208.786 695.298Z" fill="#FFE2EC" stroke="#18305A"/>
<path d="M262.778 662.072C262.778 668.183 259.402 673.757 253.859 677.821C248.316 681.886 240.635 684.415 232.128 684.415C223.622 684.415 215.94 681.886 210.398 677.821C204.855 673.757 201.479 668.183 201.479 662.072C201.479 655.962 204.855 650.388 210.398 646.323C215.94 642.258 223.622 639.729 232.128 639.729C240.635 639.729 248.316 642.258 253.859 646.323C259.402 650.388 262.778 655.962 262.778 662.072Z" fill="#FFE2EC" stroke="#18305A"/>
<path d="M158.95 606.003C158.95 619.391 145.337 630.423 128.3 630.423C111.263 630.423 97.6504 619.391 97.6504 606.003C97.6504 592.614 111.263 581.583 128.3 581.583C145.337 581.583 158.95 592.614 158.95 606.003Z" fill="#FFE2EC" stroke="#18305A"/>
<path d="M118.291 609.655L97.7781 539.869L109.351 536.012L140.068 603.765L135.046 606.773C131.899 608.659 128.299 609.655 124.63 609.655L118.291 609.655Z" fill="#FF8BC4" stroke="#18305A"/>
<circle cx="97.1473" cy="518.784" r="28.573" fill="#FF8BC4" stroke="#18305A"/>
<ellipse cx="221.746" cy="653.765" rx="8.30658" ry="6.22994" fill="#9DE4D2"/>
<ellipse cx="230.055" cy="670.379" rx="8.30658" ry="6.22994" fill="#9DE4D2"/>
<ellipse cx="246.666" cy="657.919" rx="8.30658" ry="6.22994" fill="#9DE4D2"/>
<path d="M159.447 686.992L167.754 680.762L180.214 686.992L188.52 680.762L196.827 686.992L188.52 693.222L198.904 699.452L190.597 705.682L180.214 699.452L167.754 707.759L159.447 701.529L171.907 693.222L159.447 686.992Z" fill="#9DE4D2"/>
<path d="M48 675H50V706.754L48.9766 706.898L48 707V675Z" fill="#FF8BC4"/>
<path d="M66.5901 671.075L135.135 709.075L134.268 712.019L66.135 673.575L66.1349 672.075L66.1367 671.574L66.5901 671.075Z" fill="#FF8BC4"/>
<path d="M182.501 748.574L183.001 748.074L184.63 748.103L184 784.074L183 785.074L182 785.574L182.002 784.063L182.501 748.574Z" fill="#FF8BC4"/>
</svg>
