<svg width="1439" height="1325" viewBox="0 0 1439 1325" fill="none" xmlns="http://www.w3.org/2000/svg">
<path d="M164 0H1277L1439 862H0L164 0Z" fill="#E4FFF8"/>
<path d="M432 0H549V669.112H431L432 0Z" fill="#F0ABCF"/>
<rect x="549" y="0.499512" width="118" height="668.612" fill="#F2E2E8"/>
<path d="M313 0.499512H432L431 669.112H313V0.499512Z" fill="#F2F0F2"/>
<rect x="667" y="0.499512" width="119" height="668.612" fill="#F2CCE2"/>
<rect x="190" y="0.499512" width="123" height="668.612" fill="#F2C4DD"/>
<path d="M431 669.112H549L559 862H406L431 669.112Z" fill="url(#paint0_linear_628_14435)"/>
<path d="M312.24 669.112H431L406.5 862H193L312.24 669.112Z" fill="url(#paint1_linear_628_14435)"/>
<path d="M190 669.112H313L193 862H7L190 669.112Z" fill="url(#paint2_linear_628_14435)"/>
<path opacity="0.9" d="M549 669.112H667L738.5 862H559L549 669.112Z" fill="url(#paint3_linear_628_14435)"/>
<path d="M667 669.112H786.999L945.5 862H738L667 669.112Z" fill="url(#paint4_linear_628_14435)"/>
<path d="M406.5 862H558.5L535.508 1319.88H396.508L406.5 862Z" fill="#F0ABCF"/>
<path d="M193 862H406.5L394.008 1311.88L253.508 1305.73L193 862Z" fill="#F2F0F2"/>
<path d="M7 862H193L256.508 1312.88L120.752 1301.09L7 862Z" fill="#F2C4DD"/>
<path d="M558.5 862H742.5L656.863 1324.88H515.008L558.5 862Z" fill="#F2E2E8"/>
<path d="M738.137 862H946L784.499 1325H653L738.137 862Z" fill="#F2CCE2"/>
<defs>
<linearGradient id="paint0_linear_628_14435" x1="497.251" y1="668.73" x2="497.251" y2="862" gradientUnits="userSpaceOnUse">
<stop stop-color="#F0ABCF"/>
<stop offset="1" stop-color="#F6D5E6"/>
</linearGradient>
<linearGradient id="paint1_linear_628_14435" x1="330.011" y1="668.112" x2="330.011" y2="861.235" gradientUnits="userSpaceOnUse">
<stop stop-color="#F2F0F2"/>
<stop offset="1" stop-color="white"/>
</linearGradient>
<linearGradient id="paint2_linear_628_14435" x1="191.853" y1="668.879" x2="191.853" y2="860.001" gradientUnits="userSpaceOnUse">
<stop stop-color="#F2C4DD"/>
<stop offset="1" stop-color="#ECD2E0"/>
</linearGradient>
<linearGradient id="paint3_linear_628_14435" x1="657.75" y1="669.112" x2="657.75" y2="862" gradientUnits="userSpaceOnUse">
<stop stop-color="#F2E2E8"/>
<stop offset="1" stop-color="#FDFDFD"/>
</linearGradient>
<linearGradient id="paint4_linear_628_14435" x1="796.75" y1="669.112" x2="796.75" y2="861.001" gradientUnits="userSpaceOnUse">
<stop stop-color="#F2CCE2"/>
<stop offset="1" stop-color="#EEEDEE"/>
</linearGradient>
</defs>
</svg>
